<?xml version="1.0" encoding="UTF-8"?>
<!DOCTYPE svg PUBLIC "-//W3C//DTD SVG 1.1//EN" "http://www.w3.org/Graphics/SVG/1.1/DTD/svg11.dtd">
<!-- Creator: CorelDRAW -->
<svg xmlns="http://www.w3.org/2000/svg" xml:space="preserve" width="649.065mm" height="147.162mm" version="1.1" style="shape-rendering:geometricPrecision; text-rendering:geometricPrecision; image-rendering:optimizeQuality; fill-rule:evenodd; clip-rule:evenodd"
viewBox="0 0 64899.44 14714.58"
 xmlns:xlink="http://www.w3.org/1999/xlink"
 xmlns:xodm="http://www.corel.com/coreldraw/odm/2003">
 <defs>
  <style type="text/css">
   <![CDATA[
    .fil0 {fill:#05BDCE}
    .fil1 {fill:#EEEEEE}
    .fil2 {fill:white}
    .fil3 {fill:#EEEEEE;fill-rule:nonzero}
   ]]>
  </style>
 </defs>
 <g id="Camada_x0020_1">
  <metadata id="CorelCorpID_0Corel-Layer"/>
  <g id="_2047888170144">
   <path class="fil0" d="M9568.1 0l-6523.74 0c-1674.41,0 -3044.36,1369.97 -3044.36,3044.38l0 6523.74c0,2375.18 3382.03,4764.77 5488.77,5146.46l17.18 -2102.08 4062.16 0c1674.41,0 3044.37,-1369.96 3044.37,-3044.38l0 -6523.74c0,-1674.41 -1369.96,-3044.38 -3044.37,-3044.38l-0.01 0z"/>
   <path class="fil1" d="M14378.13 4423.74l4042.09 0 0 1067.12 -2704.49 0 0 957.55 2441.26 0 0 1059.86 -2441.26 7.26 0 964.93 2777.55 0 0 1067.12 -4115.15 0 0 -5123.85 0 0.01zm4302.89 1169.46l1491.12 0 636.02 1111.04 686.95 -1111.04 1425.29 0 -1249.77 1929.71 1337.6 2024.67 -1498.49 0 -701.58 -1206.12 -782.14 1206.12 -1432.67 0 1344.98 -2024.67 -1257.29 -1929.71 -0.01 0zm4610.02 0l1293.69 0 0 3954.38 -1293.69 0 0 -3954.38zm635.89 -1820.13c199.71,0 364.15,64.66 493.35,193.85 129.07,129.07 193.72,295.93 193.72,500.74 0,199.7 -64.65,365.42 -193.72,497.03 -129.2,131.49 -293.64,197.29 -493.35,197.29 -199.84,0 -364.41,-65.8 -493.48,-197.29 -129.07,-131.61 -193.72,-297.33 -193.72,-497.03 0,-204.81 64.65,-371.67 193.72,-500.74 129.07,-129.19 293.64,-193.85 493.48,-193.85zm1203.71 650.67l4400.13 0 0 877.09 -2704.36 3172.23 2748.27 0 0 1074.51 -4539.13 0 0 -869.85 2704.49 -3179.61 -2609.41 0 0 -1074.38zm6685.72 1118.31c545.78,0 969.75,125.5 1271.92,376.49 302.04,250.87 455.54,602.94 460.38,1056.19l0 2572.87 -1279.06 0 0 -445.86c-263.09,336.14 -660.21,504.29 -1191.48,504.29 -419.01,0 -749.18,-113.28 -990.38,-339.83 -241.19,-226.7 -361.86,-525.17 -361.86,-895.43 0,-375.23 130.47,-667.6 391.14,-877.1 260.67,-209.5 634.63,-316.8 1121.99,-321.64l1030.6 0 0 -43.79c0,-190.16 -64.52,-336.28 -193.72,-438.61 -129.07,-102.34 -315.54,-153.49 -559.15,-153.49 -165.72,0 -352.06,26.72 -559.15,80.43 -207.09,53.59 -415.44,131.49 -625.08,233.81l-358.04 -877.09c321.64,-146.12 629.79,-254.56 924.58,-325.2 294.9,-70.64 600.64,-106.02 917.32,-106.02zm-336.15 3179.6c194.86,0 365.42,-47.6 511.66,-142.55 146.12,-95.08 238.78,-218.17 277.73,-369.11l0 -343.54 -774.76 0c-365.56,0 -548.33,136.33 -548.33,409.22 0,136.45 47.59,244.88 142.54,325.32 95.08,80.45 225.42,120.67 391.15,120.67zm5202 -3172.23c365.43,0 687.08,84.01 964.8,252.15 277.73,168.01 493.35,406.8 646.85,716.34 153.5,309.42 230.25,666.32 230.25,1070.68 0,399.55 -74.33,750.46 -222.88,1052.5 -148.66,302.17 -360.58,536.11 -636.02,701.83 -275.19,165.59 -593.14,248.45 -953.85,248.45 -248.46,0 -473.75,-47.47 -676,-142.42 -202.25,-95.08 -374.08,-232.8 -515.36,-413.03l0 1929.59 -1301.08 0 0 -5372.31 1301.08 0 0 511.67c287.53,-370.39 674.97,-555.47 1162.2,-555.47zm-321.64 2989.46c253.41,0 459.36,-90.11 617.69,-270.46 158.34,-180.37 237.51,-416.6 237.51,-708.97 0,-292.36 -79.17,-529.86 -237.51,-712.64 -158.33,-182.78 -364.28,-274.16 -617.69,-274.16 -248.45,0 -450.7,91.38 -606.63,274.16 -155.91,182.78 -233.93,420.28 -233.93,712.64 0,292.37 78.02,528.6 233.93,708.97 155.93,180.35 358.18,270.46 606.63,270.46z"/>
   <path class="fil2" d="M11329.57 3458.82c-107.41,-97.39 -273.44,-89.27 -370.81,18.14l-2416.31 2665.03 -397.82 -326.19 -468.17 684.47 526.82 750.17c32.4,45.74 74.23,88.26 123.15,121.84 222.18,152.53 525.95,96.08 678.49,-126.11l19.36 -28.21 2345.37 -3416.06c73.37,-106.62 58.43,-253.73 -40.09,-343.07z"/>
   <path class="fil2" d="M9078.27 3458.82c-107.41,-97.39 -273.41,-89.27 -370.81,18.14l-2416.3 2665.03 -1139.7 -934.54c-89.48,-73.3 -220.29,-81.66 -319.57,-11.92 -119.48,83.9 -148.31,248.78 -64.41,368.27l1184.51 1686.63c32.39,45.74 74.23,88.26 123.15,121.84 222.17,152.53 525.94,96.08 678.5,-126.11l19.36 -28.21 2345.35 -3416.06c73.39,-106.62 58.44,-253.73 -40.09,-343.07z"/>
   <path class="fil2" d="M3098.05 8152.78c0,0 1357.09,1874.5 2684.57,2715.19 506.83,320.73 925.38,492.16 1292.2,548.04 130.12,18.33 248.05,25.34 365.42,20.63 422.73,-16.94 780.64,-184.2 1123.51,-433.14 0,0 537.32,-386.12 727.07,-640.75 177.54,-265.86 156.81,-488.53 -26.36,-657.57l-1352.89 -1474.8c0,0 -332.14,-363.11 -778.34,-51.19 0,0 -192.09,195.91 -636.87,543.05 -433.06,346.67 -933.8,-409.54 -933.8,-409.54l-887.41 -1305.26c0,0 -224.03,-308.61 -485.72,-674.44 -161.62,-217.02 -324.11,-457.43 -474.01,-674.92 -330.22,-610.12 -174.3,-828.12 -174.3,-828.12 85.02,-226.9 688.14,-439.26 962.38,-638.38 434.47,-311.45 193.48,-748.75 193.48,-748.75l-975.72 -1748.67c-115.08,-230.59 -307.21,-328.72 -620.98,-233.86 -314.26,83.14 -839.32,480.59 -839.32,480.59 -91.59,62.49 -171.4,124.52 -250.8,198.25 -662.26,496.96 -1035.16,1170.62 -671.06,2626.18 401.37,1501.28 1758.93,3387.39 1758.93,3387.39l0.03 0.07 0 -0.01z"/>
   <path class="fil3" d="M64899.44 11806.2l-849.1 0 -1793.56 -2511.27 0 -6386.57 2642.66 0 0 8897.82 0 0.01zm-14308.89 -3452.76l0 1248.23 5844.62 0 0 2204.53 -8487.29 0 0 -8897.82 5634.95 0 1617.93 2204.61 -4610.22 0 0 1168.7 3758.54 0 -1509.79 2071.22 -2248.76 0.52zm2833.15 -0.52l2361.39 -3239.93 -3187.24 -4342.71 3107.56 0 1527.23 2324.17 1540.46 -2324.17 3107.79 0 -3187.47 4342.71 4780.4 6693.21 -3025.76 0 -3215.42 -4648.03 -796.51 1194.75 -3012.44 0 0.01 0z"/>
   <path class="fil3" d="M42361.94 6284.87c172.64,0 326.4,40.47 461.28,121.39 134.89,80.93 239.41,194.9 313.6,341.92 74.18,147.01 111.28,314.94 111.28,503.77 0,231.99 -51.25,442.4 -153.76,631.23 -102.51,188.83 -242.78,337.87 -420.82,447.12 -178.04,109.26 -376.31,163.88 -594.81,163.88 -183.44,0 -337.2,-38.45 -461.29,-115.33 -124.09,-76.87 -215.81,-188.15 -275.15,-333.82l-84.97 420.82 -526.03 0 598.86 -3002.4 521.97 0 -226.6 1141.08c97.12,-102.51 208.39,-181.41 333.82,-236.71 125.45,-55.3 259.64,-82.95 402.62,-82.95l0 0.01zm-186.13 432.95c-129.49,0 -248.17,33.72 -356.08,101.16 -107.9,67.43 -192.88,158.48 -254.92,273.12 -62.04,114.65 -93.06,239.41 -93.06,374.29 0,169.95 48.55,306.85 145.66,410.71 97.11,103.86 226.6,155.78 388.45,155.78 126.79,0 244.8,-33.72 354.06,-101.16 109.25,-67.43 195.57,-159.15 258.96,-275.15 63.39,-116 95.09,-241.43 95.09,-376.31 0,-169.94 -49.9,-306.19 -149.71,-408.69 -99.81,-102.5 -229.3,-153.75 -388.45,-153.75z"/>
   <path id="_1" class="fil3" d="M45740.64 6301.05l-1460.73 2456.13c-199.62,345.28 -470.72,517.93 -813.31,517.93 -107.91,0 -202.32,-17.54 -283.25,-52.6 -80.92,-35.07 -159.15,-87.67 -234.68,-157.81l271.1 -368.21c75.53,62.04 157.81,93.06 246.83,93.06 145.66,0 275.15,-75.53 388.45,-226.6l97.11 -133.53 -465.33 -2128.38 538.17 0 287.29 1594.26 890.19 -1594.26 538.16 0z"/>
  </g>
 </g>
</svg>
