<?xml version="1.0" encoding="UTF-8"?>
<!DOCTYPE svg PUBLIC "-//W3C//DTD SVG 1.1//EN" "http://www.w3.org/Graphics/SVG/1.1/DTD/svg11.dtd">
<svg xmlns="http://www.w3.org/2000/svg" version="1.1" width="1700px" height="447px" style="shape-rendering:geometricPrecision; text-rendering:geometricPrecision; image-rendering:optimizeQuality; fill-rule:evenodd; clip-rule:evenodd" xmlns:xlink="http://www.w3.org/1999/xlink">
<g><path style="opacity:0.973" fill="#3aa3ff" d="M 199.5,1.5 C 174.5,24.1667 149.5,46.8333 124.5,69.5C 104.339,81.7487 84.006,93.7487 63.5,105.5C 99.2009,72.4639 135.201,39.7972 171.5,7.5C 180.387,3.94883 189.72,1.94883 199.5,1.5 Z"/></g>
<g><path style="opacity:0.97" fill="#3ca1ff" d="M 199.5,1.5 C 205.5,1.5 211.5,1.5 217.5,1.5C 202.534,14.4641 187.867,27.7974 173.5,41.5C 157.663,51.5886 141.33,60.922 124.5,69.5C 149.5,46.8333 174.5,24.1667 199.5,1.5 Z"/></g>
<g><path style="opacity:0.971" fill="#419fff" d="M 217.5,1.5 C 227.675,2.19719 237.341,4.53052 246.5,8.5C 236.211,16.4543 226.545,25.1209 217.5,34.5C 202.158,32.5489 187.492,34.8823 173.5,41.5C 187.867,27.7974 202.534,14.4641 217.5,1.5 Z"/></g>
<g><path style="opacity:0.979" fill="#35a5ff" d="M 171.5,7.5 C 135.201,39.7972 99.2009,72.4639 63.5,105.5C 63.5,106.167 63.1667,106.5 62.5,106.5C 60.9731,106.427 59.9731,107.094 59.5,108.5C 57.8333,110.833 55.8333,112.833 53.5,114.5C 36.1863,129.477 18.8529,144.477 1.5,159.5C 2.51816,139.779 8.51816,121.779 19.5,105.5C 33.4313,94.5721 46.7647,82.9054 59.5,70.5C 91.9392,51.1076 124.606,31.9409 157.5,13C 162.076,10.8765 166.743,9.04314 171.5,7.5 Z"/></g>
<g><path style="opacity:0.973" fill="#459dff" d="M 246.5,8.5 C 249.157,8.93482 251.491,9.93482 253.5,11.5C 244.833,19.8333 236.167,28.1667 227.5,36.5C 224.272,35.4544 220.939,34.7878 217.5,34.5C 226.545,25.1209 236.211,16.4543 246.5,8.5 Z"/></g>
<g><path style="opacity:0.968" fill="#489bff" d="M 253.5,11.5 C 259.4,14.0685 265.067,17.0685 270.5,20.5C 262.493,28.5066 254.159,36.1733 245.5,43.5C 239.723,40.612 233.723,38.2787 227.5,36.5C 236.167,28.1667 244.833,19.8333 253.5,11.5 Z"/></g>
<g><path style="opacity:0.968" fill="#4e98ff" d="M 270.5,20.5 C 279.035,25.263 287.368,30.263 295.5,35.5C 287.5,43.1667 279.5,50.8333 271.5,58.5C 262.499,54.0019 253.832,49.0019 245.5,43.5C 254.159,36.1733 262.493,28.5066 270.5,20.5 Z"/></g>
<g><path style="opacity:0.969" fill="#5296ff" d="M 295.5,35.5 C 297.784,35.9752 299.784,36.9752 301.5,38.5C 293.467,46.5349 285.133,54.2015 276.5,61.5C 274.566,60.8897 272.899,59.8897 271.5,58.5C 279.5,50.8333 287.5,43.1667 295.5,35.5 Z"/></g>
<g><path style="opacity:0.969" fill="#5594ff" d="M 301.5,38.5 C 307.87,41.679 313.87,45.3457 319.5,49.5C 310.867,56.7985 302.533,64.4651 294.5,72.5C 288.464,68.819 282.464,65.1523 276.5,61.5C 285.133,54.2015 293.467,46.5349 301.5,38.5 Z"/></g>
<g><path style="opacity:0.969" fill="#5a91ff" d="M 319.5,49.5 C 327.126,52.9795 334.46,56.9795 341.5,61.5C 333.467,69.5349 325.133,77.2015 316.5,84.5C 309.194,80.5123 301.86,76.5123 294.5,72.5C 302.533,64.4651 310.867,56.7985 319.5,49.5 Z"/></g>
<g><path style="opacity:0.969" fill="#608dff" d="M 341.5,61.5 C 348.869,65.8481 356.202,70.1815 363.5,74.5C 354.841,81.8267 346.507,89.4934 338.5,97.5C 330.801,93.6558 323.468,89.3225 316.5,84.5C 325.133,77.2015 333.467,69.5349 341.5,61.5 Z"/></g>
<g><path style="opacity:0.915" fill="#31a8ff" d="M 59.5,70.5 C 46.7647,82.9054 33.4313,94.5721 19.5,105.5C 20.9213,102.991 22.5879,100.657 24.5,98.5C 33.4322,91.9045 41.7656,84.5712 49.5,76.5C 52.1612,73.4977 55.4945,71.4977 59.5,70.5 Z"/></g>
<g><path style="opacity:0.968" fill="#658aff" d="M 363.5,74.5 C 369.23,78.025 374.563,82.025 379.5,86.5C 371.8,94.2019 363.8,101.535 355.5,108.5C 349.967,104.571 344.3,100.904 338.5,97.5C 346.507,89.4934 354.841,81.8267 363.5,74.5 Z"/></g>
<g><path style="opacity:0.73" fill="#31a9ff" d="M 49.5,76.5 C 41.7656,84.5712 33.4322,91.9045 24.5,98.5C 31.6416,89.6842 39.9749,82.3509 49.5,76.5 Z"/></g>
<g><path style="opacity:0.982" fill="#4e98ff" d="M 233.5,91.5 C 222.833,101.167 212.167,110.833 201.5,120.5C 182.387,123.726 170.387,134.726 165.5,153.5C 153.853,163.477 142.186,173.477 130.5,183.5C 130.691,178.628 130.358,173.795 129.5,169C 130.213,163.524 130.713,158.024 131,152.5C 131.406,149.258 132.239,146.258 133.5,143.5C 154.491,125.175 175.158,106.508 195.5,87.5C 208.564,86.0724 221.23,87.4058 233.5,91.5 Z"/></g>
<g><path style="opacity:0.959" fill="#6988ff" d="M 379.5,86.5 C 382.573,88.5691 384.906,91.2358 386.5,94.5C 378.5,101.5 370.5,108.5 362.5,115.5C 359.833,113.5 357.5,111.167 355.5,108.5C 363.8,101.535 371.8,94.2019 379.5,86.5 Z"/></g>
<g><path style="opacity:0.942" fill="#499aff" d="M 195.5,87.5 C 175.158,106.508 154.491,125.175 133.5,143.5C 142.489,111.991 163.156,93.3242 195.5,87.5 Z"/></g>
<g><path style="opacity:0.981" fill="#5296ff" d="M 233.5,91.5 C 235.579,91.9707 237.579,92.6373 239.5,93.5C 230.167,102.5 220.833,111.5 211.5,120.5C 208.167,120.5 204.833,120.5 201.5,120.5C 212.167,110.833 222.833,101.167 233.5,91.5 Z"/></g>
<g><path style="opacity:0.971" fill="#5594ff" d="M 239.5,93.5 C 246.204,96.1773 252.204,99.8439 257.5,104.5C 249.5,112.167 241.5,119.833 233.5,127.5C 226.694,123.565 219.361,121.232 211.5,120.5C 220.833,111.5 230.167,102.5 239.5,93.5 Z"/></g>
<g><path style="opacity:0.967" fill="#6d86ff" d="M 386.5,94.5 C 392.375,99.9056 397.042,106.239 400.5,113.5C 392.192,120.804 383.859,128.138 375.5,135.5C 371.678,128.529 367.345,121.862 362.5,115.5C 370.5,108.5 378.5,101.5 386.5,94.5 Z"/></g>
<g><path style="opacity:0.971" fill="#5a91ff" d="M 257.5,104.5 C 264.331,109.656 269.664,115.99 273.5,123.5C 264.833,130.833 256.167,138.167 247.5,145.5C 244.26,138.336 239.594,132.336 233.5,127.5C 241.5,119.833 249.5,112.167 257.5,104.5 Z"/></g>
<g><path style="opacity:0.484" fill="#39a4ff" d="M 62.5,106.5 C 62.0269,107.906 61.0269,108.573 59.5,108.5C 59.9731,107.094 60.9731,106.427 62.5,106.5 Z"/></g>
<g><path style="opacity:0.962" fill="#7184ff" d="M 400.5,113.5 C 402.677,116.52 404.343,119.853 405.5,123.5C 396.234,130.43 387.567,138.096 379.5,146.5C 377.796,143.061 376.462,139.395 375.5,135.5C 383.859,128.138 392.192,120.804 400.5,113.5 Z"/></g>
<g><path style="opacity:0.975" fill="#3aa3ff" d="M 53.5,114.5 C 44.6182,124.595 38.6182,136.262 35.5,149.5C 24.1861,159.144 12.8528,168.811 1.5,178.5C 1.5,172.167 1.5,165.833 1.5,159.5C 18.8529,144.477 36.1863,129.477 53.5,114.5 Z"/></g>
<g><path style="opacity:0.968" fill="#608dff" d="M 273.5,123.5 C 278.363,130.394 281.696,138.061 283.5,146.5C 272.814,155.523 262.147,164.523 251.5,173.5C 252.115,163.86 250.782,154.527 247.5,145.5C 256.167,138.167 264.833,130.833 273.5,123.5 Z"/></g>
<g><path style="opacity:0.972" fill="#7482ff" d="M 405.5,123.5 C 407.967,128.57 409.634,133.903 410.5,139.5C 401.109,148.23 391.442,156.563 381.5,164.5C 381.269,158.448 380.602,152.448 379.5,146.5C 387.567,138.096 396.234,130.43 405.5,123.5 Z"/></g>
<g><path style="opacity:0.969" fill="#797fff" d="M 410.5,139.5 C 413.135,148.849 414.468,158.516 414.5,168.5C 403.481,177.856 392.481,187.19 381.5,196.5C 381.5,185.833 381.5,175.167 381.5,164.5C 391.442,156.563 401.109,148.23 410.5,139.5 Z"/></g>
<g><path style="opacity:0.973" fill="#8579ff" d="M 565.5,149.5 C 561.647,172.803 557.981,196.136 554.5,219.5C 551.598,211.97 548.764,204.304 546,196.5C 545.5,228.832 545.333,261.165 545.5,293.5C 544.143,299.31 543.143,305.31 542.5,311.5C 531.5,311.5 520.5,311.5 509.5,311.5C 509.5,255.167 509.5,198.833 509.5,142.5C 527.5,142.5 545.5,142.5 563.5,142.5C 563.767,144.965 564.434,147.299 565.5,149.5 Z"/></g>
<g><path style="opacity:0.984" fill="#7e7dff" d="M 677.5,142.5 C 670.733,191.655 663.733,240.655 656.5,289.5C 656.667,257.832 656.5,226.165 656,194.5C 642.469,232.758 629.136,271.092 616,309.5C 614.246,311.25 612.079,311.917 609.5,311.5C 615.313,267.14 621.313,222.807 627.5,178.5C 630.96,166.785 634.627,155.119 638.5,143.5C 651.483,142.501 664.483,142.168 677.5,142.5 Z"/></g>
<g><path style="opacity:0.984" fill="#7b7eff" d="M 677.5,142.5 C 682.167,142.5 686.833,142.5 691.5,142.5C 691.5,198.833 691.5,255.167 691.5,311.5C 679.833,311.5 668.167,311.5 656.5,311.5C 656.5,304.167 656.5,296.833 656.5,289.5C 663.733,240.655 670.733,191.655 677.5,142.5 Z"/></g>
<g><path style="opacity:0.972" fill="#5f8eff" d="M 1153.5,142.5 C 1152.02,153.22 1150.35,163.887 1148.5,174.5C 1134.5,174.5 1120.5,174.5 1106.5,174.5C 1106.5,163.833 1106.5,153.167 1106.5,142.5C 1122.17,142.5 1137.83,142.5 1153.5,142.5 Z"/></g>
<g><path style="opacity:0.979" fill="#5a90ff" d="M 1153.5,142.5 C 1183.17,142.5 1212.83,142.5 1242.5,142.5C 1241.26,153.179 1239.93,163.845 1238.5,174.5C 1223.83,174.5 1209.17,174.5 1194.5,174.5C 1194.5,220.167 1194.5,265.833 1194.5,311.5C 1181.83,311.5 1169.17,311.5 1156.5,311.5C 1156.5,265.833 1156.5,220.167 1156.5,174.5C 1153.83,174.5 1151.17,174.5 1148.5,174.5C 1150.35,163.887 1152.02,153.22 1153.5,142.5 Z"/></g>
<g><path style="opacity:0.965" fill="#5793ff" d="M 1242.5,142.5 C 1244.48,152.781 1245.14,163.448 1244.5,174.5C 1242.5,174.5 1240.5,174.5 1238.5,174.5C 1239.93,163.845 1241.26,153.179 1242.5,142.5 Z"/></g>
<g><path style="opacity:0.989" fill="#4b99ff" d="M 1429.5,248.5 C 1426.24,269.328 1423.24,290.328 1420.5,311.5C 1412.17,311.5 1403.83,311.5 1395.5,311.5C 1395.5,255.167 1395.5,198.833 1395.5,142.5C 1406.83,142.5 1418.17,142.5 1429.5,142.5C 1429.5,177.833 1429.5,213.167 1429.5,248.5 Z"/></g>
<g><path style="opacity:0.984" fill="#489bff" d="M 1498.5,225.5 C 1497.02,239.521 1495.35,253.521 1493.5,267.5C 1492.58,271.064 1492.24,274.731 1492.5,278.5C 1490.2,289.272 1488.53,300.272 1487.5,311.5C 1477.83,311.5 1468.17,311.5 1458.5,311.5C 1458.5,255.167 1458.5,198.833 1458.5,142.5C 1469.83,142.5 1481.17,142.5 1492.5,142.5C 1492.33,171.835 1492.5,201.169 1493,230.5C 1494.7,228.627 1496.54,226.96 1498.5,225.5 Z"/></g>
<g><path style="opacity:0.964" fill="#658aff" d="M 283.5,146.5 C 284.971,154.757 285.637,163.09 285.5,171.5C 274.203,180.794 263.203,190.461 252.5,200.5C 251.507,191.682 251.173,182.682 251.5,173.5C 262.147,164.523 272.814,155.523 283.5,146.5 Z"/></g>
<g><path style="opacity:0.989" fill="#3ca1ff" d="M 35.5,149.5 C 34.274,155.085 33.6073,160.752 33.5,166.5C 23.1295,176.206 12.4628,185.539 1.5,194.5C 1.5,189.167 1.5,183.833 1.5,178.5C 12.8528,168.811 24.1861,159.144 35.5,149.5 Z"/></g>
<g><path style="opacity:0.97" fill="#817bff" d="M 565.5,149.5 C 577.363,185.255 589.53,220.922 602,256.5C 610.438,230.355 618.938,204.355 627.5,178.5C 621.313,222.807 615.313,267.14 609.5,311.5C 601.58,311.815 593.747,311.482 586,310.5C 575.39,280.169 564.89,249.836 554.5,219.5C 557.981,196.136 561.647,172.803 565.5,149.5 Z"/></g>
<g><path style="opacity:0.979" fill="#5296ff" d="M 165.5,153.5 C 165.01,156.655 164.344,159.655 163.5,162.5C 152.797,172.539 141.797,182.206 130.5,191.5C 130.5,188.833 130.5,186.167 130.5,183.5C 142.186,173.477 153.853,163.477 165.5,153.5 Z"/></g>
<g><path style="opacity:0.978" fill="#5593ff" d="M 163.5,162.5 C 163.5,171.5 163.5,180.5 163.5,189.5C 138.498,210.84 114.164,232.84 90.5,255.5C 86.9548,254.954 83.4548,254.287 80,253.5C 79.5006,248.177 79.334,242.844 79.5,237.5C 84.5261,232.805 89.5261,228.139 94.5,223.5C 104.228,224.84 113.228,223.007 121.5,218C 127.485,210.247 130.485,201.414 130.5,191.5C 141.797,182.206 152.797,172.539 163.5,162.5 Z"/></g>
<g><path style="opacity:0.992" fill="#419fff" d="M 33.5,166.5 C 33.5,177.167 33.5,187.833 33.5,198.5C 23.1295,208.206 12.4628,217.539 1.5,226.5C 1.5,215.833 1.5,205.167 1.5,194.5C 12.4628,185.539 23.1295,176.206 33.5,166.5 Z"/></g>
<g><path style="opacity:0.962" fill="#7e7dff" d="M 414.5,168.5 C 414.5,173.833 414.5,179.167 414.5,184.5C 403.481,193.856 392.481,203.19 381.5,212.5C 381.5,207.167 381.5,201.833 381.5,196.5C 392.481,187.19 403.481,177.856 414.5,168.5 Z"/></g>
<g><path style="opacity:0.974" fill="#6988ff" d="M 285.5,171.5 C 285.5,176.167 285.5,180.833 285.5,185.5C 282.397,187.423 279.397,189.59 276.5,192C 268.97,198.7 261.636,205.533 254.5,212.5C 252.864,208.79 252.198,204.79 252.5,200.5C 263.203,190.461 274.203,180.794 285.5,171.5 Z"/></g>
<g><path style="opacity:0.962" fill="#817bff" d="M 414.5,184.5 C 414.5,192.5 414.5,200.5 414.5,208.5C 403.481,217.856 392.481,227.19 381.5,236.5C 381.5,228.5 381.5,220.5 381.5,212.5C 392.481,203.19 403.481,193.856 414.5,184.5 Z"/></g>
<g><path style="opacity:0.971" fill="#6d86ff" d="M 285.5,185.5 C 284.736,195.009 286.403,204.009 290.5,212.5C 282.141,219.862 273.808,227.196 265.5,234.5C 259.731,228.295 256.064,220.962 254.5,212.5C 261.636,205.533 268.97,198.7 276.5,192C 279.397,189.59 282.397,187.423 285.5,185.5 Z"/></g>
<g><path style="opacity:0.968" fill="#7482ff" d="M 818.5,195.5 C 813.445,234.219 808.112,272.885 802.5,311.5C 801.178,311.67 800.011,311.337 799,310.5C 797.851,307.607 797.351,304.607 797.5,301.5C 796.448,301.351 795.448,301.517 794.5,302C 783.413,310.64 770.746,314.807 756.5,314.5C 751.588,314.579 746.921,313.912 742.5,312.5C 744.686,300.863 746.686,289.196 748.5,277.5C 749.46,282.917 752.46,286.75 757.5,289C 786.505,294.333 799.005,282.167 795,252.5C 792.07,254.255 788.903,255.422 785.5,256C 775.117,256.839 765.117,259.173 755.5,263C 753.266,265.063 751.266,267.229 749.5,269.5C 750.279,259.717 751.612,250.05 753.5,240.5C 765.671,239.309 777.671,237.142 789.5,234C 797.551,226.233 797.217,218.566 788.5,211C 777.151,206.806 766.485,207.973 756.5,214.5C 757.925,205.192 759.258,195.859 760.5,186.5C 776.747,184.353 792.747,185.52 808.5,190C 812.211,191.227 815.545,193.06 818.5,195.5 Z"/></g>
<g><path style="opacity:0.97" fill="#6e86ff" d="M 946.5,188.5 C 942.91,213.633 939.243,238.633 935.5,263.5C 935.666,254.494 935.5,245.494 935,236.5C 933.879,216.71 923.712,209.21 904.5,214C 895.928,217.616 891.095,224.116 890,233.5C 888.622,259.477 888.122,285.477 888.5,311.5C 877.167,311.5 865.833,311.5 854.5,311.5C 854.5,274.833 854.5,238.167 854.5,201.5C 855.895,197.409 856.562,193.076 856.5,188.5C 866.833,188.5 877.167,188.5 887.5,188.5C 887.334,193.511 887.501,198.511 888,203.5C 900.549,188.201 916.716,182.368 936.5,186C 939.929,186.533 943.262,187.367 946.5,188.5 Z"/></g>
<g><path style="opacity:0.968" fill="#5494ff" d="M 1310.5,185.5 C 1309.83,193.167 1309.17,200.833 1308.5,208.5C 1299.11,210.226 1293.78,215.892 1292.5,225.5C 1281.19,226.499 1269.85,226.832 1258.5,226.5C 1260.27,205.886 1271.27,193.053 1291.5,188C 1297.75,186.513 1304.09,185.68 1310.5,185.5 Z"/></g>
<g><path style="opacity:0.977" fill="#5296ff" d="M 1310.5,185.5 C 1318.22,185.233 1325.89,185.566 1333.5,186.5C 1332.41,194.906 1331.08,203.24 1329.5,211.5C 1322.78,208.928 1315.78,207.928 1308.5,208.5C 1309.17,200.833 1309.83,193.167 1310.5,185.5 Z"/></g>
<g><path style="opacity:0.967" fill="#3da1ff" d="M 1667.5,189.5 C 1666.16,201.559 1664.49,213.559 1662.5,225.5C 1661.37,215.539 1655.7,210.039 1645.5,209C 1639,208.07 1632.66,208.736 1626.5,211C 1621.53,214.527 1620.36,219.027 1623,224.5C 1626.08,227.293 1629.58,229.46 1633.5,231C 1642.81,233.361 1652.14,235.528 1661.5,237.5C 1659.61,247.05 1658.28,256.717 1657.5,266.5C 1643.37,261.741 1629.03,257.741 1614.5,254.5C 1617.5,231.832 1620.5,209.166 1623.5,186.5C 1633.47,185.437 1643.47,185.271 1653.5,186C 1658.36,186.548 1663.02,187.714 1667.5,189.5 Z"/></g>
<g><path style="opacity:0.97" fill="#7780ff" d="M 760.5,186.5 C 759.258,195.859 757.925,205.192 756.5,214.5C 754.787,217.968 753.454,221.634 752.5,225.5C 741.186,226.499 729.853,226.832 718.5,226.5C 719.343,208.319 728.343,196.152 745.5,190C 750.345,188.131 755.345,186.965 760.5,186.5 Z"/></g>
<g><path style="opacity:0.972" fill="#4f97ff" d="M 1333.5,186.5 C 1345.41,187.54 1355.57,192.206 1364,200.5C 1365.33,203.167 1366.67,205.833 1368,208.5C 1369.3,236.452 1369.97,264.452 1370,292.5C 1370.59,298.959 1371.76,305.292 1373.5,311.5C 1362.16,311.667 1350.83,311.5 1339.5,311C 1337.92,308.049 1337.26,304.883 1337.5,301.5C 1336.45,301.351 1335.45,301.517 1334.5,302C 1329.49,307.005 1323.49,310.172 1316.5,311.5C 1317.05,304.564 1318.05,297.731 1319.5,291C 1318.94,290.617 1318.61,290.117 1318.5,289.5C 1328.76,286.342 1334.26,279.342 1335,268.5C 1335.67,263.167 1335.67,257.833 1335,252.5C 1331.41,254.523 1327.58,255.856 1323.5,256.5C 1324.77,249.579 1325.77,242.579 1326.5,235.5C 1337.37,229.066 1338.37,221.066 1329.5,211.5C 1331.08,203.24 1332.41,194.906 1333.5,186.5 Z"/></g>
<g><path style="opacity:0.973" fill="#3fa0ff" d="M 1623.5,186.5 C 1620.5,209.166 1617.5,231.832 1614.5,254.5C 1588.24,246.604 1580.74,229.937 1592,204.5C 1599.68,193.737 1610.18,187.737 1623.5,186.5 Z"/></g>
<g><path style="opacity:0.642" fill="#7185ff" d="M 856.5,188.5 C 856.562,193.076 855.895,197.409 854.5,201.5C 853.903,196.706 854.57,192.373 856.5,188.5 Z"/></g>
<g><path style="opacity:0.982" fill="#6988ff" d="M 946.5,188.5 C 958.651,193.839 965.818,203.172 968,216.5C 969.434,242.466 969.934,268.466 969.5,294.5C 967.939,299.94 966.939,305.606 966.5,311.5C 956.167,311.5 945.833,311.5 935.5,311.5C 935.5,295.5 935.5,279.5 935.5,263.5C 939.243,238.633 942.91,213.633 946.5,188.5 Z"/></g>
<g><path style="opacity:0.617" fill="#6889ff" d="M 983.5,188.5 C 982.781,190.764 982.448,193.097 982.5,195.5C 981.422,193.461 980.422,191.294 979.5,189C 980.793,188.51 982.127,188.343 983.5,188.5 Z"/></g>
<g><path style="opacity:0.971" fill="#658bff" d="M 983.5,188.5 C 994.748,188.179 1005.91,188.513 1017,189.5C 1025.6,216.637 1034.6,243.637 1044,270.5C 1045.1,267.02 1046.27,263.687 1047.5,260.5C 1043.91,290.234 1039.91,319.901 1035.5,349.5C 1032.16,351.335 1028.49,352.502 1024.5,353C 1013.47,353.765 1002.47,353.599 991.5,352.5C 991.5,343.167 991.5,333.833 991.5,324.5C 996.675,324.649 1001.84,324.982 1007,325.5C 1017.53,325.986 1023.36,320.986 1024.5,310.5C 1010.78,272.061 996.78,233.728 982.5,195.5C 982.448,193.097 982.781,190.764 983.5,188.5 Z"/></g>
<g><path style="opacity:0.967" fill="#628cff" d="M 1035.5,349.5 C 1039.91,319.901 1043.91,290.234 1047.5,260.5C 1055.04,236.56 1062.37,212.56 1069.5,188.5C 1081.5,188.5 1093.5,188.5 1105.5,188.5C 1088.31,236.247 1070.81,283.913 1053,331.5C 1049.62,339.981 1043.78,345.981 1035.5,349.5 Z"/></g>
<g><path style="opacity:0.952" fill="#439eff" d="M 1520.5,282.5 C 1525.47,251.723 1529.8,220.723 1533.5,189.5C 1546.99,188.339 1560.66,188.173 1574.5,189C 1559.47,204.362 1544.14,219.362 1528.5,234C 1545.87,259.242 1562.87,284.742 1579.5,310.5C 1565.5,311.833 1551.5,311.833 1537.5,310.5C 1531.82,301.139 1526.16,291.806 1520.5,282.5 Z"/></g>
<g><path style="opacity:0.979" fill="#5a91ff" d="M 163.5,189.5 C 164.303,203.318 161.47,216.318 155,228.5C 153.951,230.618 152.451,232.284 150.5,233.5C 144.845,237.823 139.512,242.49 134.5,247.5C 128.131,251.459 121.131,253.959 113.5,255C 105.841,255.5 98.1739,255.666 90.5,255.5C 114.164,232.84 138.498,210.84 163.5,189.5 Z"/></g>
<g><path style="opacity:0.972" fill="#459dff" d="M 1533.5,189.5 C 1529.8,220.723 1525.47,251.723 1520.5,282.5C 1515.34,274.195 1510.18,265.861 1505,257.5C 1501.59,261.416 1497.76,264.749 1493.5,267.5C 1495.35,253.521 1497.02,239.521 1498.5,225.5C 1509.47,212.865 1521.13,200.865 1533.5,189.5 Z"/></g>
<g><path style="opacity:0.943" fill="#3aa3ff" d="M 1667.5,189.5 C 1684.73,195.28 1693.73,207.28 1694.5,225.5C 1683.83,225.5 1673.17,225.5 1662.5,225.5C 1664.49,213.559 1666.16,201.559 1667.5,189.5 Z"/></g>
<g><path style="opacity:0.971" fill="#7184ff" d="M 818.5,195.5 C 824.009,199.837 827.509,205.504 829,212.5C 829.333,239.167 829.667,265.833 830,292.5C 830.375,298.997 831.542,305.331 833.5,311.5C 823.167,311.5 812.833,311.5 802.5,311.5C 808.112,272.885 813.445,234.219 818.5,195.5 Z"/></g>
<g><path style="opacity:0.992" fill="#459dff" d="M 33.5,198.5 C 33.5,202.167 33.5,205.833 33.5,209.5C 22.5372,218.461 11.8705,227.794 1.5,237.5C 1.5,233.833 1.5,230.167 1.5,226.5C 12.4628,217.539 23.1295,208.206 33.5,198.5 Z"/></g>
<g><path style="opacity:0.918" fill="#628cff" d="M 218.5,203.5 C 207.551,213.968 196.218,223.968 184.5,233.5C 188.099,223.771 190.766,213.771 192.5,203.5C 201.167,203.5 209.833,203.5 218.5,203.5 Z"/></g>
<g><path style="opacity:0.977" fill="#658aff" d="M 218.5,203.5 C 220.144,203.286 221.644,203.62 223,204.5C 224.037,210.979 225.537,217.312 227.5,223.5C 192.212,253.787 157.545,284.787 123.5,316.5C 113.053,318.233 102.386,318.899 91.5,318.5C 104.833,306.167 118.167,293.833 131.5,281.5C 156.732,273.938 174.399,257.938 184.5,233.5C 196.218,223.968 207.551,213.968 218.5,203.5 Z"/></g>
<g><path style="opacity:0.962" fill="#8678ff" d="M 414.5,208.5 C 414.5,219.167 414.5,229.833 414.5,240.5C 403.312,249.931 392.312,259.598 381.5,269.5C 381.5,258.5 381.5,247.5 381.5,236.5C 392.481,227.19 403.481,217.856 414.5,208.5 Z"/></g>
<g><path style="opacity:0.992" fill="#489bff" d="M 33.5,209.5 C 33.5,217.5 33.5,225.5 33.5,233.5C 22.8333,242.833 12.1667,252.167 1.5,261.5C 1.5,253.5 1.5,245.5 1.5,237.5C 11.8705,227.794 22.5372,218.461 33.5,209.5 Z"/></g>
<g><path style="opacity:0.967" fill="#7184ff" d="M 290.5,212.5 C 292.5,214.833 294.5,217.167 296.5,219.5C 288.826,227.174 280.826,234.507 272.5,241.5C 269.833,239.5 267.5,237.167 265.5,234.5C 273.808,227.196 282.141,219.862 290.5,212.5 Z"/></g>
<g><path style="opacity:0.968" fill="#7482ff" d="M 296.5,219.5 C 302.516,222.253 308.85,223.587 315.5,223.5C 306.134,232.867 296.468,241.867 286.5,250.5C 281.145,248.494 276.479,245.494 272.5,241.5C 280.826,234.507 288.826,227.174 296.5,219.5 Z"/></g>
<g><path style="opacity:0.966" fill="#797fff" d="M 336.5,238.5 C 329.509,244.158 322.843,250.158 316.5,256.5C 305.842,257.168 295.842,255.168 286.5,250.5C 296.468,241.867 306.134,232.867 315.5,223.5C 322.582,223.042 329.582,222.042 336.5,220.5C 336.5,226.5 336.5,232.5 336.5,238.5 Z"/></g>
<g><path style="opacity:0.968" fill="#5296ff" d="M 94.5,223.5 C 89.5261,228.139 84.5261,232.805 79.5,237.5C 79.5,232.167 79.5,226.833 79.5,221.5C 84.5157,222.058 89.5157,222.725 94.5,223.5 Z"/></g>
<g><path style="opacity:0.99" fill="#6988ff" d="M 227.5,223.5 C 228.5,226.833 229.5,230.167 230.5,233.5C 201.103,259.571 172.103,285.905 143.5,312.5C 137.022,314.729 130.355,316.062 123.5,316.5C 157.545,284.787 192.212,253.787 227.5,223.5 Z"/></g>
<g><path style="opacity:0.988" fill="#4e98ff" d="M 33.5,233.5 C 33.5,246.167 33.5,258.833 33.5,271.5C 23.186,280.144 12.8527,288.81 2.5,297.5C 1.56179,285.538 1.22846,273.538 1.5,261.5C 12.1667,252.167 22.8333,242.833 33.5,233.5 Z"/></g>
<g><path style="opacity:0.665" fill="#5e8fff" d="M 150.5,233.5 C 146.724,239.943 141.39,244.61 134.5,247.5C 139.512,242.49 144.845,237.823 150.5,233.5 Z"/></g>
<g><path style="opacity:0.959" fill="#6c87ff" d="M 230.5,233.5 C 234.218,240.595 238.218,247.595 242.5,254.5C 234.8,262.202 226.8,269.535 218.5,276.5C 214.782,272.759 211.282,268.759 208,264.5C 196.708,279.461 183.208,291.961 167.5,302C 159.83,306.337 151.83,309.837 143.5,312.5C 172.103,285.905 201.103,259.571 230.5,233.5 Z"/></g>
<g><path style="opacity:0.956" fill="#5296ff" d="M 1326.5,235.5 C 1325.77,242.579 1324.77,249.579 1323.5,256.5C 1316.02,257.191 1308.68,258.525 1301.5,260.5C 1301.79,253.462 1302.46,246.462 1303.5,239.5C 1311.04,238.181 1318.71,236.848 1326.5,235.5 Z"/></g>
<g><path style="opacity:0.969" fill="#3aa3ff" d="M 1661.5,237.5 C 1695.34,243.851 1705.51,262.851 1692,294.5C 1681.2,307.147 1667.37,313.814 1650.5,314.5C 1651.78,306.206 1652.78,297.872 1653.5,289.5C 1664.9,283.407 1666.24,275.741 1657.5,266.5C 1658.28,256.717 1659.61,247.05 1661.5,237.5 Z"/></g>
<g><path style="opacity:0.882" fill="#7d7dff" d="M 336.5,238.5 C 336.5,243.167 336.5,247.833 336.5,252.5C 330.018,254.692 323.352,256.025 316.5,256.5C 322.843,250.158 329.509,244.158 336.5,238.5 Z"/></g>
<g><path style="opacity:0.968" fill="#5494ff" d="M 1303.5,239.5 C 1302.46,246.462 1301.79,253.462 1301.5,260.5C 1289.05,265.324 1285.88,273.657 1292,285.5C 1293.81,286.977 1295.65,288.31 1297.5,289.5C 1295.62,297.616 1294.29,305.949 1293.5,314.5C 1265.51,313.017 1252.68,298.35 1255,270.5C 1257.91,256.251 1266.41,247.084 1280.5,243C 1288.04,240.965 1295.71,239.798 1303.5,239.5 Z"/></g>
<g><path style="opacity:0.964" fill="#8a77ff" d="M 414.5,240.5 C 414.5,241.5 414.5,242.5 414.5,243.5C 403.481,252.856 392.481,262.19 381.5,271.5C 381.5,270.833 381.5,270.167 381.5,269.5C 392.312,259.598 403.312,249.931 414.5,240.5 Z"/></g>
<g><path style="opacity:0.973" fill="#7780ff" d="M 753.5,240.5 C 751.612,250.05 750.279,259.717 749.5,269.5C 749.167,272.167 748.833,274.833 748.5,277.5C 746.686,289.196 744.686,300.863 742.5,312.5C 726.799,309.632 717.633,300.299 715,284.5C 711.928,263.467 720.428,249.633 740.5,243C 744.782,241.843 749.116,241.01 753.5,240.5 Z"/></g>
<g><path style="opacity:0.963" fill="#8c74ff" d="M 414.5,243.5 C 414.5,254.167 414.5,264.833 414.5,275.5C 401.833,286.5 389.167,297.5 376.5,308.5C 380.85,296.565 382.517,284.232 381.5,271.5C 392.481,262.19 403.481,252.856 414.5,243.5 Z"/></g>
<g><path style="opacity:0.978" fill="#4a9aff" d="M 1429.5,248.5 C 1429.5,269.5 1429.5,290.5 1429.5,311.5C 1426.5,311.5 1423.5,311.5 1420.5,311.5C 1423.24,290.328 1426.24,269.328 1429.5,248.5 Z"/></g>
<g><path style="opacity:0.968" fill="#7184ff" d="M 242.5,254.5 C 245.55,256.549 247.883,259.216 249.5,262.5C 241.44,269.899 233.107,276.899 224.5,283.5C 222.273,281.393 220.273,279.06 218.5,276.5C 226.8,269.535 234.8,262.202 242.5,254.5 Z"/></g>
<g><path style="opacity:0.967" fill="#7482ff" d="M 249.5,262.5 C 253.63,265.737 257.963,268.737 262.5,271.5C 253.977,278.934 245.644,286.6 237.5,294.5C 232.848,291.179 228.515,287.513 224.5,283.5C 233.107,276.899 241.44,269.899 249.5,262.5 Z"/></g>
<g><path style="opacity:0.948" fill="#3fa0ff" d="M 1612.5,270.5 C 1610.58,282.609 1608.58,294.609 1606.5,306.5C 1591.56,299.318 1584.23,287.318 1584.5,270.5C 1593.83,270.5 1603.17,270.5 1612.5,270.5 Z"/></g>
<g><path style="opacity:0.96" fill="#3da1ff" d="M 1612.5,270.5 C 1614.17,270.5 1615.83,270.5 1617.5,270.5C 1617.79,280.972 1623.12,287.472 1633.5,290C 1640.16,291.516 1646.83,291.349 1653.5,289.5C 1652.78,297.872 1651.78,306.206 1650.5,314.5C 1641.79,314.752 1633.12,314.252 1624.5,313C 1618.01,311.894 1612.01,309.728 1606.5,306.5C 1608.58,294.609 1610.58,282.609 1612.5,270.5 Z"/></g>
<g><path style="opacity:0.975" fill="#5296ff" d="M 33.5,271.5 C 33.5,274.167 33.5,276.833 33.5,279.5C 23.2314,287.432 13.5647,296.099 4.5,305.5C 3.46899,303.039 2.80233,300.373 2.5,297.5C 12.8527,288.81 23.186,280.144 33.5,271.5 Z"/></g>
<g><path style="opacity:0.97" fill="#797fff" d="M 262.5,271.5 C 269.905,276.192 277.905,279.526 286.5,281.5C 277.5,290.167 268.5,298.833 259.5,307.5C 251.499,304.171 244.166,299.838 237.5,294.5C 245.644,286.6 253.977,278.934 262.5,271.5 Z"/></g>
<g><path style="opacity:0.977" fill="#9271fe" d="M 414.5,275.5 C 414.48,286.68 413.147,297.68 410.5,308.5C 372.51,341.825 334.843,375.491 297.5,409.5C 283.06,418.226 268.393,426.726 253.5,435C 244.833,438.916 235.833,441.75 226.5,443.5C 257.167,415.833 287.833,388.167 318.5,360.5C 330.604,353.275 342.604,345.775 354.5,338C 364.008,329.677 371.341,319.843 376.5,308.5C 389.167,297.5 401.833,286.5 414.5,275.5 Z"/></g>
<g><path style="opacity:0.88" fill="#469dff" d="M 1492.5,278.5 C 1492.5,289.5 1492.5,300.5 1492.5,311.5C 1490.83,311.5 1489.17,311.5 1487.5,311.5C 1488.53,300.272 1490.2,289.272 1492.5,278.5 Z"/></g>
<g><path style="opacity:0.976" fill="#5594ff" d="M 33.5,279.5 C 33.8468,287.26 34.8468,294.927 36.5,302.5C 27.8665,309.798 19.5332,317.465 11.5,325.5C 7.99797,319.331 5.66464,312.665 4.5,305.5C 13.5647,296.099 23.2314,287.432 33.5,279.5 Z"/></g>
<g><path style="opacity:0.966" fill="#618dff" d="M 131.5,281.5 C 118.167,293.833 104.833,306.167 91.5,318.5C 87.5483,317.728 83.5483,317.395 79.5,317.5C 79.5,310.167 79.5,302.833 79.5,295.5C 83.7706,292.899 87.4372,289.566 90.5,285.5C 104.335,285.777 118.002,284.444 131.5,281.5 Z"/></g>
<g><path style="opacity:0.972" fill="#7e7dff" d="M 286.5,281.5 C 291.445,282.778 296.445,283.778 301.5,284.5C 291.5,293.833 281.5,303.167 271.5,312.5C 267.266,311.205 263.266,309.539 259.5,307.5C 268.5,298.833 277.5,290.167 286.5,281.5 Z"/></g>
<g><path style="opacity:0.981" fill="#817bff" d="M 301.5,284.5 C 310.229,285.566 318.896,285.566 327.5,284.5C 327.141,286.371 326.141,287.871 324.5,289C 313.598,298.076 303.265,307.576 293.5,317.5C 286.049,316.343 278.716,314.677 271.5,312.5C 281.5,303.167 291.5,293.833 301.5,284.5 Z"/></g>
<g><path style="opacity:0.967" fill="#8578ff" d="M 327.5,284.5 C 330.167,284.5 332.833,284.5 335.5,284.5C 335.5,293.5 335.5,302.5 335.5,311.5C 332.568,312.8 330.234,314.8 328.5,317.5C 316.843,318.751 305.176,318.751 293.5,317.5C 303.265,307.576 313.598,298.076 324.5,289C 326.141,287.871 327.141,286.371 327.5,284.5 Z"/></g>
<g><path style="opacity:0.896" fill="#5c90ff" d="M 90.5,285.5 C 87.4372,289.566 83.7706,292.899 79.5,295.5C 79.5,292.167 79.5,288.833 79.5,285.5C 83.1667,285.5 86.8333,285.5 90.5,285.5 Z"/></g>
<g><path style="opacity:0.958" fill="#5296ff" d="M 1297.5,289.5 C 1301.2,289.981 1304.87,290.648 1308.5,291.5C 1311.86,290.832 1315.2,290.165 1318.5,289.5C 1318.61,290.117 1318.94,290.617 1319.5,291C 1318.05,297.731 1317.05,304.564 1316.5,311.5C 1309.03,313.709 1301.37,314.709 1293.5,314.5C 1294.29,305.949 1295.62,297.616 1297.5,289.5 Z"/></g>
<g><path style="opacity:0.801" fill="#837aff" d="M 545.5,293.5 C 545.5,299.5 545.5,305.5 545.5,311.5C 544.5,311.5 543.5,311.5 542.5,311.5C 543.143,305.31 544.143,299.31 545.5,293.5 Z"/></g>
<g><path style="opacity:0.808" fill="#688aff" d="M 969.5,294.5 C 969.5,300.167 969.5,305.833 969.5,311.5C 968.5,311.5 967.5,311.5 966.5,311.5C 966.939,305.606 967.939,299.94 969.5,294.5 Z"/></g>
<g><path style="opacity:0.972" fill="#5a91ff" d="M 36.5,302.5 C 39.62,310.073 43.2867,317.407 47.5,324.5C 40.098,332.239 32.098,339.239 23.5,345.5C 18.3149,339.625 14.3149,332.958 11.5,325.5C 19.5332,317.465 27.8665,309.798 36.5,302.5 Z"/></g>
<g><path style="opacity:0.975" fill="#9570ff" d="M 410.5,308.5 C 410.167,309.833 409.833,311.167 409.5,312.5C 374.899,342.098 340.899,372.431 307.5,403.5C 304.506,406 301.173,408 297.5,409.5C 334.843,375.491 372.51,341.825 410.5,308.5 Z"/></g>
<g><path style="opacity:0.887" fill="#8a76ff" d="M 335.5,311.5 C 336.265,316.906 333.931,318.906 328.5,317.5C 330.234,314.8 332.568,312.8 335.5,311.5 Z"/></g>
<g><path style="opacity:0.945" fill="#976fff" d="M 409.5,312.5 C 401.011,337.656 385.677,357.489 363.5,372C 344.941,382.777 326.274,393.277 307.5,403.5C 340.899,372.431 374.899,342.098 409.5,312.5 Z"/></g>
<g><path style="opacity:0.972" fill="#608dff" d="M 47.5,324.5 C 52.8333,330.5 58.5,336.167 64.5,341.5C 56.7999,349.202 48.7999,356.535 40.5,363.5C 34.1295,358.131 28.4629,352.131 23.5,345.5C 32.098,339.239 40.098,332.239 47.5,324.5 Z"/></g>
<g><path style="opacity:0.968" fill="#658aff" d="M 64.5,341.5 C 71.0049,344.917 77.3382,348.584 83.5,352.5C 74.5594,359.435 65.8927,366.768 57.5,374.5C 51.3143,371.578 45.6476,367.911 40.5,363.5C 48.7999,356.535 56.7999,349.202 64.5,341.5 Z"/></g>
<g><path style="opacity:0.97" fill="#6988ff" d="M 83.5,352.5 C 86.5396,353.68 89.2063,355.347 91.5,357.5C 83.3565,365.4 75.0232,373.066 66.5,380.5C 63.2911,378.735 60.2911,376.735 57.5,374.5C 65.8927,366.768 74.5594,359.435 83.5,352.5 Z"/></g>
<g><path style="opacity:0.97" fill="#6d86ff" d="M 91.5,357.5 C 99.0694,361.07 106.403,365.07 113.5,369.5C 105.493,377.507 97.1594,385.173 88.5,392.5C 81.1937,388.512 73.8604,384.512 66.5,380.5C 75.0232,373.066 83.3565,365.4 91.5,357.5 Z"/></g>
<g><path style="opacity:0.969" fill="#8d74ff" d="M 318.5,360.5 C 287.833,388.167 257.167,415.833 226.5,443.5C 214.493,444.811 202.493,444.811 190.5,443.5C 202.5,432.5 214.5,421.5 226.5,410.5C 234.315,407.597 241.981,404.097 249.5,400C 272.229,386.304 295.229,373.137 318.5,360.5 Z"/></g>
<g><path style="opacity:0.965" fill="#7184ff" d="M 113.5,369.5 C 116.869,371.515 120.202,373.515 123.5,375.5C 114.54,382.458 105.873,389.791 97.5,397.5C 94.0078,396.59 91.0078,394.924 88.5,392.5C 97.1594,385.173 105.493,377.507 113.5,369.5 Z"/></g>
<g><path style="opacity:0.969" fill="#7482ff" d="M 123.5,375.5 C 128.167,378.167 132.833,380.833 137.5,383.5C 128.867,390.798 120.533,398.465 112.5,406.5C 107.233,403.89 102.233,400.89 97.5,397.5C 105.873,389.791 114.54,382.458 123.5,375.5 Z"/></g>
<g><path style="opacity:0.978" fill="#313231" d="M 1551.5,378.5 C 1556.17,378.5 1560.83,378.5 1565.5,378.5C 1565.33,384.842 1565.5,391.175 1566,397.5C 1572.46,392.334 1579.62,391.167 1587.5,394C 1591.82,396.315 1594.65,399.815 1596,404.5C 1596.5,415.828 1596.67,427.162 1596.5,438.5C 1591.83,438.5 1587.17,438.5 1582.5,438.5C 1582.67,429.161 1582.5,419.827 1582,410.5C 1579.27,404.878 1575.1,403.378 1569.5,406C 1567.51,407.319 1566.35,409.152 1566,411.5C 1565.5,420.494 1565.33,429.494 1565.5,438.5C 1560.83,438.5 1556.17,438.5 1551.5,438.5C 1551.5,418.5 1551.5,398.5 1551.5,378.5 Z"/></g>
<g><path style="opacity:0.917" fill="#313231" d="M 1508.5,380.5 C 1525.16,378.487 1536.5,385.154 1542.5,400.5C 1537.2,401.663 1531.86,401.829 1526.5,401C 1517.83,390.981 1509.66,391.481 1502,402.5C 1497.92,418.066 1503.76,425.566 1519.5,425C 1522.13,423.374 1524.46,421.374 1526.5,419C 1531.86,418.171 1537.2,418.337 1542.5,419.5C 1534.63,437.414 1521.29,443.247 1502.5,437C 1489.78,430.402 1484.28,419.902 1486,405.5C 1488.15,392.188 1495.65,383.854 1508.5,380.5 Z"/></g>
<g><path style="opacity:0.884" fill="#313231" d="M 1006.5,381.5 C 1009.57,381.183 1012.57,381.516 1015.5,382.5C 1022.77,400.974 1029.44,419.641 1035.5,438.5C 1032.81,438.664 1030.15,438.497 1027.5,438C 1025.47,434.411 1024.14,430.578 1023.5,426.5C 1015.14,426.169 1006.81,426.502 998.5,427.5C 997.26,431.056 995.927,434.556 994.5,438C 991.5,438.667 988.5,438.667 985.5,438C 992.798,419.271 999.798,400.437 1006.5,381.5 Z M 1010.5,393.5 C 1013.91,401.878 1017.24,410.378 1020.5,419C 1014.14,419.831 1007.81,419.664 1001.5,418.5C 1004.7,410.219 1007.7,401.886 1010.5,393.5 Z"/></g>
<g><path style="opacity:1" fill="#313231" d="M 1248.5,381.5 C 1253.17,381.5 1257.83,381.5 1262.5,381.5C 1262.5,400.5 1262.5,419.5 1262.5,438.5C 1257.83,438.5 1253.17,438.5 1248.5,438.5C 1248.5,419.5 1248.5,400.5 1248.5,381.5 Z"/></g>
<g><path style="opacity:0.926" fill="#313231" d="M 1666.5,381.5 C 1671.17,381.5 1675.83,381.5 1680.5,381.5C 1680.5,385.167 1680.5,388.833 1680.5,392.5C 1683.83,392.5 1687.17,392.5 1690.5,392.5C 1690.5,396.833 1690.5,401.167 1690.5,405.5C 1687.17,405.5 1683.83,405.5 1680.5,405.5C 1680.33,411.509 1680.5,417.509 1681,423.5C 1681.37,424.416 1681.87,425.25 1682.5,426C 1685.15,426.497 1687.81,426.664 1690.5,426.5C 1690.5,430.5 1690.5,434.5 1690.5,438.5C 1685.49,438.666 1680.49,438.499 1675.5,438C 1670.9,436.402 1668.07,433.235 1667,428.5C 1666.5,420.841 1666.33,413.174 1666.5,405.5C 1664.5,405.5 1662.5,405.5 1660.5,405.5C 1660.5,401.167 1660.5,396.833 1660.5,392.5C 1662.5,392.5 1664.5,392.5 1666.5,392.5C 1666.5,388.833 1666.5,385.167 1666.5,381.5 Z"/></g>
<g><path style="opacity:0.864" fill="#313231" d="M 1100.5,382.5 C 1103.5,382.5 1106.5,382.5 1109.5,382.5C 1109.5,386.167 1109.5,389.833 1109.5,393.5C 1113.17,393.5 1116.83,393.5 1120.5,393.5C 1120.5,395.833 1120.5,398.167 1120.5,400.5C 1116.83,400.5 1113.17,400.5 1109.5,400.5C 1109.33,410.172 1109.5,419.839 1110,429.5C 1110.5,430 1111,430.5 1111.5,431C 1114.48,431.498 1117.48,431.665 1120.5,431.5C 1120.5,433.833 1120.5,436.167 1120.5,438.5C 1116.15,438.666 1111.82,438.499 1107.5,438C 1102.89,435.61 1100.72,431.777 1101,426.5C 1100.5,417.84 1100.33,409.173 1100.5,400.5C 1098.83,400.5 1097.17,400.5 1095.5,400.5C 1095.5,398.167 1095.5,395.833 1095.5,393.5C 1097.17,393.5 1098.83,393.5 1100.5,393.5C 1100.5,389.833 1100.5,386.167 1100.5,382.5 Z"/></g>
<g><path style="opacity:0.97" fill="#797fff" d="M 137.5,383.5 C 144.869,387.848 152.202,392.181 159.5,396.5C 151.127,404.209 142.46,411.542 133.5,418.5C 126.329,414.749 119.329,410.749 112.5,406.5C 120.533,398.465 128.867,390.798 137.5,383.5 Z"/></g>
<g><path style="opacity:0.904" fill="#313231" d="M 1064.5,392.5 C 1072.9,391.619 1079.4,394.619 1084,401.5C 1085.44,413.758 1085.94,426.091 1085.5,438.5C 1082.83,438.5 1080.17,438.5 1077.5,438.5C 1077.67,428.161 1077.5,417.828 1077,407.5C 1074.83,402.901 1071.16,400.235 1066,399.5C 1059.58,399.922 1055.58,403.255 1054,409.5C 1053.5,419.161 1053.33,428.828 1053.5,438.5C 1050.83,438.5 1048.17,438.5 1045.5,438.5C 1045.5,423.5 1045.5,408.5 1045.5,393.5C 1048.17,393.5 1050.83,393.5 1053.5,393.5C 1053.34,395.199 1053.51,396.866 1054,398.5C 1057.07,395.554 1060.57,393.554 1064.5,392.5 Z"/></g>
<g><path style="opacity:0.871" fill="#313231" d="M 1147.5,392.5 C 1164.65,393.318 1172.65,402.318 1171.5,419.5C 1159.83,419.5 1148.17,419.5 1136.5,419.5C 1138.1,429.81 1144.1,433.977 1154.5,432C 1157.97,431.034 1160.3,428.868 1161.5,425.5C 1164.43,424.516 1167.43,424.183 1170.5,424.5C 1168.76,432.075 1164.09,436.908 1156.5,439C 1133.4,440.221 1124.23,429.388 1129,406.5C 1132.75,398.55 1138.92,393.884 1147.5,392.5 Z M 1148.5,399.5 C 1156.93,399.928 1161.93,404.261 1163.5,412.5C 1154.5,412.5 1145.5,412.5 1136.5,412.5C 1137.41,405.259 1141.41,400.926 1148.5,399.5 Z"/></g>
<g><path style="opacity:0.87" fill="#313231" d="M 1194.5,392.5 C 1203.37,391.515 1209.87,394.849 1214,402.5C 1214.49,404.134 1214.66,405.801 1214.5,407.5C 1211.75,407.813 1209.09,407.48 1206.5,406.5C 1202.71,399.719 1197.38,398.219 1190.5,402C 1188.99,404.916 1189.32,407.582 1191.5,410C 1197.83,412.333 1204.17,414.667 1210.5,417C 1217.27,423.956 1216.94,430.623 1209.5,437C 1199.29,441.445 1190.12,439.945 1182,432.5C 1178.04,425.507 1180.21,423.507 1188.5,426.5C 1192.43,432.506 1197.76,434.006 1204.5,431C 1207.74,428.581 1208.07,425.915 1205.5,423C 1199.92,420.806 1194.25,418.806 1188.5,417C 1178.26,410.125 1177.93,402.792 1187.5,395C 1190,394.302 1192.34,393.469 1194.5,392.5 Z"/></g>
<g><path style="opacity:0.967" fill="#313231" d="M 1274.5,392.5 C 1279.17,392.5 1283.83,392.5 1288.5,392.5C 1288.34,394.199 1288.51,395.866 1289,397.5C 1295.42,392.335 1302.58,391.168 1310.5,394C 1314.82,396.315 1317.65,399.815 1319,404.5C 1319.5,415.828 1319.67,427.162 1319.5,438.5C 1314.83,438.5 1310.17,438.5 1305.5,438.5C 1305.67,429.161 1305.5,419.827 1305,410.5C 1302.27,404.878 1298.1,403.378 1292.5,406C 1290.51,407.319 1289.35,409.152 1289,411.5C 1288.5,420.494 1288.33,429.494 1288.5,438.5C 1283.83,438.5 1279.17,438.5 1274.5,438.5C 1274.5,423.167 1274.5,407.833 1274.5,392.5 Z"/></g>
<g><path style="opacity:0.934" fill="#313231" d="M 1344.5,392.5 C 1367.77,390.937 1377.61,401.604 1374,424.5C 1367.02,437.897 1356.19,442.397 1341.5,438C 1328.74,431.088 1324.58,420.588 1329,406.5C 1331.87,399.124 1337.04,394.457 1344.5,392.5 Z M 1350.5,404.5 C 1360.32,407.76 1362.82,414.093 1358,423.5C 1348.99,429.179 1343.82,426.679 1342.5,416C 1342.38,410.031 1345.05,406.198 1350.5,404.5 Z"/></g>
<g><path style="opacity:0.924" fill="#313231" d="M 1379.5,393.5 C 1384.68,392.185 1390.01,392.185 1395.5,393.5C 1398.67,403.494 1401.83,413.494 1405,423.5C 1408.07,413.464 1411.23,403.464 1414.5,393.5C 1419.46,392.506 1424.46,392.173 1429.5,392.5C 1424.51,407.816 1419.51,423.15 1414.5,438.5C 1408.13,438.83 1401.8,438.496 1395.5,437.5C 1390.33,422.658 1385,407.992 1379.5,393.5 Z"/></g>
<g><path style="opacity:0.934" fill="#313231" d="M 1449.5,392.5 C 1470,390.057 1480,399.057 1479.5,419.5C 1469.17,419.5 1458.83,419.5 1448.5,419.5C 1448.76,424.256 1451.26,426.922 1456,427.5C 1458.66,427.251 1460.83,426.085 1462.5,424C 1467.86,423.171 1473.2,423.337 1478.5,424.5C 1473.22,436.782 1463.89,441.615 1450.5,439C 1441.67,436.833 1436.17,431.333 1434,422.5C 1431.05,408.058 1436.22,398.058 1449.5,392.5 Z M 1452.5,404.5 C 1455.98,404.184 1459.31,404.684 1462.5,406C 1463.86,407.584 1464.53,409.418 1464.5,411.5C 1459.17,411.5 1453.83,411.5 1448.5,411.5C 1448.96,408.697 1450.29,406.363 1452.5,404.5 Z"/></g>
<g><path style="opacity:0.947" fill="#313231" d="M 1619.5,392.5 C 1626.85,391.304 1633.35,392.97 1639,397.5C 1639.49,395.866 1639.66,394.199 1639.5,392.5C 1644.17,392.5 1648.83,392.5 1653.5,392.5C 1653.5,407.833 1653.5,423.167 1653.5,438.5C 1648.83,438.5 1644.17,438.5 1639.5,438.5C 1639.66,436.801 1639.49,435.134 1639,433.5C 1634.01,438.938 1627.84,440.771 1620.5,439C 1610.01,435.04 1605.01,427.374 1605.5,416C 1605.22,405.04 1609.89,397.206 1619.5,392.5 Z M 1625.5,405.5 C 1637.08,404.979 1641.25,410.312 1638,421.5C 1635.46,426.069 1631.63,427.569 1626.5,426C 1620.89,422.723 1619.06,417.89 1621,411.5C 1622.33,409.34 1623.83,407.34 1625.5,405.5 Z"/></g>
<g><path style="opacity:0.966" fill="#7e7dff" d="M 159.5,396.5 C 163.173,398 166.506,400 169.5,402.5C 161.5,410.167 153.5,417.833 145.5,425.5C 141.164,423.668 137.164,421.335 133.5,418.5C 142.46,411.542 151.127,404.209 159.5,396.5 Z"/></g>
<g><path style="opacity:0.97" fill="#817bff" d="M 169.5,402.5 C 175.517,405.675 181.851,408.008 188.5,409.5C 179.801,418.201 170.801,426.534 161.5,434.5C 155.835,432.003 150.502,429.003 145.5,425.5C 153.5,417.833 161.5,410.167 169.5,402.5 Z"/></g>
<g><path style="opacity:0.974" fill="#8678ff" d="M 188.5,409.5 C 199.755,412.94 211.088,413.273 222.5,410.5C 222.141,412.371 221.141,413.871 219.5,415C 208.598,424.076 198.265,433.576 188.5,443.5C 179.112,441.572 170.112,438.572 161.5,434.5C 170.801,426.534 179.801,418.201 188.5,409.5 Z"/></g>
<g><path style="opacity:0.974" fill="#8a77ff" d="M 222.5,410.5 C 223.833,410.5 225.167,410.5 226.5,410.5C 214.5,421.5 202.5,432.5 190.5,443.5C 189.833,443.5 189.167,443.5 188.5,443.5C 198.265,433.576 208.598,424.076 219.5,415C 221.141,413.871 222.141,412.371 222.5,410.5 Z"/></g>
</svg>
