<?xml version="1.0" encoding="UTF-8"?>
<!DOCTYPE svg PUBLIC "-//W3C//DTD SVG 1.1//EN" "http://www.w3.org/Graphics/SVG/1.1/DTD/svg11.dtd">
<!-- Creator: CorelDRAW -->
<svg xmlns="http://www.w3.org/2000/svg" xml:space="preserve" width="650mm" height="150mm" version="1.1" style="shape-rendering:geometricPrecision; text-rendering:geometricPrecision; image-rendering:optimizeQuality; fill-rule:evenodd; clip-rule:evenodd"
viewBox="0 0 65000 15000"
 xmlns:xlink="http://www.w3.org/1999/xlink"
 xmlns:xodm="http://www.corel.com/coreldraw/odm/2003">
 <defs>
  <style type="text/css">
   <![CDATA[
    .fil1 {fill:#001959}
    .fil0 {fill:#05BDCE}
    .fil2 {fill:white}
    .fil3 {fill:#001959;fill-rule:nonzero}
   ]]>
  </style>
 </defs>
 <g id="Camada_x0020_1">
  <metadata id="CorelCorpID_0Corel-Layer"/>
  <g id="_2047888170144">
   <path class="fil0" d="M9612.36 143.38l-6524.45 0c-1674.59,0 -3044.69,1370.12 -3044.69,3044.71l0 6524.45c0,2375.44 3382.4,4765.29 5489.37,5147.02l17.18 -2102.31 4062.6 0c1674.59,0 3044.7,-1370.11 3044.7,-3044.71l0 -6524.45c0,-1674.59 -1370.11,-3044.71 -3044.7,-3044.71l-0.01 0z"/>
   <path class="fil1" d="M14422.91 4567.6l4042.53 0 0 1067.24 -2704.78 0 0 957.65 2441.53 0 0 1059.98 -2441.53 7.26 0 965.03 2777.85 0 0 1067.24 -4115.6 0 0 -5124.41 0 0.01zm4303.36 1169.59l1491.28 0 636.09 1111.16 687.02 -1111.16 1425.45 0 -1249.91 1929.92 1337.75 2024.89 -1498.65 0 -701.66 -1206.25 -782.23 1206.25 -1432.83 0 1345.13 -2024.89 -1257.43 -1929.92 -0.01 0zm4610.52 0l1293.83 0 0 3954.81 -1293.83 0 0 -3954.81zm635.96 -1820.33c199.73,0 364.19,64.67 493.4,193.87 129.08,129.08 193.74,295.96 193.74,500.79 0,199.72 -64.66,365.46 -193.74,497.08 -129.21,131.5 -293.67,197.31 -493.4,197.31 -199.86,0 -364.45,-65.81 -493.53,-197.31 -129.08,-131.62 -193.74,-297.36 -193.74,-497.08 0,-204.83 64.66,-371.71 193.74,-500.79 129.08,-129.2 293.67,-193.87 493.53,-193.87zm1203.84 650.74l4400.61 0 0 877.19 -2704.65 3172.58 2748.57 0 0 1074.63 -4539.62 0 0 -869.94 2704.78 -3179.96 -2609.69 0 0 -1074.5zm6686.45 1118.43c545.84,0 969.86,125.51 1272.06,376.53 302.07,250.9 455.59,603.01 460.43,1056.3l0 2573.15 -1279.2 0 0 -445.91c-263.12,336.18 -660.28,504.34 -1191.61,504.34 -419.06,0 -749.26,-113.29 -990.49,-339.87 -241.22,-226.72 -361.9,-525.23 -361.9,-895.53 0,-375.27 130.48,-667.67 391.18,-877.2 260.7,-209.52 634.7,-316.83 1122.11,-321.67l1030.71 0 0 -43.79c0,-190.18 -64.53,-336.32 -193.74,-438.66 -129.08,-102.35 -315.57,-153.51 -559.21,-153.51 -165.74,0 -352.1,26.72 -559.21,80.44 -207.11,53.6 -415.49,131.5 -625.15,233.84l-358.08 -877.19c321.67,-146.14 629.86,-254.59 924.68,-325.24 294.93,-70.65 600.71,-106.03 917.42,-106.03zm-336.19 3179.95c194.88,0 365.46,-47.61 511.72,-142.57 146.14,-95.09 238.81,-218.19 277.76,-369.15l0 -343.58 -774.84 0c-365.6,0 -548.39,136.34 -548.39,409.26 0,136.46 47.6,244.91 142.56,325.36 95.09,80.46 225.44,120.68 391.19,120.68zm5202.57 -3172.58c365.47,0 687.15,84.02 964.9,252.18 277.76,168.03 493.4,406.84 646.92,716.42 153.52,309.45 230.28,666.39 230.28,1070.8 0,399.59 -74.34,750.54 -222.9,1052.61 -148.68,302.2 -360.62,536.17 -636.09,701.91 -275.22,165.61 -593.2,248.48 -953.95,248.48 -248.49,0 -473.8,-47.48 -676.07,-142.44 -202.27,-95.09 -374.12,-232.83 -515.42,-413.07l0 1929.8 -1301.22 0 0 -5372.89 1301.22 0 0 511.73c287.56,-370.43 675.04,-555.53 1162.33,-555.53zm-321.67 2989.79c253.44,0 459.41,-90.12 617.76,-270.49 158.36,-180.39 237.54,-416.65 237.54,-709.05 0,-292.39 -79.18,-529.92 -237.54,-712.72 -158.35,-182.8 -364.32,-274.19 -617.76,-274.19 -248.48,0 -450.75,91.39 -606.7,274.19 -155.93,182.8 -233.96,420.33 -233.96,712.72 0,292.4 78.03,528.66 233.96,709.05 155.95,180.37 358.22,270.49 606.7,270.49z"/>
   <path class="fil2" d="M11374.02 3602.58c-107.42,-97.4 -273.47,-89.28 -370.85,18.14l-2416.57 2665.32 -397.86 -326.23 -468.22 684.54 526.88 750.25c32.4,45.74 74.24,88.27 123.16,121.85 222.2,152.55 526.01,96.09 678.56,-126.12l19.36 -28.21 2345.63 -3416.43c73.38,-106.63 58.44,-253.76 -40.09,-343.11z"/>
   <path class="fil2" d="M9122.48 3602.58c-107.42,-97.4 -273.44,-89.28 -370.85,18.14l-2416.56 2665.32 -1139.82 -934.64c-89.49,-73.31 -220.31,-81.67 -319.6,-11.92 -119.49,83.91 -148.33,248.81 -64.42,368.31l1184.64 1686.81c32.39,45.74 74.24,88.27 123.16,121.85 222.19,152.55 526,96.09 678.57,-126.12l19.36 -28.21 2345.61 -3416.43c73.4,-106.63 58.45,-253.76 -40.09,-343.11z"/>
   <path class="fil2" d="M3141.61 8297.05c0,0 1357.24,1874.7 2684.86,2715.49 506.89,320.76 925.48,492.21 1292.34,548.1 130.13,18.33 248.08,25.34 365.46,20.63 422.78,-16.94 780.72,-184.22 1123.63,-433.19 0,0 537.38,-386.16 727.15,-640.82 177.56,-265.89 156.83,-488.58 -26.36,-657.64l-1353.04 -1474.96c0,0 -332.18,-363.15 -778.42,-51.2 0,0 -192.11,195.93 -636.94,543.11 -433.11,346.71 -933.9,-409.58 -933.9,-409.58l-887.51 -1305.4c0,0 -224.05,-308.64 -485.77,-674.51 -161.64,-217.04 -324.15,-457.48 -474.06,-674.99 -330.26,-610.19 -174.32,-828.21 -174.32,-828.21 85.03,-226.92 688.21,-439.31 962.48,-638.45 434.52,-311.48 193.5,-748.83 193.5,-748.83l-975.83 -1748.86c-115.09,-230.62 -307.24,-328.76 -621.05,-233.89 -314.29,83.15 -839.41,480.64 -839.41,480.64 -91.6,62.5 -171.42,124.53 -250.83,198.27 -662.33,497.01 -1035.27,1170.75 -671.13,2626.47 401.41,1501.44 1759.12,3387.76 1759.12,3387.76l0.03 0.07 0 -0.01z"/>
   <path class="fil3" d="M64949.72 11950.86l-849.19 0 -1793.76 -2511.54 0 -6387.26 2642.95 0 0 8898.79 0 0.01zm-14310.45 -3453.14l0 1248.37 5845.26 0 0 2204.77 -8488.21 0 0 -8898.79 5635.56 0 1618.11 2204.85 -4610.72 0 0 1168.83 3758.95 0 -1509.95 2071.45 -2249 0.52zm2833.46 -0.52l2361.65 -3240.28 -3187.59 -4343.18 3107.9 0 1527.4 2324.42 1540.63 -2324.42 3108.13 0 -3187.82 4343.18 4780.92 6693.94 -3026.09 0 -3215.77 -4648.54 -796.6 1194.88 -3012.77 0 0.01 0z"/>
   <path class="fil3" d="M42409.77 6428.93c172.66,0 326.44,40.47 461.33,121.4 134.9,80.94 239.44,194.92 313.63,341.96 74.19,147.03 111.29,314.97 111.29,503.82 0,232.02 -51.26,442.45 -153.78,631.3 -102.52,188.85 -242.81,337.91 -420.87,447.17 -178.06,109.27 -376.35,163.9 -594.87,163.9 -183.46,0 -337.24,-38.45 -461.34,-115.34 -124.1,-76.88 -215.83,-188.17 -275.18,-333.86l-84.98 420.87 -526.09 0 598.93 -3002.73 522.03 0 -226.62 1141.2c97.13,-102.52 208.41,-181.43 333.86,-236.74 125.46,-55.31 259.67,-82.96 402.66,-82.96l0 0.01zm-186.15 433c-129.5,0 -248.2,33.72 -356.12,101.17 -107.91,67.44 -192.9,158.5 -254.95,273.15 -62.05,114.66 -93.07,239.44 -93.07,374.33 0,169.97 48.56,306.88 145.68,410.75 97.12,103.87 226.62,155.8 388.49,155.8 126.8,0 244.83,-33.72 354.1,-101.17 109.26,-67.44 195.59,-159.17 258.99,-275.18 63.4,-116.01 95.1,-241.46 95.1,-376.35 0,-169.96 -49.91,-306.22 -149.73,-408.73 -99.82,-102.51 -229.32,-153.77 -388.49,-153.77z"/>
   <path id="_1" class="fil3" d="M45788.84 6445.12l-1460.89 2456.4c-199.64,345.32 -470.77,517.99 -813.4,517.99 -107.92,0 -202.34,-17.54 -283.28,-52.61 -80.93,-35.07 -159.17,-87.68 -234.71,-157.83l271.13 -368.25c75.54,62.05 157.83,93.07 246.86,93.07 145.68,0 275.18,-75.54 388.49,-226.62l97.12 -133.54 -465.38 -2128.61 538.23 0 287.32 1594.43 890.29 -1594.43 538.22 0z"/>
  </g>
 </g>
</svg>
