<svg xmlns="http://www.w3.org/2000/svg" width="1600" height="1600" viewBox="0 0 1600 1600">
  <defs>
    <style>
      .cls-1 {
        fill: #fff;
        fill-rule: evenodd;
      }
    </style>
  </defs>
  <path id="Preenchimento_de_Cor_1" data-name="Preenchimento de Cor 1" class="cls-1" d="M767,58h72c0.372,2.076.242,1.925,1,3,4.769,2.859,14.217-1.507,20,1l3,4h17c0.7,0.416,1,3.551,2,4h13l1,3h13l3,4h5c0.952,0.486,1.314,3.593,2,4h13l3,4h5l3,4h5l1,3h6l2,4c2.415,1.209,8.207.389,10,1,0.818,3.026-.318,3.806,2,6,2.037,1.234,6.233-.292,9,1q0.5,1.5,1,3h5c1.45,0.65,1.871,3.39,3,4h5c2.69,1.382,4.444,6.643,7,8h5l3,4h5c0.67,1,1.33,2,2,3h5c2.44,1.294,3.69,6.694,6,8h6c0.77,0.5.97,3.474,2,4,3.6,1.843,8.4,1.157,12,3q3.495,4,7,8h5c2.14,1.146,3.15,5.483,5,7,1.78,1.463,4.83-.337,7,1,0.33,1,.67,2,1,3h5c1.4,0.61,1.93,3.481,3,4,2.77,1.343,6.94-.326,9,1,1.33,1.989,1.23,4.422,3,6,3.48,2.358,8.07,1.957,12,4,1.02,0.532,1.23,3.5,2,4h6c2.24,1.28,3.77,6.7,6,8h5l3,4c3.59,1.8,8.52,1.133,12,3,2.44,1.308,3.8,6.525,6,8h6c1.8,1.025,3.23,5.909,5,7h9q3.495,4,7,8h5q3.495,4,7,8h9c1.78,1.118,3.19,5.945,5,7h5l3,4h5l6,7h5c1.02,0.534,1.23,3.5,2,4h6c2.23,1.271,3.77,6.732,6,8h6c0.78,0.509.97,3.464,2,4,3.49,1.813,8.56,1.155,12,3,2.44,1.307,3.8,6.527,6,8h6c0.67,1.333,1.33,2.667,2,4h6c1.78,1.2,3.04,5.894,5,7h5l3,4h5l3,4h5c1.96,1.1,3.22,5.814,5,7h6c0.67,1.333,1.33,2.667,2,4h6c2.2,1.491,3.56,6.684,6,8h5l6,7h5c2.56,1.378,4.31,6.6,7,8h5c3.41,1.989,5.61,9.084,9,11h6c1.41,0.8,2.85,4.674,4,6,2.15,2.485,5.63,3.7,8,6,5.39,5.229,9.87,11.507,15,17,1.92,2.054,4.86,3.121,7,5,2.38,2.088,3.69,5.793,6,8h2c2.17,2.706-1.58,3.069,0,6,2.91,5.417,13.24,8.486,16,14,1.51,3.007-2.19,3.29,0,6,1.46,1.808,5.84,2.938,7,5v5c1.33,1,2.67,2,4,3v5c1.16,2.06,5.55,3.19,7,5,2.17,2.709-1.57,3.066,0,6,1.19,2.213,6.77,3.8,8,6v6c1.33,0.667,2.67,1.333,4,2v6c0.5,0.772,3.51.943,4,2-0.33,1.333-.67,2.667-1,4,0.47,1.067,3.51,1.234,4,2v6c1.33,0.667,2.67,1.333,4,2v10c0.45,0.729,3.52.987,4,2v9l3,1c1.43,1.9-.26,4.621,1,7,0.6,1.137,3.54,1.428,4,3,0.64,2.216-2.66,7.426-1,11,0.47,1,3.57,1.284,4,2v14c1.33,0.667,2.67,1.333,4,2v9c1.33,0.667,2.67,1.333,4,2v25c1.33,0.667,2.67,1.333,4,2v476c-8.81,7.77.53,16.73-4,27-1.33,1-2.67,2-4,3v9c-1.33.67-2.67,1.33-4,2v13c-1.33,1-2.67,2-4,3-1.3,3.03,1.6,4.93,1,7-0.57,1.96-4.4,2.87-5,5-0.59,2.08,2.29,3.96,1,7-1.33,1-2.67,2-4,3v9c-1.33.67-2.67,1.33-4,2v6c-1.33.67-2.67,1.33-4,2v6c-0.49.77-3.5,0.95-4,2,0.33,1.33.67,2.67,1,4-0.47,1.06-3.51,1.24-4,2v6c-1.33.67-2.67,1.33-4,2v6c-1.33.67-2.67,1.33-4,2v6c-1.19,1.77-5.9,3.04-7,5v5c-1.33,1-2.67,2-4,3v5c-1.25,2.41-5.12,3.13-7,5a44.3,44.3,0,0,0-5,6c0.1,1.1,1.99,1.99,1,4-1.2,2.44-6.72,3.72-8,6v6c-0.79,1.4-4.68,2.86-6,4-6.32,5.48-11.11,13.03-17,19-0.97.99-3.35,0.69-4,2-0.93,1.88,2.39,4,0,6h-6c-0.67,1.33-1.33,2.67-2,4-5.93,4.97-11.13,10.02-17,15-0.67,1.33-1.33,2.67-2,4h-6c-2.35,1.58-6.53,9.57-9,11h-5c-3.99,2.07-6.1,8.98-10,11h-5q-3.495,4.005-7,8h-5c-0.33,1-.67,2-1,3-1.91,1.44-4.59-.24-7,1-0.33,1-.67,2-1,3-2.17,1.34-5.21-.45-7,1-1.75,1.42-3.11,5.9-5,7h-5c-1,1.33-2,2.67-3,4h-5c-1,1.33-2,2.67-3,4h-5c-1.95,1.09-3.23,5.82-5,7h-6c-0.67,1.33-1.33,2.67-2,4h-6c-0.77.5-.98,3.47-2,4h-5q-3,3.495-6,7h-5c-1.02.53-1.24,3.51-2,4h-6c-0.67,1.33-1.33,2.67-2,4h-6c-1.78,1.19-3.04,5.9-5,7h-5q-3.495,4.005-7,8h-5c-1,1.33-2,2.67-3,4h-5c-0.33,1-.67,2-1,3h-6c-0.67,1.33-1.33,2.67-2,4h-5c-2.69,1.4-4.44,6.63-7,8h-5c-1,1.33-2,2.67-3,4h-5c-1.95,1.1-3.23,5.82-5,7h-6c-0.67,1.33-1.33,2.67-2,4h-6c-0.77.5-.98,3.47-2,4h-5q-3,3.495-6,7h-5c-1,1.33-2,2.67-3,4h-5c-0.67,1.33-1.33,2.67-2,4h-6c-1.78,1.19-3.04,5.9-5,7h-5q-3.495,4.005-7,8h-5c-1,1.33-2,2.67-3,4h-5c-0.33,1-.67,2-1,3h-6c-0.67,1.33-1.33,2.67-2,4h-6c-0.77.5-.98,3.47-2,4h-5q-3.495,4.005-7,8c-3.45,1.78-8.68,1.15-12,3-0.67,1.33-1.33,2.67-2,4h-6c-2.31,1.3-3.57,6.7-6,8-3.46,1.85-8.48,1.19-12,3q-3.5,4.005-7,8h-5c-1,1.33-2,2.67-3,4h-5c-0.667,1.33-1.333,2.67-2,4h-6q-0.5,1.5-1,3h-5q-3.5,4.005-7,8h-5c-1,1.33-2,2.67-3,4h-5q-0.5,1.5-1,3h-9c-1,1.33-2,2.67-3,4h-5c-1,1.33-2,2.67-3,4h-9c-0.667,1.33-1.333,2.67-2,4h-6c-0.764.49-.949,3.51-2,4H900q-0.5,1.5-1,3H886c-1,1.33-2,2.67-3,4H867c-1,1.33-2,2.67-3,4H848c-18.522,8.12-61.148,3.99-87,4-5.569-9.48-14.32.33-23-4-0.667-1.33-1.333-2.67-2-4H719c-0.667-1.33-1.333-2.67-2-4h-9l-2-3H694c-1.459-.56-1.906-3.46-3-4h-9c-1-1.33-2-2.67-3-4h-9c-0.667-1.33-1.333-2.67-2-4h-6c-0.768-.5-0.975-3.47-2-4-3.575-1.84-8.418-1.16-12-3-0.971-.5-1.291-3.57-2-4H636c-2.292-1.22-3.6-6.72-6-8-3.463-1.85-8.478-1.19-12-3q-3.5-4.005-7-8h-5c-1.02-.53-1.236-3.51-2-4h-6c-0.667-1.33-1.333-2.67-2-4h-6c-1.775-1.19-3.042-5.9-5-7h-5c-1-1.33-2-2.67-3-4h-5c-1-1.33-2-2.67-3-4h-5c-1.954-1.1-3.227-5.82-5-7h-6c-0.667-1.33-1.333-2.67-2-4h-5q-3.5-4.005-7-8c-3.577-1.84-8.43-1.16-12-3-1.023-.53-1.234-3.5-2-4h-6c-2.225-1.26-3.774-6.74-6-8h-6l-1-3h-5c-1-1.33-2-2.67-3-4h-5c-2.559-1.37-4.307-6.61-7-8h-5c-0.667-1.33-1.333-2.67-2-4h-6l-1-3h-5q-3.5-4.005-7-8h-5c-1-1.33-2-2.67-3-4h-5l-1-3h-6c-2.226-1.26-3.775-6.74-6-8h-6c-0.77-.5-0.975-3.47-2-4h-5q-3-3.495-6-7h-5c-1.019-.53-1.236-3.51-2-4h-6c-0.667-1.33-1.333-2.67-2-4h-6c-1.775-1.19-3.042-5.9-5-7h-5c-1-1.33-2-2.67-3-4h-5c-1-1.33-2-2.67-3-4h-5c-1.891-1.1-3.253-5.58-5-7-1.785-1.45-4.838.34-7-1l-1-3h-5c-1-1.33-2-2.67-3-4h-5c-1-1.33-2-2.67-3-4h-5q-3-3.495-6-7h-5c-2.429-1.31-3.69-6.7-6-8h-6c-0.667-1.33-1.333-2.67-2-4h-5c-1-1.33-2-2.67-3-4-3.626-1.8-8.484-1.13-12-3-2.436-1.3-3.8-6.53-6-8h-6c-0.667-1.33-1.333-2.67-2-4h-6c-3.4-2.28-5.223-9.04-9-11h-5l-14-15h-5c-6.553-3.5-11.7-13.76-17-19-5.475-5.41-22.987-18.19-26-24v-5q-7.5-7.005-15-14v-5c-1.162-2.07-5.526-3.19-7-5-2.092-2.57,1.02-3.82,0-6-1.333-.67-2.667-1.33-4-2v-6c-1.243-2.23-6.742-3.78-8-6v-6c-1.552-2.28-6.371-3.51-8-6,1.2-6.6-.586-2.25-3-6v-6c-1.333-.67-2.667-1.33-4-2v-6c-1.333-.67-2.667-1.33-4-2v-9l-4-3c0.333-1.33.667-2.67,1-4-0.438-1.02-3.571-1.29-4-2v-10c-1.333-.67-2.667-1.33-4-2v-6c-0.489-.76-3.51-0.95-4-2v-9c-1.333-.67-2.667-1.33-4-2-1.989-3.98,1.653-12.62,1-15-0.582-2.13-4.441-3.05-5-5-0.643-2.25,2.587-7.36,1-11l-4-3v-20l-4-3V566l4-3V543c0.527-1.089,3.444-1.543,4-3,1.429-3.743-1.637-8.7-1-11,0.508-1.838,4.1-3.13,5-5-0.206-1.7-2.518-7.965-1-11l4-2V498c0.487-1.052,3.509-1.235,4-2v-6l4-2V478c0.432-.715,3.566-0.975,4-2q-0.5-4-1-8c0.452-1.069,3.514-1.239,4-2v-6l4-2v-6l4-2v-6c0.5-.768,3.492-0.958,4-2,0.972-2-1.431-3.182-1-4,0.531-1.008,3.515-1.244,4-2v-6c1.563-2.99,10.361-7.1,12-10v-6c0.492-.766,3.509-0.949,4-2,1.019-2.184-2.081-3.423,0-6,2.635-3.263,9.027-5.2,11-9v-5l11-10v-5c1.441-2.1,6.577-.58,8-3v-5c0.455-.8,30.417-30.693,31-31h5c3.5-2.076-.488-5.912,3-8h5l6-7h5c3.707-1.987,5.836-8.325,9-11,1.824-1.542,4.6.229,7-1l1-3h6c2.311-1.308,3.567-6.692,6-8h5l6-7h5l7-8h9c2.27-1.207,3.585-6.827,6-8h9l6-7h5c2.558-1.372,4.3-6.616,7-8h5l1-3h5c1.452-.654,1.867-3.383,3-4h5l7-8h5l6-7h5c2.392-1.288,3.707-6.786,6-8h10c1.714-1.086,3.085-6.025,5-7h9c2.433-1.185,3.843-6.556,6-8h6c1.878-1.064,3.271-5.595,5-7,1.784-1.45,4.839.339,7-1l1-3h5l3-4h5l7-8c3.5-1.817,8.617-1.153,12-3l2-4h5c2.692-1.4,4.441-6.632,7-8h5l3-4h5l1-3h6c2.226-1.256,3.775-6.74,6-8h6c0.77-.5.973-3.47,2-4,3.568-1.841,8.428-1.161,12-3l7-8h5c1.89-1.1,3.241-5.6,5-7l10-1,6-7h5l3-4h5c1.132-.613,1.546-3.352,3-4h5c1.961-1.093,3.112-5.937,5-7h6c2.31-1.3,3.568-6.7,6-8h5l3-4c3.677-1.825,8.382-1.136,12-3,1.022-.527,1.236-3.507,2-4h6l2-4h6c0.767-.5.975-3.472,2-4h5l2-3h9l2-4h6c0.766-.492.95-3.508,2-4h9l3-4h5c1.144-.615,1.489-3.415,3-4h12l2-3h13l2-4h20l3-4c5.585-2.459,16.084.642,21-1V58Zm9,106c-2.821,5.385-10.824,4.354-19,4-5.765,9.175-14.235-.232-23,4-1.084.524-1.556,3.432-3,4-4.7,1.85-14.86,1.059-19,3-1.049.492-1.235,3.509-2,4h-6q-1,2-2,4h-6c-0.768.5-.974,3.471-2,4-3.568,1.839-8.433,1.16-12,3-1.022.527-1.235,3.506-2,4h-6q-1,2-2,4h-6c-2.2,1.478-3.561,6.7-6,8-3.469,1.849-8.475,1.185-12,3l-7,8h-5c-1.132.616-1.549,3.346-3,4h-5q-0.5,1.5-1,3c-2.409,1.242-5.1-.444-7,1q-0.5,1.5-1,3h-5l-7,8h-5c-2.24,1.163-3.106,5.72-5,7h-6q-1,2-2,4h-6q-1,2-2,4h-5l-6,7h-5l-3,4h-5c-1.022.53-1.234,3.5-2,4h-6c-1.827,1.032-3.229,5.828-5,7h-5c-1.446.657-1.87,3.386-3,4h-5l-3,4h-5l-7,8c-3.5,1.817-8.616,1.153-12,3l-2,4h-5l-7,8c-3.578,1.839-8.428,1.158-12,3-1.024.528-1.234,3.5-2,4h-6c-2.226,1.26-3.774,6.74-6,8h-6c-0.769.5-.973,3.471-2,4-3.52,1.815-8.534,1.152-12,3-2.436,1.3-3.8,6.531-6,8h-6l-2,4c-3.387,1.847-8.5,1.181-12,3l-7,8h-5l-3,4h-5c-1.128.611-1.556,3.344-3,4h-5c-1.771,1.175-3.172,5.966-5,7h-6c-2.154,1.446-3.566,6.82-6,8h-9c-1.949.992-3.266,5.842-5,7h-6c-2.226,1.259-3.774,6.74-6,8h-6c-1.734,1.159-3.051,6.009-5,7h-9l-14,15h-5c-5.8,3.1-19.516,21.344-25,27-3.753,3.87-11.387,7.345-14,12v5l-12,11v5c-0.579,1.078-3.284,1.672-4,3,0.053,1.125,1.994,1.961,1,4-1.189,2.44-6.724,3.72-8,6v6l-4,2v9l-4,3q0.5,2,1,4c-0.461,1.066-3.512,1.237-4,2v6l-4,2v6l-4,2v13l-4,2c-1.818,3.659,1.747,9.758,1,12l-5,4c-1.275,3.66,3.416,13.706,1,19-0.456,1-3.576,1.294-4,2v452c0.526,1.09,3.442,1.54,4,3,1.847,4.82-2.288,11.71-1,15,0.613,1.56,4.442,2.11,5,4,0.85,2.88-3.032,10.62-1,15,0.488,1.05,3.51,1.24,4,2v6c1.333,0.67,2.667,1.33,4,2v10c0.44,0.72,3.5,1.01,4,2v6c0.491,0.76,3.5.96,4,2-0.333,1.33-.667,2.67-1,4,0.442,1.02,3.572,1.29,4,2v10c1.168,2.21,6.757,3.81,8,6v6c1.292,1.9,5.834,2.75,7,5v5q4,3.495,8,7v5c1.573,2.79,9.323,6.5,11,9v6c1.034,1.82,5.317,3.53,7,5,3.612,3.15,9.279,12.99,13,15,1.631,0.88,5.909.62,7,1-0.007,2.72.039,4.6,1,6,1.069,0.7,4.559.03,6,1,2.48,1.67,6.283,9.53,9,11h5q3,3.495,6,7h5c2.561,1.38,4.305,6.6,7,8h5c0.667,1.33,1.333,2.67,2,4h6c1.777,1.2,3.04,5.9,5,7h5c1,1.33,2,2.67,3,4h5c1,1.33,2,2.67,3,4h5l1,3c1.871,1.42,4.694-.29,7,1,1.961,1.1,3.111,5.94,5,7h6c0.667,1.33,1.333,2.67,2,4h5q3.5,4.005,7,8c3.568,1.84,8.439,1.16,12,3,1.024,0.53,1.232,3.5,2,4h6c2.226,1.26,3.772,6.74,6,8h6l1,3h5c1,1.33,2,2.67,3,4h5c2.437,1.31,3.8,6.52,6,8h6c1.892,1.08,3.032,5.9,5,7h5c1.457,0.65,1.866,3.38,3,4h5c1,1.33,2,2.67,3,4h5q3,3.495,6,7c3.333,0.33,6.667.67,10,1,1.757,1.4,3.109,5.9,5,7h5c2.688,1.4,4.441,6.64,7,8,3.421,1.82,8.583,1.17,12,3,2.437,1.3,3.8,6.53,6,8h6c0.667,1.33,1.333,2.67,2,4h6q0.5,1.5,1,3h5c1,1.33,2,2.67,3,4h5q3.5,4.005,7,8h5c1.133,0.62,1.549,3.34,3,4h5q0.5,1.5,1,3h5q3.5,4.005,7,8h5c1,1.33,2,2.67,3,4h5c1.955,1.1,3.227,5.82,5,7h6c0.667,1.33,1.333,2.67,2,4h6c2.2,1.48,3.561,6.7,6,8,3.466,1.85,8.48,1.18,12,3,1.024,0.53,1.234,3.5,2,4h6c0.667,1.33,1.333,2.67,2,4h6c0.767,0.5.978,3.47,2,4h5q3,3.495,6,7h9c1.05,0.49,1.233,3.51,2,4h6c0.667,1.33,1.333,2.67,2,4h9c1,1.33,2,2.67,3,4h5q0.5,1.5,1,3h13c1,1.33,2,2.67,3,4h13c0.667,1.33,1.333,2.67,2,4h88c1-1.33,2-2.67,3-4h13c0.667-1.33,1.333-2.67,2-4h13q0.5-1.5,1-3h9c1.455-.58,1.9-3.46,3-4h9c1-1.33,2-2.67,3-4h5c0.667-1.33,1.333-2.67,2-4h6c0.772-.5.972-3.47,2-4,3.554-1.84,8.442-1.16,12-3q3.5-4.005,7-8h5q0.5-1.5,1-3c1.9-1.44,4.593.24,7-1q0.5-1.5,1-3c2.166-1.34,5.217.46,7-1,1.747-1.43,3.107-5.9,5-7h5c1-1.33,2-2.67,3-4h5c1-1.33,2-2.67,3-4h5c1.955-1.1,3.226-5.82,5-7h6c0.667-1.33,1.333-2.67,2-4h6c0.77-.5.97-3.47,2-4h5q3-3.495,6-7h5c1.02-.53,1.23-3.5,2-4h6c0.67-1.33,1.33-2.67,2-4h6c1.78-1.2,3.04-5.9,5-7h5c1-1.33,2-2.67,3-4h5q3.495-4.005,7-8c3.47-1.8,10.32-1.82,13-4,1.75-1.43,3.11-5.9,5-7h5c1-1.33,2-2.67,3-4h5c1-1.33,2-2.67,3-4h5c0.33-1,.67-2,1-3h6c0.67-1.33,1.33-2.67,2-4h6c2.2-1.48,3.56-6.69,6-8h5q3-3.495,6-7h5c1-1.33,2-2.67,3-4h5c1.89-1.1,3.25-5.58,5-7,1.78-1.45,4.84.34,7-1,0.33-1,.67-2,1-3h5c1-1.33,2-2.67,3-4h5q3.495-4.005,7-8h9c1.97-1.02,3.13-5.94,5-7h6c0.77-.5.97-3.47,2-4h5q3.495-4.005,7-8h5c2.24-1.16,3.11-5.72,5-7h6c0.67-1.33,1.33-2.67,2-4h6c3.46-1.88,10.03-9.47,13-11h5c1-1.33,2-2.67,3-4h5c1.02-.53,1.23-3.5,2-4h6c1.89-1.07,3.03-5.9,5-7,2.3-1.29,5.18.5,7-1,13.62-11.22,25.61-23.6,38-36q7.5-7.005,15-14v-5c1.57-2.79,9.32-6.5,11-9v-6c1.26-2.23,6.74-3.77,8-6v-6c0.49-.77,3.51-0.95,4-2-0.33-1.33-.67-2.67-1-4,1.33-1,2.67-2,4-3v-5c0.53-1.02,3.5-1.23,4-2v-6c1.33-.67,2.67-1.33,4-2v-6c1.33-.67,2.67-1.33,4-2v-6c0.48-.76,3.58-0.92,4-2q-0.495-6-1-12c1.33-.67,2.67-1.33,4-2v-9c1.33-1,2.67-2,4-3v-13c1.33-.67,2.67-1.33,4-2v-25c0.43-.71,3.54-1,4-2V665c0-21.389,4.17-64.449-4-78V566c-0.46-1-3.57-1.29-4-2V550c-0.44-.719-3.53-0.992-4-2V535c-1.33-.667-2.67-1.333-4-2-1.51-3.028,1.67-6.075,1-8-0.49-1.407-4.18-3.31-5-5,0.1-1.134,2.21-4.591,1-7-1.33-.667-2.67-1.333-4-2v-6c-1.33-.667-2.67-1.333-4-2v-6c-0.5-.77-3.46-0.977-4-2v-5c-0.62-1.146-3.4-1.493-4-3,0.33-1.333.67-2.667,1-4-1.09-2.44-6.73-3.753-8-6v-6c-1.24-2.2-6.8-3.784-8-6-1.58-2.917,2.18-3.305,0-6-3.14-3.881-12.73-8.776-15-13v-5c-0.9-1.737-18.23-19.057-20-20h-5c-2.1-1.45-.58-6.574-3-8h-5c-1.96-1.112-3.22-5.808-5-7h-6c-2.23-1.264-3.77-6.736-6-8h-6c-1.78-1.2-3.04-5.9-5-7h-5q-3.495-4-7-8h-5l-3-4h-5c-0.33-1-.67-2-1-3h-6c-2.23-1.258-3.77-6.738-6-8h-6c-0.77-.5-0.97-3.468-2-4-3.51-1.814-8.54-1.153-12-3-2.44-1.3-3.8-6.528-6-8h-6c-0.67-1.333-1.33-2.667-2-4h-6c-0.77-.5-0.97-3.466-2-4h-5l-6-7h-5l-3-4h-5c-0.67-1.333-1.33-2.667-2-4h-6c-1.79-1.166-3.17-5.937-5-7h-5l-3-4h-5l-3-4h-5c-1.95-1.1-3.23-5.815-5-7h-6c-0.67-1.333-1.33-2.667-2-4h-6c-0.77-.5-0.98-3.466-2-4h-5l-6-7h-5q-3.495-4-7-8h-9c-2.3-1.229-3.6-6.716-6-8-3.5-1.87-8.39-1.2-12-3l-3-4h-5c-2.14-1.15-3.15-5.483-5-7s-4.6.238-7-1c-0.33-1-.67-2-1-3h-5c-1.45-.654-1.87-3.381-3-4h-5q-3.5-4-7-8h-5c-2.24-1.162-3.11-5.724-5-7h-6c-1.03-.521-1.233-3.5-2-4h-6q-1-2-2-4h-6c-1.878-1.277-2.726-5.932-5-7h-9c-2.434-1.189-3.842-6.553-6-8h-6c-1.829-1.036-3.227-5.825-5-7h-5c-1.448-.656-1.869-3.385-3-4h-5l-3-4h-5l-7-8h-9c-1.717-1.094-3.081-6.021-5-7h-9l-3-4h-5q-1-2-2-4H881q-0.5-1.5-1-3h-9c-1-.465-1.291-3.572-2-4H848c-1-.462-1.289-3.571-2-4H833l-3-4H776ZM371,799c9,0.075,7.31,1.093,12,3h12c1.45,0.545,1.922,3.491,3,4h85l3-4c3.627-1.792,8.542-1.132,12-3l2-4h6l1-3c5.463-5.109,10.44-11.119,16-16,1.3-1.145,5.129-2.693,6-4v-6l4-2v-9l4-3V739l4-2c1.882-3.832-.428-22.925-1-26,0.847-2.006,4.406-3.074,5-5,0.776-2.516-1-17.9-1-23V566c0.451-.992,3.587-1.3,4-2V551c0.451-.99,3.588-1.3,4-2V535l4-2V520l3-1c2.176-2.964-.931-4.287,1-7l3-1v-9l4-3v-5l4-2v-6l4-2v-6c1.183-1.771,5.909-3.045,7-5v-5l4-3v-5c1.972-3.826,8.72-5.629,11-9v-6c1.633-2.885,8.909-8.354,12-10v-6c2.532-.074,3.716-0.12,5-1,8.009-3.518,14.958-13.152,18-22,9.212-.277,6.775-5.168,12-8h5l6-7h5l7-8h5c1.135-.622,1.547-3.342,3-4,3.323-1.5,10.638-2.05,13-4,1.8-1.483,2.882-5.961,5-7h9l3-4h5q0.5-1.5,1-3h9l3-4h13q1-2,2-4h21q1-2,2-4h24l3-4h30c1.457,0.57,1.9,3.461,3,4h17c7.087,0.077,6.379,2.372,10,4h16l3,4h9q0.5,1.5,1,3l10,1,2,3h9c1.048,0.5,1.232,3.5,2,4h6q1,2,2,4h6c0.776,0.5.944,3.5,2,4h9l6,7h5c2.436,1.318,3.686,6.678,6,8h6c0.776,0.507.962,3.472,2,4h6c2.36,1.612,6.221,9.5,9,11h5l23,24,9,8c-0.33,1.333-.67,2.667-1,4,1.3,2.878,10.61,7.577,12,10v6c1.94,3.563,9.07,5.573,11,9v6c1.33,0.667,2.67,1.333,4,2v6c0.51,0.774,3.46.973,4,2v5c0.62,1.149,3.42,1.477,4,3-0.33,1.333-.67,2.667-1,4,0.45,1.072,3.51,1.236,4,2v6c1.33,0.667,2.67,1.333,4,2v9c1.33,1,2.67,2,4,3v9c1.33,0.667,2.67,1.333,4,2q-0.495,6-1,12c0.44,1.106,3.48,1.216,4,2,2.32,3.523-2.05,7.709,0,13,0.57,1.458,3.46,1.9,4,3v24c0.47,1,3.57,1.284,4,2V726c1.33,0.667,2.67,1.333,4,2v17c0.49,0.994,3.31,1.771,4,3-0.06,1.083-2.02,2.015-1,4,1.33,0.667,2.67,1.333,4,2v9c1.33,1,2.67,2,4,3v5c2.38,4.583,12.36,9.036,15,13,0.82,1.225.71,6.18,1,7,7.74,0.563,10.81,5.71,16,8h9c0.33,1,.67,2,1,3,2.45,1.222,5.07-.43,7,1,0.33,1,.67,2,1,3h74c1.07-.5,1.55-3.46,3-4h16c0.33-1,.67-2,1-3h10c2.76,8.347,1,22.824,1,33v68h-2c-1.84,1.164-6.69-.4-9,1-0.72.436-1,3.532-2,4h-9c-18.38,7.677-36.45,7-63,7h-31l-3-4h-13c-0.33-1-.67-2-1-3h-9c-1.05-.5-1.23-3.507-2-4h-6c-0.67-1.333-1.33-2.667-2-4h-9l-3-4h-5l-3-4h-5c-0.33-1-.67-2-1-3h-6c-2.23-1.256-3.77-6.737-6-8h-6c-4.13-2.78-8.35-12.588-13-15h-5c-1.63-.842-19.159-18.375-20-20v-5c-2.013-3.889-8.254-5.758-11-9-1.962-2.316-4.012-13.766-5-15-1.386-1.731-5.945-3.127-7-5v-6c-0.5-.767-3.471-0.976-4-2v-5l-4-3q0.5-3.5,1-7c-0.49-1.514-3.462-1.894-4-3v-9l-4-3v-9l-4-2V739l-4-2V628c0-8.49,2.09-26.218,0-31-1.567-3.356-3.073-2.544-4-7,1.39-2.136,2.693-16.326,1-20-0.456-.99-3.585-1.3-4-2V558l-4-2v-9l-4-3v-9c-0.537-1.1-3.438-1.538-4-3-0.438-1.139,1.686-2.955,0-5-1.477-1.791-5.87-2.935-7-5v-6c-2.525-3.705-9.94-5.759-12-10-0.421-.867,1.964-1.969,1-4-0.137-.289-12.633-12.812-13-13h-5l-10-11h-5c-1.019-.521-1.241-3.514-2-4h-6q-1-2-2-4h-6c-0.753-.477-0.957-3.522-2-4h-9q-0.5-1.5-1-3h-6c-0.969-.474-1.309-3.589-2-4H764c-0.7.414-1.01,3.546-2,4h-9l-2,3H739l-3,4h-5l-3,4h-5c-1.947,1.082-3.235,5.834-5,7h-6c-4.705,2.446-12.753,14.751-17,19-3.164,3.166-13.21,9.583-15,13-1.563,2.983,2,3.158,0,6l-3,1v5l-8,7v5c-0.607,1.14-3.418,1.493-4,3v9c-0.41.7-3.609,0.972-4,2q0.5,6,1,12c-0.442,1-3.589,1.3-4,2v13l-4,3v43c-6.692,3.812-4,20.945-4,31v90c-8.781,5.543-.4,11.289-3,18-0.572,1.478-4.169,2.346-5,4,0.367,3.027,2.271,9.872,0,13l-3,1v9l-4,2v6l-4,2v6c-0.488.763-3.512,0.952-4,2q0.5,2,1,4l-4,3v5c-0.527,1.024-3.5,1.234-4,2v6l-3,1q-0.5,1.5-1,3c-2.592,3.011-9.115,5.641-11,9-2.061,3.672.233,6.483-4,10-2.536,2.107-5.08.059-7,3a32.152,32.152,0,0,0-1,5c-11.806.5-11.567,10.829-19,15h-5c-2.692,1.389-4.442,6.634-7,8h-5l-6,7h-9c-1.046.486-1.24,3.515-2,4h-6q-1,2-2,4h-5l-3,4h-9c-1.09.527-1.54,3.447-3,4H496l-1,3H474c-0.992.449-1.305,3.588-2,4H417c-3.681-6.771-23.814-4.295-34-4-2.376-3.251-7.348-3.191-12-4V799Zm382-57h96c5.228,7.738,5.226,11.337,5,25,8.6,6.227-.446,12.527,4,20,0.415,0.7,3.545,1.009,4,2v9c0.528,1.1,3.48,1.514,4,3,1.385,3.953-2.432,5.54,0,9l3,1v9c0.456,0.992,3.583,1.3,4,2v10l4,2v9c0.518,1.069,3.392,1.6,4,3v5l3,1v6l4,2v6c0.488,0.76,3.477.98,4,2v5l4,3v5c1.539,2.767,9.356,6.524,11,9v6l4,2v6c1.651,2.481,9.454,6.228,11,9v5l24,23,8,9h5c2.771,1.543,6.521,9.35,9,11h6c2.217,1.242,3.781,6.765,6,8,3.314,1.844,8.512,1.211,12,3l7,8h5l3,4h9c0.7,0.426,1.03,3.508,2,4,3.69,1.87,8.25,1.173,12,3l3,4h13c0.7,0.412,1.01,3.548,2,4h9c1,1.33,2,2.67,3,4h12c0.67,1,1.33,2,2,3h13c0.67,1.33,1.33,2.67,2,4h28c1,1.33,2,2.67,3,4h111c4.08,12.26,1.07,47.3,1,63-5.8,3.08-4.34,14.24-4,23,3.08,1.04,2.92.97,4,4-2.54,1.29-2.87,1.1-4,4,3.39,0.95,3.11.39,4,4-2.84.99-3.09,3.17-5,4h-13c-0.67,1.33-1.33,2.67-2,4h-45c-3.38.55-2.87,3.09-5,4h-15c-1-1.33-2-2.67-3-4h-47c-3.47-6.44-20.31-4.31-30-4-5.73-7.89-9.27.01-16-4-0.7-.42-1-3.55-2-4h-13c-0.33-1-.67-2-1-3h-9c-1-1.33-2-2.67-3-4h-13c-0.67-1.33-1.33-2.67-2-4h-6c-0.76-.49-0.95-3.52-2-4-3.775-1.74-11.827-.87-16-3-1.016-.52-1.245-3.52-2-4h-6c-0.667-1.33-1.333-2.67-2-4h-5c-1-1.33-2-2.67-3-4h-5c-1-1.33-2-2.67-3-4-3.62-1.79-8.546-1.13-12-3-0.667-1.33-1.333-2.67-2-4h-6c-2.2-1.47-3.564-6.7-6-8h-5q-3-3.495-6-7h-5c-1-1.33-2-2.67-3-4-1.744-.83-4.822-0.56-6-1,0.029-3.9.5-4.5-2-6-1.158-.82-3.329-0.07-5-1-1.95-1.09-3.118-5.96-5-7h-6c-0.667-1.33-1.333-2.67-2-4a189.594,189.594,0,0,1-18-18c-1.8-2.13-4.987-3.04-7-5-8.418-8.18-15.422-17.986-24-26-4.316-4.032-10.16-7.567-14-12q-0.5-1.5-1-3l-3-1v-6c-1.908-3.423-9.07-5.444-11-9v-6c-1.929-2.816-6.129-3.785-11-4-0.647,2.155.724,4.86-1,7-2.649,3.288-8.991,5.112-11,9v5l-15,14c-0.832,1.667-.58,4.874-1,6a16.987,16.987,0,0,0-6,1c-0.68,2.126.745,3,0,5-0.853,2.29-6.222,4.25-8,6-5.6,5.511-13.577,18.38-20,22h-5c-1.761,1.05-1.706,8.59-6,11h-5l-14,15h-5c-2.513,1.34-3.952,6.01-6,8-3.111,3.03-6.241,1.91-10,4-1.949,1.08-3.234,5.83-5,7h-6c-2.219,1.24-3.78,6.76-6,8h-6c-0.761.49-.977,3.48-2,4-3.623,1.84-8.377,1.16-12,3-1.018.52-1.244,3.52-2,4h-6c-0.667,1.33-1.333,2.67-2,4h-6c-0.759.48-.952,3.52-2,4h-9c-1,1.33-2,2.67-3,4h-5q-0.5,1.5-1,3h-6c-0.667,1.33-1.333,2.67-2,4h-9c-1,1.33-2,2.67-3,4h-9c-0.667,1.33-1.333,2.67-2,4H568l-2,3H554c-1,1.33-2,2.67-3,4H538c-0.667,1.33-1.333,2.67-2,4H508c-1,1.33-2,2.67-3,4H477c-0.692.41-1.009,3.56-2,4H418c-1-1.33-2-2.67-3-4H380c-1.651-2.43-3.693-3.22-5-6-3.074-4.89-1-19-1-26,0-23.53-3.265-52.4,1-74H483c3.475-6.44,20.314-4.31,30-4,5.671-7.92,8.936-.08,16-4q0.5-1.5,1-3h13c1.052-.49,1.236-3.51,2-4h10c0.714-.434,1.006-3.523,2-4h9l3-4h9q0.5-1.5,1-3h9l7-8h9c1.829-.961,3.339-5.63,5-7,2.631-2.17,9.539-2.225,13-4l7-8h5l10-11h5c5.357-3.072,19.208-20.491,24-26,2.738-3.148,8.978-5.352,11-9v-6c2.473-3.682,10.034-5.76,12-10q-0.5-2-1-4c1.132-2.692,6.453-3.8,8-6v-6l4-2v-6l4-2v-6c1.173-1.772,5.9-3.052,7-5v-5l4-3v-9l4-2V833c0.428-.71,3.535-1,4-2q-0.5-2-1-4c0.45-1.068,3.517-1.241,4-2V815l4-2v-9l4-3v-9l4-2c1.746-3.382-.358-12.909-1-15,0.876-1.969,4.418-3.094,5-5,0.876-2.87-3.016-10.613-1-15,0.483-1.05,3.514-1.239,4-2C753.315,750.941,752.416,743.648,753,742Z"/>
</svg>
