<?xml version="1.0" encoding="UTF-8"?>
<!DOCTYPE svg PUBLIC "-//W3C//DTD SVG 1.1//EN" "http://www.w3.org/Graphics/SVG/1.1/DTD/svg11.dtd">
<!-- Creator: CorelDRAW -->
<svg xmlns="http://www.w3.org/2000/svg" xml:space="preserve" width="200px" height="100px" version="1.1" style="shape-rendering:geometricPrecision; text-rendering:geometricPrecision; image-rendering:optimizeQuality; fill-rule:evenodd; clip-rule:evenodd"
viewBox="0 0 5.53 2.77"
 xmlns:xlink="http://www.w3.org/1999/xlink"
 xmlns:xodm="http://www.corel.com/coreldraw/odm/2003">
 <defs>
  <style type="text/css">
   <![CDATA[
    .fil0 {fill:none}
    .fil1 {fill:black;fill-rule:nonzero}
    .fil4 {fill:#1A1A1A;fill-rule:nonzero}
    .fil2 {fill:#C75100;fill-rule:nonzero}
    .fil3 {fill:#FF7900;fill-rule:nonzero}
   ]]>
  </style>
 </defs>
 <g id="Layer_x0020_1">
  <metadata id="CorelCorpID_0Corel-Layer"/>
  <rect class="fil0" width="5.53" height="2.77"/>
  <g id="_2102336023936">
   <path class="fil1" d="M1.69 0.93l0.05 0 0 0.57 -0.05 0 0 -0.57zm2.4 0.65l0.02 0 0 0.06 0.03 0 0 0.01 -0.03 0 0 0.14 -0.02 0 0 -0.14 -0.03 0 0 -0.01 0.03 0 0 -0.06zm0.2 0.16l0.02 0.01c-0.01,0.01 -0.01,0.02 -0.02,0.02 -0.01,0.01 -0.01,0.01 -0.02,0.02 -0.01,0 -0.02,0 -0.03,0 -0.03,0 -0.05,-0.01 -0.06,-0.02 -0.01,-0.02 -0.02,-0.04 -0.02,-0.06 0,-0.02 0.01,-0.03 0.02,-0.05 0.01,-0.02 0.03,-0.03 0.06,-0.03 0.02,0 0.04,0.01 0.06,0.03 0.01,0.02 0.01,0.03 0.01,0.05l-0.13 0c0,0.02 0.01,0.04 0.02,0.05 0.01,0.01 0.02,0.01 0.04,0.01 0,0 0.01,0 0.02,0 0.01,0 0.01,-0.01 0.02,-0.01 0,-0.01 0.01,-0.01 0.01,-0.02zm0 -0.04c0,-0.01 0,-0.02 -0.01,-0.03 0,0 -0.01,-0.01 -0.02,-0.01 -0.01,-0.01 -0.01,-0.01 -0.02,-0.01 -0.02,0 -0.03,0.01 -0.04,0.02 -0.01,0 -0.01,0.01 -0.02,0.03l0.11 0zm0.21 -0.03l-0.02 0.01c-0.01,-0.02 -0.03,-0.03 -0.05,-0.03 -0.02,0 -0.04,0.01 -0.05,0.02 -0.01,0.01 -0.02,0.03 -0.02,0.04 0,0.01 0.01,0.02 0.01,0.03 0.01,0.01 0.01,0.02 0.02,0.03 0.01,0 0.02,0 0.04,0 0.02,0 0.04,-0.01 0.05,-0.02l0.02 0.01c-0.01,0.01 -0.02,0.02 -0.03,0.02 -0.01,0.01 -0.03,0.01 -0.04,0.01 -0.03,0 -0.05,-0.01 -0.06,-0.02 -0.02,-0.02 -0.03,-0.03 -0.03,-0.06 0,-0.01 0.01,-0.02 0.01,-0.04 0.01,-0.01 0.02,-0.02 0.03,-0.03 0.02,0 0.03,-0.01 0.05,-0.01 0.01,0 0.02,0 0.03,0.01 0.01,0 0.01,0 0.02,0.01 0.01,0 0.01,0.01 0.02,0.02zm0.03 -0.03l0.02 0 0 0.02c0.01,-0.01 0.02,-0.01 0.03,-0.02 0.01,0 0.02,-0.01 0.03,-0.01 0.01,0 0.02,0.01 0.03,0.01 0.01,0.01 0.01,0.02 0.02,0.02 0,0.01 0.01,0.03 0.01,0.05l0 0.08 -0.02 0 0 -0.07c0,-0.02 0,-0.03 -0.01,-0.04 0,-0.01 0,-0.02 -0.01,-0.02 -0.01,-0.01 -0.01,-0.01 -0.02,-0.01 -0.02,0 -0.03,0.01 -0.04,0.01 -0.01,0.01 -0.01,0.02 -0.01,0.03 -0.01,0.01 -0.01,0.02 -0.01,0.04l0 0.06 -0.02 0 0 -0.15zm0.25 -0.01c0.02,0 0.04,0.01 0.06,0.03 0.01,0.01 0.02,0.03 0.02,0.05 0,0.02 -0.01,0.04 -0.03,0.06 -0.01,0.01 -0.03,0.02 -0.05,0.02 -0.03,0 -0.04,-0.01 -0.06,-0.02 -0.01,-0.02 -0.02,-0.04 -0.02,-0.06 0,-0.02 0.01,-0.04 0.02,-0.05 0.02,-0.02 0.03,-0.03 0.06,-0.03zm0 0.02c-0.02,0 -0.03,0.01 -0.04,0.02 -0.02,0.01 -0.02,0.03 -0.02,0.04 0,0.01 0,0.02 0.01,0.03 0,0.01 0.01,0.02 0.02,0.03 0.01,0 0.02,0 0.03,0 0.01,0 0.02,0 0.03,0 0.01,-0.01 0.01,-0.02 0.02,-0.03 0,-0.01 0.01,-0.02 0.01,-0.03 0,-0.01 -0.01,-0.03 -0.02,-0.04 -0.01,-0.01 -0.03,-0.02 -0.04,-0.02zm0.11 -0.07l0.02 0 0 0.21 -0.02 0 0 -0.21zm0.13 0.05c0.02,0 0.04,0.01 0.06,0.03 0.01,0.01 0.02,0.03 0.02,0.05 0,0.02 -0.01,0.04 -0.02,0.06 -0.02,0.01 -0.04,0.02 -0.06,0.02 -0.02,0 -0.04,-0.01 -0.06,-0.02 -0.01,-0.02 -0.02,-0.04 -0.02,-0.06 0,-0.02 0.01,-0.04 0.02,-0.05 0.02,-0.02 0.04,-0.03 0.06,-0.03zm0 0.02c-0.02,0 -0.03,0.01 -0.04,0.02 -0.01,0.01 -0.02,0.03 -0.02,0.04 0,0.01 0,0.02 0.01,0.03 0,0.01 0.01,0.02 0.02,0.03 0.01,0 0.02,0 0.03,0 0.01,0 0.02,0 0.03,0 0.01,-0.01 0.02,-0.02 0.02,-0.03 0.01,-0.01 0.01,-0.02 0.01,-0.03 0,-0.01 -0.01,-0.03 -0.02,-0.04 -0.01,-0.01 -0.02,-0.02 -0.04,-0.02zm0.24 -0.01l0.02 0 0 0.12c0,0.02 0,0.03 0,0.04 -0.01,0.02 -0.02,0.03 -0.03,0.03 -0.01,0.01 -0.03,0.02 -0.04,0.02 -0.02,0 -0.03,-0.01 -0.04,-0.01 -0.01,0 -0.02,-0.01 -0.02,-0.01 -0.01,-0.01 -0.02,-0.02 -0.02,-0.03l0.02 0c0.01,0.01 0.01,0.02 0.02,0.02 0.01,0.01 0.02,0.01 0.04,0.01 0.01,0 0.02,0 0.03,-0.01 0.01,0 0.01,-0.01 0.02,-0.02 0,0 0,-0.02 0,-0.03l0 -0.01c0,0.01 -0.01,0.02 -0.02,0.02 -0.01,0 -0.02,0.01 -0.04,0.01 -0.01,0 -0.02,-0.01 -0.04,-0.01 -0.01,-0.01 -0.02,-0.02 -0.02,-0.03 -0.01,-0.01 -0.01,-0.02 -0.01,-0.04 0,-0.01 0,-0.03 0.01,-0.04 0,-0.01 0.01,-0.02 0.03,-0.03 0.01,0 0.02,-0.01 0.03,-0.01 0.02,0 0.03,0.01 0.04,0.01 0.01,0 0.01,0.01 0.02,0.02l0 -0.02zm-0.05 0.01c-0.01,0 -0.02,0 -0.03,0.01 -0.01,0.01 -0.02,0.01 -0.03,0.02 0,0.01 0,0.02 0,0.03 0,0.02 0,0.03 0.01,0.04 0.01,0.01 0.03,0.02 0.05,0.02 0.01,0 0.03,-0.01 0.04,-0.02 0.01,-0.01 0.01,-0.02 0.01,-0.04 0,-0.01 0,-0.02 0,-0.03 -0.01,-0.01 -0.01,-0.02 -0.02,-0.02 -0.01,-0.01 -0.02,-0.01 -0.03,-0.01zm0.12 -0.07c0.01,0 0.01,0 0.01,0 0.01,0 0.01,0.01 0.01,0.01 0,0.01 0,0.01 -0.01,0.01 0,0.01 0,0.01 -0.01,0.01 0,0 -0.01,0 -0.01,-0.01 0,0 0,0 0,-0.01 0,0 0,-0.01 0,-0.01 0,0 0.01,0 0.01,0zm-0.01 0.06l0.02 0 0 0.15 -0.02 0 0 -0.15zm0.21 0l0 0.15 -0.02 0 0 -0.03c-0.01,0.01 -0.02,0.02 -0.03,0.02 -0.01,0.01 -0.02,0.01 -0.03,0.01 -0.02,0 -0.04,-0.01 -0.05,-0.02 -0.02,-0.02 -0.03,-0.04 -0.03,-0.06 0,-0.02 0.01,-0.04 0.03,-0.05 0.01,-0.02 0.03,-0.03 0.05,-0.03 0.01,0 0.03,0.01 0.04,0.01 0.01,0.01 0.01,0.01 0.02,0.02l0 -0.02 0.02 0zm-0.08 0.01c-0.01,0 -0.02,0 -0.03,0.01 -0.01,0.01 -0.01,0.01 -0.02,0.02 0,0.01 -0.01,0.02 -0.01,0.03 0,0.01 0.01,0.02 0.01,0.03 0.01,0.01 0.01,0.02 0.02,0.03 0.01,0 0.02,0 0.03,0 0.01,0 0.02,0 0.03,0 0.01,-0.01 0.02,-0.02 0.03,-0.03 0,-0.01 0,-0.02 0,-0.03 0,-0.01 0,-0.03 -0.01,-0.04 -0.02,-0.01 -0.03,-0.02 -0.05,-0.02zm-3.6 -0.15l0.07 -0.57 0.02 0 0.23 0.47 0.22 -0.47 0.01 0 0.08 0.57 -0.05 0 -0.06 -0.41 -0.2 0.41 -0.01 0 -0.2 -0.41 -0.06 0.41 -0.05 0zm0.97 -0.57l0.26 0.57 -0.06 0 -0.09 -0.19 -0.24 0 -0.09 0.19 -0.06 0 0.27 -0.57 0.01 0zm-0.01 0.12l-0.09 0.21 0.19 0 -0.1 -0.21zm0.9 -0.02l-0.04 0.04c-0.03,-0.03 -0.07,-0.05 -0.1,-0.07 -0.04,-0.02 -0.08,-0.02 -0.11,-0.02 -0.05,0 -0.09,0.01 -0.13,0.03 -0.04,0.02 -0.07,0.05 -0.09,0.09 -0.02,0.03 -0.04,0.07 -0.04,0.12 0,0.04 0.02,0.08 0.04,0.12 0.02,0.04 0.05,0.07 0.09,0.09 0.04,0.02 0.09,0.03 0.13,0.03 0.06,0 0.11,-0.02 0.15,-0.05 0.04,-0.03 0.06,-0.07 0.07,-0.13l-0.18 0 0 -0.05 0.25 0c0,0.09 -0.03,0.16 -0.08,0.21 -0.05,0.05 -0.12,0.07 -0.21,0.07 -0.1,0 -0.18,-0.03 -0.24,-0.1 -0.05,-0.06 -0.07,-0.12 -0.07,-0.19 0,-0.06 0.01,-0.11 0.04,-0.15 0.02,-0.05 0.06,-0.09 0.11,-0.11 0.04,-0.03 0.1,-0.04 0.15,-0.04 0.05,0 0.1,0.01 0.14,0.03 0.04,0.01 0.08,0.04 0.12,0.08zm0.14 -0.1l0.32 0 0 0.06 -0.26 0 0 0.18 0.26 0 0 0.05 -0.26 0 0 0.23 0.26 0 0 0.05 -0.32 0 0 -0.57zm0.42 0.57l0 -0.57 0.01 0 0.38 0.44 0 -0.44 0.06 0 0 0.57 -0.02 0 -0.37 -0.43 0 0.43 -0.06 0zm0.58 -0.57l0.32 0 0 0.06 -0.26 0 0 0.18 0.26 0 0 0.05 -0.26 0 0 0.23 0.26 0 0 0.05 -0.32 0 0 -0.57zm0.37 0.06l0 -0.06 0.3 0 0 0.06 -0.12 0 0 0.51 -0.06 0 0 -0.51 -0.12 0z"/>
   <g>
    <polygon class="fil2" points="0.23,1.45 0.33,0.97 0.17,0.94 0,1.4 0,1.4 "/>
    <polygon class="fil3" points="0.18,1.63 0.94,1.98 0.94,1.98 1.04,1.6 0,1.4 "/>
    <polygon class="fil3" points="0.32,1.04 0.29,1.04 0.26,1.1 0.3,1.15 0.32,1.16 0.35,1.14 "/>
    <polygon class="fil2" points="1.17,1.1 0.94,1.98 1.56,1.88 1.52,1.15 1.52,1.15 1.17,1.1 "/>
    <polygon class="fil3" points="1.49,0.8 1.52,1.15 0.33,0.97 0.17,0.94 0.2,0.84 "/>
    <polygon class="fil1" points="0.78,0.84 0.8,1.11 0.75,1.13 0.68,0.87 0.66,0.79 0.66,0.79 "/>
    <polygon class="fil4" points="0.76,1.18 0.33,1.31 0.29,1.23 0.8,1.11 "/>
    <polygon class="fil1" points="0.21,1 0.33,1.31 0.16,1.26 0.06,1.04 0.06,1.04 0.06,1.04 "/>
    <polygon class="fil4" points="0.06,1.04 0.15,0.84 0.66,0.79 0.66,0.79 0.68,0.87 "/>
   </g>
  </g>
 </g>
</svg>
