<?xml version="1.0" encoding="UTF-8"?>
<!DOCTYPE svg PUBLIC "-//W3C//DTD SVG 1.1//EN" "http://www.w3.org/Graphics/SVG/1.1/DTD/svg11.dtd">
<svg xmlns="http://www.w3.org/2000/svg" version="1.1" width="1700px" height="447px" style="shape-rendering:geometricPrecision; text-rendering:geometricPrecision; image-rendering:optimizeQuality; fill-rule:evenodd; clip-rule:evenodd" xmlns:xlink="http://www.w3.org/1999/xlink">
<g><path style="opacity:0.978" fill="#219fff" d="M 219.5,1.5 C 206.167,14.1667 192.833,26.8333 179.5,39.5C 138.737,61.3805 98.7368,84.5472 59.5,109C 42.2037,125.369 33.5371,145.535 33.5,169.5C 22.5372,178.461 11.8705,187.794 1.5,197.5C 1.22528,180.805 1.55861,164.139 2.5,147.5C 49.768,106.569 96.4346,64.902 142.5,22.5C 165.394,6.0227 191.061,-0.977304 219.5,1.5 Z"/></g>
<g><path style="opacity:0.973" fill="#2898ff" d="M 219.5,1.5 C 234.588,3.19583 248.588,7.86249 261.5,15.5C 253.25,23.6271 244.583,31.2937 235.5,38.5C 216.651,31.5156 197.984,31.8489 179.5,39.5C 192.833,26.8333 206.167,14.1667 219.5,1.5 Z"/></g>
<g><path style="opacity:0.968" fill="#2d92ff" d="M 261.5,15.5 C 270.202,20.5151 278.869,25.5151 287.5,30.5C 278.841,37.8267 270.507,45.4934 262.5,53.5C 253.304,48.738 244.304,43.738 235.5,38.5C 244.583,31.2937 253.25,23.6271 261.5,15.5 Z"/></g>
<g><path style="opacity:0.965" fill="#1da4ff" d="M 142.5,22.5 C 96.4346,64.902 49.768,106.569 2.5,147.5C 10.3959,110.21 31.3959,83.0435 65.5,66C 91.2213,51.4761 116.888,36.9761 142.5,22.5 Z"/></g>
<g><path style="opacity:0.969" fill="#328cff" d="M 287.5,30.5 C 295.329,34.5801 302.996,38.9135 310.5,43.5C 302.493,51.5066 294.159,59.1733 285.5,66.5C 277.572,62.5589 269.905,58.2256 262.5,53.5C 270.507,45.4934 278.841,37.8267 287.5,30.5 Z"/></g>
<g><path style="opacity:0.969" fill="#3786ff" d="M 310.5,43.5 C 318.5,48.1667 326.5,52.8333 334.5,57.5C 325.867,64.7985 317.533,72.4651 309.5,80.5C 301.164,76.3347 293.164,71.668 285.5,66.5C 294.159,59.1733 302.493,51.5066 310.5,43.5 Z"/></g>
<g><path style="opacity:0.968" fill="#3c81ff" d="M 334.5,57.5 C 340.87,60.679 346.87,64.3457 352.5,68.5C 343.841,75.8267 335.507,83.4934 327.5,91.5C 321.464,87.819 315.464,84.1523 309.5,80.5C 317.533,72.4651 325.867,64.7985 334.5,57.5 Z"/></g>
<g><path style="opacity:0.972" fill="#3f7dff" d="M 352.5,68.5 C 355.76,69.7738 358.76,71.4405 361.5,73.5C 352.867,80.7985 344.533,88.4651 336.5,96.5C 333.661,94.5797 330.661,92.9131 327.5,91.5C 335.507,83.4934 343.841,75.8267 352.5,68.5 Z"/></g>
<g><path style="opacity:0.968" fill="#4279ff" d="M 361.5,73.5 C 368.064,77.0659 374.064,81.3993 379.5,86.5C 371.8,94.2019 363.8,101.535 355.5,108.5C 349.335,104.25 343.002,100.25 336.5,96.5C 344.533,88.4651 352.867,80.7985 361.5,73.5 Z"/></g>
<g><path style="opacity:0.983" fill="#2e91ff" d="M 221.5,88.5 C 191.137,116.198 160.47,143.531 129.5,170.5C 130.984,119.855 156.817,91.8547 207,86.5C 211.906,87.0054 216.739,87.6721 221.5,88.5 Z"/></g>
<g><path style="opacity:0.964" fill="#4773ff" d="M 379.5,86.5 C 384.843,91.8443 389.843,97.511 394.5,103.5C 386.459,110.876 378.126,117.876 369.5,124.5C 365.235,118.896 360.568,113.563 355.5,108.5C 363.8,101.535 371.8,94.2019 379.5,86.5 Z"/></g>
<g><path style="opacity:0.975" fill="#328cff" d="M 221.5,88.5 C 231.471,90.0458 240.804,93.3791 249.5,98.5C 240.833,106.5 232.167,114.5 223.5,122.5C 182.279,116.493 162.279,134.493 163.5,176.5C 151.833,186.5 140.167,196.5 128.5,206.5C 130.556,194.496 130.89,182.496 129.5,170.5C 160.47,143.531 191.137,116.198 221.5,88.5 Z"/></g>
<g><path style="opacity:0.969" fill="#3787ff" d="M 249.5,98.5 C 257.142,103.143 263.476,109.143 268.5,116.5C 260.192,123.804 251.859,131.138 243.5,138.5C 238.701,130.775 232.034,125.442 223.5,122.5C 232.167,114.5 240.833,106.5 249.5,98.5 Z"/></g>
<g><path style="opacity:0.965" fill="#4c6cff" d="M 394.5,103.5 C 398.714,109.378 402.047,115.711 404.5,122.5C 396.167,130.5 387.833,138.5 379.5,146.5C 376.736,138.967 373.402,131.634 369.5,124.5C 378.126,117.876 386.459,110.876 394.5,103.5 Z"/></g>
<g><path style="opacity:0.968" fill="#3c81ff" d="M 268.5,116.5 C 273.314,121.336 276.981,127.002 279.5,133.5C 269.84,141.827 260.506,150.494 251.5,159.5C 250.035,152.115 247.369,145.115 243.5,138.5C 251.859,131.138 260.192,123.804 268.5,116.5 Z"/></g>
<g><path style="opacity:0.971" fill="#5067ff" d="M 404.5,122.5 C 407.668,127.667 409.668,133.334 410.5,139.5C 401.109,148.23 391.442,156.563 381.5,164.5C 381.269,158.448 380.602,152.448 379.5,146.5C 387.833,138.5 396.167,130.5 404.5,122.5 Z"/></g>
<g><path style="opacity:0.973" fill="#3f7dff" d="M 279.5,133.5 C 280.703,137.11 281.703,140.777 282.5,144.5C 272.462,153.873 262.129,162.873 251.5,171.5C 251.5,167.5 251.5,163.5 251.5,159.5C 260.506,150.494 269.84,141.827 279.5,133.5 Z"/></g>
<g><path style="opacity:0.97" fill="#5560ff" d="M 410.5,139.5 C 412.771,147.212 414.105,155.212 414.5,163.5C 403.519,172.81 392.519,182.144 381.5,191.5C 381.5,182.5 381.5,173.5 381.5,164.5C 391.442,156.563 401.109,148.23 410.5,139.5 Z"/></g>
<g><path style="opacity:0.439" fill="#bfb6ff" d="M 510.5,142.5 C 510.5,198.5 510.5,254.5 510.5,310.5C 521.833,310.5 533.167,310.5 544.5,310.5C 544.833,310.5 545.167,310.5 545.5,310.5C 533.678,311.495 521.678,311.828 509.5,311.5C 509.168,254.998 509.501,198.664 510.5,142.5 Z"/></g>
<g><path style="opacity:1" fill="#fdfdff" d="M 510.5,142.5 C 528.167,142.5 545.833,142.5 563.5,142.5C 575.828,180.65 588.661,218.65 602,256.5C 614.068,218.797 626.234,181.13 638.5,143.5C 656.154,142.5 673.821,142.167 691.5,142.5C 691.5,198.833 691.5,255.167 691.5,311.5C 679.833,311.5 668.167,311.5 656.5,311.5C 656.667,272.499 656.5,233.499 656,194.5C 642.469,232.758 629.136,271.092 616,309.5C 611.25,310.804 606.25,311.47 601,311.5C 595.92,311.488 590.92,311.154 586,310.5C 572.526,272.577 559.359,234.577 546.5,196.5C 546.688,194.897 546.188,193.563 545,192.5C 544.5,231.832 544.333,271.165 544.5,310.5C 533.167,310.5 521.833,310.5 510.5,310.5C 510.5,254.5 510.5,198.5 510.5,142.5 Z"/></g>
<g><path style="opacity:1" fill="#fefffe" d="M 1107.5,142.5 C 1153.17,142.5 1198.83,142.5 1244.5,142.5C 1244.5,152.833 1244.5,163.167 1244.5,173.5C 1227.5,173.5 1210.5,173.5 1193.5,173.5C 1193.5,219.167 1193.5,264.833 1193.5,310.5C 1181.5,310.5 1169.5,310.5 1157.5,310.5C 1157.5,264.833 1157.5,219.167 1157.5,173.5C 1140.83,173.5 1124.17,173.5 1107.5,173.5C 1107.5,163.167 1107.5,152.833 1107.5,142.5 Z"/></g>
<g><path style="opacity:1" fill="#fdfeff" d="M 1395.5,142.5 C 1406.83,142.5 1418.17,142.5 1429.5,142.5C 1429.5,198.833 1429.5,255.167 1429.5,311.5C 1418.17,311.5 1406.83,311.5 1395.5,311.5C 1395.5,255.167 1395.5,198.833 1395.5,142.5 Z"/></g>
<g><path style="opacity:1" fill="#fcfdff" d="M 1491.5,142.5 C 1491.17,172.507 1491.5,202.507 1492.5,232.5C 1494.61,231.395 1495.94,229.729 1496.5,227.5C 1502.17,221.167 1508.17,215.167 1514.5,209.5C 1517.57,207.431 1519.91,204.764 1521.5,201.5C 1525.17,197.167 1529.17,193.167 1533.5,189.5C 1546.68,189.171 1559.68,189.505 1572.5,190.5C 1558.34,205.494 1543.67,219.994 1528.5,234C 1545.78,258.777 1562.45,283.944 1578.5,309.5C 1565.01,310.496 1551.34,310.829 1537.5,310.5C 1526.68,292.861 1515.84,275.195 1505,257.5C 1501.3,261.535 1497.3,265.202 1493,268.5C 1492.5,282.829 1492.33,297.163 1492.5,311.5C 1481.17,311.5 1469.83,311.5 1458.5,311.5C 1458.5,255.167 1458.5,198.833 1458.5,142.5C 1469.5,142.5 1480.5,142.5 1491.5,142.5 Z"/></g>
<g><path style="opacity:0.937" fill="#d4e9ff" d="M 1491.5,142.5 C 1492.33,171.664 1492.83,200.997 1493,230.5C 1494.04,229.29 1495.21,228.29 1496.5,227.5C 1495.94,229.729 1494.61,231.395 1492.5,232.5C 1491.5,202.507 1491.17,172.507 1491.5,142.5 Z"/></g>
<g><path style="opacity:0.964" fill="#4279ff" d="M 282.5,144.5 C 284.866,153.208 285.866,162.208 285.5,171.5C 274.203,180.794 263.203,190.461 252.5,200.5C 251.506,191.014 251.173,181.348 251.5,171.5C 262.129,162.873 272.462,153.873 282.5,144.5 Z"/></g>
<g><path style="opacity:0.963" fill="#5a5aff" d="M 414.5,163.5 C 414.5,170.5 414.5,177.5 414.5,184.5C 403.481,193.856 392.481,203.19 381.5,212.5C 381.5,205.5 381.5,198.5 381.5,191.5C 392.519,182.144 403.519,172.81 414.5,163.5 Z"/></g>
<g><path style="opacity:0.974" fill="#4773ff" d="M 285.5,171.5 C 285.218,181.219 285.551,190.886 286.5,200.5C 276.892,208.103 267.558,216.103 258.5,224.5C 254.624,216.998 252.624,208.998 252.5,200.5C 263.203,190.461 274.203,180.794 285.5,171.5 Z"/></g>
<g><path style="opacity:0.992" fill="#2898ff" d="M 33.5,169.5 C 33.5,186.5 33.5,203.5 33.5,220.5C 22.814,229.523 12.1473,238.523 1.5,247.5C 1.5,230.833 1.5,214.167 1.5,197.5C 11.8705,187.794 22.5372,178.461 33.5,169.5 Z"/></g>
<g><path style="opacity:0.753" fill="#bbd3ff" d="M 1107.5,142.5 C 1107.5,152.833 1107.5,163.167 1107.5,173.5C 1124.17,173.5 1140.83,173.5 1157.5,173.5C 1157.5,219.167 1157.5,264.833 1157.5,310.5C 1169.5,310.5 1181.5,310.5 1193.5,310.5C 1193.83,310.5 1194.17,310.5 1194.5,310.5C 1182.01,311.495 1169.34,311.829 1156.5,311.5C 1156.5,265.833 1156.5,220.167 1156.5,174.5C 1139.83,174.5 1123.17,174.5 1106.5,174.5C 1106.17,163.654 1106.51,152.987 1107.5,142.5 Z"/></g>
<g><path style="opacity:0.937" fill="#cde1ff" d="M 1244.5,173.5 C 1228.01,174.497 1211.34,174.83 1194.5,174.5C 1194.5,219.833 1194.5,265.167 1194.5,310.5C 1194.17,310.5 1193.83,310.5 1193.5,310.5C 1193.5,264.833 1193.5,219.167 1193.5,173.5C 1210.5,173.5 1227.5,173.5 1244.5,173.5 Z"/></g>
<g><path style="opacity:0.983" fill="#3687ff" d="M 163.5,176.5 C 163.5,184.5 163.5,192.5 163.5,200.5C 142.417,218.373 121.75,236.707 101.5,255.5C 94.4598,255.587 87.4598,255.087 80.5,254C 79.6634,252.989 79.33,251.822 79.5,250.5C 89.541,241.49 99.541,232.49 109.5,223.5C 113.801,222.343 117.801,220.51 121.5,218C 124.5,214.486 126.833,210.653 128.5,206.5C 140.167,196.5 151.833,186.5 163.5,176.5 Z"/></g>
<g><path style="opacity:1" fill="#fcfcff" d="M 832.5,308.5 C 821.884,310.477 810.884,311.144 799.5,310.5C 797.882,307.829 797.215,304.829 797.5,301.5C 797.214,299.067 796.548,299.067 795.5,301.5C 779.705,313.219 762.039,317.053 742.5,313C 736.667,311.906 731.667,309.406 727.5,305.5C 726.738,303.738 725.404,302.738 723.5,302.5C 715.814,293.281 712.981,282.614 715,270.5C 715.441,266 716.941,262 719.5,258.5C 720.906,258.027 721.573,257.027 721.5,255.5C 726.43,249.357 732.763,245.191 740.5,243C 756.926,240.406 773.259,237.406 789.5,234C 795.856,229.069 797.189,222.902 793.5,215.5C 792.833,212.833 791.167,211.167 788.5,210.5C 780.547,208.158 772.547,207.991 764.5,210C 757.512,212.79 753.512,217.957 752.5,225.5C 741.186,226.499 729.853,226.832 718.5,226.5C 720.272,205.886 731.272,193.053 751.5,188C 770.687,184.144 789.687,184.811 808.5,190C 819.512,193.68 826.346,201.18 829,212.5C 829.333,239.167 829.667,265.833 830,292.5C 830.361,297.924 831.195,303.257 832.5,308.5 Z M 794.5,252.5 C 795.486,256.97 795.819,261.637 795.5,266.5C 793.93,282.733 784.93,291.067 768.5,291.5C 764.869,290.648 761.202,289.981 757.5,289.5C 756.71,288.599 755.71,287.932 754.5,287.5C 753.5,286.833 752.5,286.167 751.5,285.5C 751.573,283.973 750.906,282.973 749.5,282.5C 747.117,269.027 752.784,261.194 766.5,259C 774.218,257.945 781.885,256.612 789.5,255C 791.491,254.626 793.158,253.793 794.5,252.5 Z"/></g>
<g><path style="opacity:1" fill="#fdfdff" d="M 929.5,218.5 C 929.5,216.5 928.5,215.5 926.5,215.5C 900.77,208.365 888.27,218.365 889,245.5C 888.5,267.164 888.333,288.831 888.5,310.5C 877.5,310.5 866.5,310.5 855.5,310.5C 855.5,270.167 855.5,229.833 855.5,189.5C 865.833,189.5 876.167,189.5 886.5,189.5C 886.172,194.875 886.505,200.208 887.5,205.5C 888.919,204.995 889.585,203.995 889.5,202.5C 889.5,201.833 889.833,201.5 890.5,201.5C 892.833,199.833 894.833,197.833 896.5,195.5C 901.665,190.251 907.998,187.084 915.5,186C 928.862,183.901 941.529,185.901 953.5,192C 963.29,200.081 968.456,210.581 969,223.5C 969.5,252.831 969.667,282.165 969.5,311.5C 958.167,311.5 946.833,311.5 935.5,311.5C 935.667,286.498 935.5,261.498 935,236.5C 934.86,229.918 933.027,223.918 929.5,218.5 Z"/></g>
<g><path style="opacity:1" fill="#fbfdff" d="M 1372.5,308.5 C 1361.88,310.477 1350.88,311.144 1339.5,310.5C 1337.88,307.829 1337.22,304.829 1337.5,301.5C 1336.45,301.351 1335.45,301.517 1334.5,302C 1323.41,310.64 1310.75,314.807 1296.5,314.5C 1262.81,312.791 1249.64,295.458 1257,262.5C 1261.79,252.382 1269.62,245.882 1280.5,243C 1294.76,240.259 1309.1,237.925 1323.5,236C 1334.89,233.06 1338.05,226.227 1333,215.5C 1328.21,210.292 1322.21,207.959 1315,208.5C 1302.49,207.813 1294.99,213.48 1292.5,225.5C 1281.19,226.499 1269.85,226.832 1258.5,226.5C 1260.27,205.886 1271.27,193.053 1291.5,188C 1310.69,184.144 1329.69,184.811 1348.5,190C 1359.51,193.68 1366.35,201.18 1369,212.5C 1369.33,239.167 1369.67,265.833 1370,292.5C 1370.51,297.897 1371.35,303.23 1372.5,308.5 Z M 1334.5,252.5 C 1335.49,256.97 1335.82,261.637 1335.5,266.5C 1333.92,282.744 1324.92,291.077 1308.5,291.5C 1302.36,291.178 1296.86,289.178 1292,285.5C 1285.58,270.849 1290.41,262.016 1306.5,259C 1314.22,257.945 1321.88,256.612 1329.5,255C 1331.49,254.626 1333.16,253.793 1334.5,252.5 Z"/></g>
<g><path style="opacity:1" fill="#fbfdff" d="M 1693.5,219.5 C 1693.5,221.167 1693.5,222.833 1693.5,224.5C 1683.17,224.5 1672.83,224.5 1662.5,224.5C 1662.77,222.901 1662.43,221.568 1661.5,220.5C 1656.97,211.894 1649.64,207.894 1639.5,208.5C 1635.01,208.538 1630.68,209.371 1626.5,211C 1620.23,215.995 1619.9,221.328 1625.5,227C 1628.17,228.333 1630.83,229.667 1633.5,231C 1647.97,234.16 1662.3,237.827 1676.5,242C 1694.25,249.328 1701.08,262.495 1697,281.5C 1694.19,294.947 1686.36,304.114 1673.5,309C 1655.8,315.034 1637.8,316.034 1619.5,312C 1607.03,309.358 1597.2,302.858 1590,292.5C 1587.59,288.108 1586.09,283.442 1585.5,278.5C 1585.5,276.167 1585.5,273.833 1585.5,271.5C 1595.83,271.5 1606.17,271.5 1616.5,271.5C 1616.22,273.415 1616.55,275.081 1617.5,276.5C 1622.64,286.165 1630.8,291.165 1642,291.5C 1647.49,291.097 1652.66,289.597 1657.5,287C 1666.43,277.89 1665.09,270.556 1653.5,265C 1639.6,260.954 1625.6,257.287 1611.5,254C 1587.6,244.655 1581.1,228.155 1592,204.5C 1600.76,192.701 1612.59,186.534 1627.5,186C 1645.08,183.311 1661.75,185.977 1677.5,194C 1686.73,200.06 1692.06,208.56 1693.5,219.5 Z"/></g>
<g><path style="opacity:0.753" fill="#bdd3ff" d="M 1104.5,191.5 C 1099.21,190.171 1093.54,189.504 1087.5,189.5C 1081.26,189.544 1075.26,190.211 1069.5,191.5C 1069.5,190.5 1069.5,189.5 1069.5,188.5C 1081.5,188.5 1093.5,188.5 1105.5,188.5C 1105.74,189.791 1105.4,190.791 1104.5,191.5 Z"/></g>
<g><path style="opacity:0.753" fill="#b5dcff" d="M 1533.5,189.5 C 1546.99,188.339 1560.66,188.173 1574.5,189C 1573.96,189.717 1573.29,190.217 1572.5,190.5C 1559.68,189.505 1546.68,189.171 1533.5,189.5 Z"/></g>
<g><path style="opacity:0.753" fill="#c0ccff" d="M 889.5,202.5 C 889.585,203.995 888.919,204.995 887.5,205.5C 886.505,200.208 886.172,194.875 886.5,189.5C 876.167,189.5 865.833,189.5 855.5,189.5C 855.5,229.833 855.5,270.167 855.5,310.5C 866.5,310.5 877.5,310.5 888.5,310.5C 877.346,311.495 866.012,311.828 854.5,311.5C 854.5,270.5 854.5,229.5 854.5,188.5C 865.5,188.5 876.5,188.5 887.5,188.5C 887.334,193.511 887.501,198.511 888,203.5C 888.383,202.944 888.883,202.611 889.5,202.5 Z"/></g>
<g><path style="opacity:1" fill="#fbfcff" d="M 1069.5,191.5 C 1075.26,190.211 1081.26,189.544 1087.5,189.5C 1093.54,189.504 1099.21,190.171 1104.5,191.5C 1087.11,240.949 1068.61,289.949 1049,338.5C 1044.16,345.334 1037.66,349.834 1029.5,352C 1017.17,353.767 1004.84,353.934 992.5,352.5C 992.5,343.5 992.5,334.5 992.5,325.5C 995.167,325.5 997.833,325.5 1000.5,325.5C 1005.93,325.839 1011.26,325.339 1016.5,324C 1021.33,320.853 1023.99,316.353 1024.5,310.5C 1009.99,269.817 994.995,229.317 979.5,189C 992.076,188.179 1004.58,188.345 1017,189.5C 1025.6,216.637 1034.6,243.637 1044,270.5C 1052.24,243.96 1060.74,217.627 1069.5,191.5 Z"/></g>
<g><path style="opacity:0.937" fill="#dfdcff" d="M 546.5,196.5 C 545.501,234.33 545.168,272.33 545.5,310.5C 545.167,310.5 544.833,310.5 544.5,310.5C 544.333,271.165 544.5,231.832 545,192.5C 546.188,193.563 546.688,194.897 546.5,196.5 Z"/></g>
<g><path style="opacity:0.965" fill="#ced6ff" d="M 896.5,195.5 C 894.833,197.833 892.833,199.833 890.5,201.5C 891.5,198.5 893.5,196.5 896.5,195.5 Z"/></g>
<g><path style="opacity:0.928" fill="#3f7dff" d="M 215.5,203.5 C 206.455,212.879 196.789,221.546 186.5,229.5C 188.814,220.91 190.814,212.243 192.5,203.5C 200.167,203.5 207.833,203.5 215.5,203.5 Z"/></g>
<g><path style="opacity:0.974" fill="#4279ff" d="M 215.5,203.5 C 218.119,203.232 220.619,203.565 223,204.5C 224.037,210.979 225.537,217.312 227.5,223.5C 192.212,253.787 157.545,284.787 123.5,316.5C 116.385,317.935 109.052,318.602 101.5,318.5C 96.9866,318.499 92.6533,318.166 88.5,317.5C 101.824,306.175 114.824,294.508 127.5,282.5C 156.305,275.029 175.972,257.362 186.5,229.5C 196.789,221.546 206.455,212.879 215.5,203.5 Z"/></g>
<g><path style="opacity:0.963" fill="#6556fe" d="M 414.5,184.5 C 414.5,197.833 414.5,211.167 414.5,224.5C 403.655,234.079 392.655,243.412 381.5,252.5C 381.5,239.167 381.5,225.833 381.5,212.5C 392.481,203.19 403.481,193.856 414.5,184.5 Z"/></g>
<g><path style="opacity:0.967" fill="#4c6cff" d="M 286.5,200.5 C 287.472,208.113 290.806,214.446 296.5,219.5C 288.826,227.174 280.826,234.507 272.5,241.5C 266.65,236.793 261.983,231.127 258.5,224.5C 267.558,216.103 276.892,208.103 286.5,200.5 Z"/></g>
<g><path style="opacity:0.965" fill="#c5e2ff" d="M 1521.5,201.5 C 1519.91,204.764 1517.57,207.431 1514.5,209.5C 1516.09,206.236 1518.43,203.569 1521.5,201.5 Z"/></g>
<g><path style="opacity:0.996" fill="#ced3ff" d="M 788.5,210.5 C 791.167,211.167 792.833,212.833 793.5,215.5C 791.5,214.167 789.833,212.5 788.5,210.5 Z"/></g>
<g><path style="opacity:0.93" fill="#3a83ff" d="M 163.5,200.5 C 158.525,236.473 137.858,254.806 101.5,255.5C 121.75,236.707 142.417,218.373 163.5,200.5 Z"/></g>
<g><path style="opacity:0.984" fill="#c9d4ff" d="M 926.5,215.5 C 928.5,215.5 929.5,216.5 929.5,218.5C 928.167,217.833 927.167,216.833 926.5,215.5 Z"/></g>
<g><path style="opacity:0.967" fill="#5067ff" d="M 296.5,219.5 C 302.516,222.253 308.85,223.587 315.5,223.5C 306.134,232.867 296.468,241.867 286.5,250.5C 281.145,248.494 276.479,245.494 272.5,241.5C 280.826,234.507 288.826,227.174 296.5,219.5 Z"/></g>
<g><path style="opacity:0.992" fill="#2d92ff" d="M 33.5,220.5 C 33.5,232.833 33.5,245.167 33.5,257.5C 22.8333,266.833 12.1667,276.167 1.5,285.5C 1.5,272.833 1.5,260.167 1.5,247.5C 12.1473,238.523 22.814,229.523 33.5,220.5 Z"/></g>
<g><path style="opacity:0.967" fill="#5560ff" d="M 336.5,233.5 C 327.234,240.43 318.567,248.096 310.5,256.5C 301.924,256.356 293.924,254.356 286.5,250.5C 296.468,241.867 306.134,232.867 315.5,223.5C 322.582,223.042 329.582,222.042 336.5,220.5C 336.5,224.833 336.5,229.167 336.5,233.5 Z"/></g>
<g><path style="opacity:0.968" fill="#338bff" d="M 109.5,223.5 C 99.541,232.49 89.541,241.49 79.5,250.5C 79.5,240.833 79.5,231.167 79.5,221.5C 89.4252,223.11 99.4252,223.777 109.5,223.5 Z"/></g>
<g><path style="opacity:0.974" fill="#4773ff" d="M 227.5,223.5 C 229.694,230.883 232.694,237.883 236.5,244.5C 227.833,252.167 219.167,259.833 210.5,267.5C 209.685,266.571 208.852,265.571 208,264.5C 192.047,286.79 171.214,302.623 145.5,312C 138.351,314.454 131.017,315.954 123.5,316.5C 157.545,284.787 192.212,253.787 227.5,223.5 Z"/></g>
<g><path style="opacity:0.439" fill="#a4d7ff" d="M 1693.5,219.5 C 1694.46,221.265 1694.79,223.265 1694.5,225.5C 1683.5,225.5 1672.5,225.5 1661.5,225.5C 1661.5,223.833 1661.5,222.167 1661.5,220.5C 1662.43,221.568 1662.77,222.901 1662.5,224.5C 1672.83,224.5 1683.17,224.5 1693.5,224.5C 1693.5,222.833 1693.5,221.167 1693.5,219.5 Z"/></g>
<g><path style="opacity:0.916" fill="#585bff" d="M 336.5,233.5 C 336.5,239.833 336.5,246.167 336.5,252.5C 328.085,255.347 319.418,256.68 310.5,256.5C 318.567,248.096 327.234,240.43 336.5,233.5 Z"/></g>
<g><path style="opacity:0.961" fill="#7152fe" d="M 414.5,224.5 C 414.5,237.833 414.5,251.167 414.5,264.5C 403.167,274.5 391.833,284.5 380.5,294.5C 381.429,280.529 381.762,266.529 381.5,252.5C 392.655,243.412 403.655,234.079 414.5,224.5 Z"/></g>
<g><path style="opacity:0.97" fill="#4c6cff" d="M 236.5,244.5 C 240.059,251.059 244.392,257.059 249.5,262.5C 241.44,269.899 233.107,276.899 224.5,283.5C 219.49,278.488 214.823,273.155 210.5,267.5C 219.167,259.833 227.833,252.167 236.5,244.5 Z"/></g>
<g><path style="opacity:0.937" fill="#dadfff" d="M 794.5,252.5 C 794.56,251.957 794.893,251.624 795.5,251.5C 796.814,256.652 796.814,261.652 795.5,266.5C 795.819,261.637 795.486,256.97 794.5,252.5 Z"/></g>
<g><path style="opacity:0.937" fill="#d4e7ff" d="M 1334.5,252.5 C 1334.56,251.957 1334.89,251.624 1335.5,251.5C 1336.81,256.652 1336.81,261.652 1335.5,266.5C 1335.82,261.637 1335.49,256.97 1334.5,252.5 Z"/></g>
<g><path style="opacity:0.902" fill="#d1d3ff" d="M 721.5,255.5 C 721.573,257.027 720.906,258.027 719.5,258.5C 719.427,256.973 720.094,255.973 721.5,255.5 Z"/></g>
<g><path style="opacity:0.968" fill="#5067ff" d="M 249.5,262.5 C 253.63,265.737 257.963,268.737 262.5,271.5C 254.356,279.4 246.023,287.066 237.5,294.5C 232.848,291.179 228.515,287.513 224.5,283.5C 233.107,276.899 241.44,269.899 249.5,262.5 Z"/></g>
<g><path style="opacity:0.977" fill="#328cff" d="M 33.5,257.5 C 33.2566,268.864 33.59,280.198 34.5,291.5C 25.4744,299.529 16.4744,307.529 7.5,315.5C 3.59981,305.999 1.59981,295.999 1.5,285.5C 12.1667,276.167 22.8333,266.833 33.5,257.5 Z"/></g>
<g><path style="opacity:0.753" fill="#b4ddff" d="M 1617.5,276.5 C 1616.55,275.081 1616.22,273.415 1616.5,271.5C 1606.17,271.5 1595.83,271.5 1585.5,271.5C 1585.5,273.833 1585.5,276.167 1585.5,278.5C 1584.53,276.052 1584.19,273.385 1584.5,270.5C 1595.5,270.5 1606.5,270.5 1617.5,270.5C 1617.5,272.5 1617.5,274.5 1617.5,276.5 Z"/></g>
<g><path style="opacity:0.971" fill="#5560ff" d="M 262.5,271.5 C 268.439,275.303 274.773,278.303 281.5,280.5C 272.88,288.784 264.214,297.118 255.5,305.5C 248.967,302.619 242.967,298.953 237.5,294.5C 246.023,287.066 254.356,279.4 262.5,271.5 Z"/></g>
<g><path style="opacity:0.971" fill="#5a5aff" d="M 281.5,280.5 C 288.11,282.153 294.777,283.486 301.5,284.5C 291.5,293.833 281.5,303.167 271.5,312.5C 265.869,310.68 260.535,308.347 255.5,305.5C 264.214,297.118 272.88,288.784 281.5,280.5 Z"/></g>
<g><path style="opacity:0.974" fill="#3f7dff" d="M 127.5,282.5 C 114.824,294.508 101.824,306.175 88.5,317.5C 85.5,317.5 82.5,317.5 79.5,317.5C 79.5,315.5 79.5,313.5 79.5,311.5C 90.1483,303.183 100.148,294.183 109.5,284.5C 115.547,284.224 121.547,283.557 127.5,282.5 Z"/></g>
<g><path style="opacity:0.98" fill="#7e4dfe" d="M 414.5,264.5 C 415.32,280.789 413.653,296.789 409.5,312.5C 374.899,342.098 340.899,372.431 307.5,403.5C 292.396,412.892 277.062,422.059 261.5,431C 254.744,434.527 247.744,437.361 240.5,439.5C 274.5,408.5 308.5,377.5 342.5,346.5C 362.418,334.566 375.084,317.233 380.5,294.5C 391.833,284.5 403.167,274.5 414.5,264.5 Z"/></g>
<g><path style="opacity:0.947" fill="#3c80ff" d="M 109.5,284.5 C 100.148,294.183 90.1483,303.183 79.5,311.5C 79.5,302.833 79.5,294.167 79.5,285.5C 89.5824,285.807 99.5824,285.474 109.5,284.5 Z"/></g>
<g><path style="opacity:0.977" fill="#6855fe" d="M 288.5,316.5 C 299.152,305.85 310.152,295.517 321.5,285.5C 326.141,284.873 330.807,284.54 335.5,284.5C 335.82,295.415 335.487,306.248 334.5,317C 319.126,319.109 303.793,318.942 288.5,316.5 Z"/></g>
<g><path style="opacity:0.859" fill="#ccd1ff" d="M 749.5,282.5 C 750.906,282.973 751.573,283.973 751.5,285.5C 750.094,285.027 749.427,284.027 749.5,282.5 Z"/></g>
<g><path style="opacity:0.984" fill="#6157fe" d="M 301.5,284.5 C 308.153,285.054 314.82,285.388 321.5,285.5C 310.152,295.517 299.152,305.85 288.5,316.5C 282.716,315.637 277.049,314.304 271.5,312.5C 281.5,303.167 291.5,293.833 301.5,284.5 Z"/></g>
<g><path style="opacity:0.996" fill="#cfd3ff" d="M 754.5,287.5 C 755.71,287.932 756.71,288.599 757.5,289.5C 755.821,289.715 754.821,289.048 754.5,287.5 Z"/></g>
<g><path style="opacity:0.975" fill="#3787ff" d="M 34.5,291.5 C 35.9123,300.738 38.9123,309.404 43.5,317.5C 35.7999,325.202 27.7999,332.535 19.5,339.5C 13.9324,332.365 9.93242,324.365 7.5,315.5C 16.4744,307.529 25.4744,299.529 34.5,291.5 Z"/></g>
<g><path style="opacity:0.439" fill="#b2bdff" d="M 797.5,301.5 C 796.833,301.5 796.167,301.5 795.5,301.5C 796.548,299.067 797.214,299.067 797.5,301.5 Z"/></g>
<g><path style="opacity:0.996" fill="#d2d5ff" d="M 723.5,302.5 C 725.404,302.738 726.738,303.738 727.5,305.5C 725.596,305.262 724.262,304.262 723.5,302.5 Z"/></g>
<g><path style="opacity:0.439" fill="#b4c1ff" d="M 832.5,308.5 C 833.404,309.209 833.737,310.209 833.5,311.5C 821.988,311.828 810.654,311.495 799.5,310.5C 810.884,311.144 821.884,310.477 832.5,308.5 Z"/></g>
<g><path style="opacity:0.439" fill="#a8d0ff" d="M 1372.5,308.5 C 1373.4,309.209 1373.74,310.209 1373.5,311.5C 1361.99,311.828 1350.65,311.495 1339.5,310.5C 1350.88,311.144 1361.88,310.477 1372.5,308.5 Z"/></g>
<g><path style="opacity:0.439" fill="#a1d3ff" d="M 1578.5,309.5 C 1579.04,309.56 1579.38,309.893 1579.5,310.5C 1565.34,311.826 1551.34,311.826 1537.5,310.5C 1551.34,310.829 1565.01,310.496 1578.5,309.5 Z"/></g>
<g><path style="opacity:0.962" fill="#854bfe" d="M 409.5,312.5 C 401.011,337.656 385.677,357.489 363.5,372C 344.941,382.777 326.274,393.277 307.5,403.5C 340.899,372.431 374.899,342.098 409.5,312.5 Z"/></g>
<g><path style="opacity:0.971" fill="#3c81ff" d="M 43.5,317.5 C 47.0839,323.092 51.0839,328.426 55.5,333.5C 48.1177,341.216 40.1177,348.216 31.5,354.5C 26.3007,350.421 22.3007,345.421 19.5,339.5C 27.7999,332.535 35.7999,325.202 43.5,317.5 Z"/></g>
<g><path style="opacity:0.753" fill="#c0d2ff" d="M 1000.5,325.5 C 997.833,325.5 995.167,325.5 992.5,325.5C 992.5,334.5 992.5,343.5 992.5,352.5C 991.506,343.348 991.173,334.015 991.5,324.5C 994.713,324.19 997.713,324.523 1000.5,325.5 Z"/></g>
<g><path style="opacity:0.973" fill="#3f7dff" d="M 55.5,333.5 C 58.2072,335.843 60.8739,338.177 63.5,340.5C 55.1742,347.493 47.1742,354.826 39.5,362.5C 36.5,360.167 33.8333,357.5 31.5,354.5C 40.1177,348.216 48.1177,341.216 55.5,333.5 Z"/></g>
<g><path style="opacity:0.969" fill="#4279ff" d="M 63.5,340.5 C 70.2024,344.515 76.8691,348.515 83.5,352.5C 74.5594,359.435 65.8927,366.768 57.5,374.5C 50.8035,371.489 44.8035,367.489 39.5,362.5C 47.1742,354.826 55.1742,347.493 63.5,340.5 Z"/></g>
<g><path style="opacity:0.974" fill="#794ffe" d="M 342.5,346.5 C 308.5,377.5 274.5,408.5 240.5,439.5C 231.914,442.766 222.914,444.433 213.5,444.5C 237.133,423.535 260.466,402.202 283.5,380.5C 302.995,368.917 322.662,357.584 342.5,346.5 Z"/></g>
<g><path style="opacity:0.969" fill="#4773ff" d="M 83.5,352.5 C 90.0323,355.929 96.3657,359.596 102.5,363.5C 94.5,371.167 86.5,378.833 78.5,386.5C 71.0035,383.255 64.0035,379.255 57.5,374.5C 65.8927,366.768 74.5594,359.435 83.5,352.5 Z"/></g>
<g><path style="opacity:0.968" fill="#4c6cff" d="M 102.5,363.5 C 109.698,367.262 116.698,371.262 123.5,375.5C 114.54,382.458 105.873,389.791 97.5,397.5C 90.6678,394.588 84.3344,390.921 78.5,386.5C 86.5,378.833 94.5,371.167 102.5,363.5 Z"/></g>
<g><path style="opacity:0.97" fill="#5067ff" d="M 123.5,375.5 C 128.167,378.167 132.833,380.833 137.5,383.5C 128.867,390.798 120.533,398.465 112.5,406.5C 107.233,403.89 102.233,400.89 97.5,397.5C 105.873,389.791 114.54,382.458 123.5,375.5 Z"/></g>
<g><path style="opacity:0.978" fill="#fefffe" d="M 1551.5,378.5 C 1556.17,378.5 1560.83,378.5 1565.5,378.5C 1565.33,384.842 1565.5,391.175 1566,397.5C 1572.46,392.334 1579.62,391.167 1587.5,394C 1591.82,396.315 1594.65,399.815 1596,404.5C 1596.5,415.828 1596.67,427.162 1596.5,438.5C 1591.83,438.5 1587.17,438.5 1582.5,438.5C 1582.67,429.161 1582.5,419.827 1582,410.5C 1579.27,404.878 1575.1,403.378 1569.5,406C 1567.51,407.319 1566.35,409.152 1566,411.5C 1565.5,420.494 1565.33,429.494 1565.5,438.5C 1560.83,438.5 1556.17,438.5 1551.5,438.5C 1551.5,418.5 1551.5,398.5 1551.5,378.5 Z"/></g>
<g><path style="opacity:0.917" fill="#fefffe" d="M 1508.5,380.5 C 1525.16,378.487 1536.5,385.154 1542.5,400.5C 1537.2,401.663 1531.86,401.829 1526.5,401C 1517.83,390.981 1509.66,391.481 1502,402.5C 1497.92,418.066 1503.76,425.566 1519.5,425C 1522.13,423.374 1524.46,421.374 1526.5,419C 1531.86,418.171 1537.2,418.337 1542.5,419.5C 1534.63,437.414 1521.29,443.247 1502.5,437C 1489.78,430.402 1484.28,419.902 1486,405.5C 1488.15,392.188 1495.65,383.854 1508.5,380.5 Z"/></g>
<g><path style="opacity:0.884" fill="#fefffe" d="M 1006.5,381.5 C 1009.57,381.183 1012.57,381.516 1015.5,382.5C 1022.77,400.974 1029.44,419.641 1035.5,438.5C 1032.81,438.664 1030.15,438.497 1027.5,438C 1025.47,434.411 1024.14,430.578 1023.5,426.5C 1015.14,426.169 1006.81,426.502 998.5,427.5C 997.26,431.056 995.927,434.556 994.5,438C 991.5,438.667 988.5,438.667 985.5,438C 992.798,419.271 999.798,400.437 1006.5,381.5 Z M 1010.5,393.5 C 1013.91,401.878 1017.24,410.378 1020.5,419C 1014.14,419.831 1007.81,419.664 1001.5,418.5C 1004.7,410.219 1007.7,401.886 1010.5,393.5 Z"/></g>
<g><path style="opacity:1" fill="#fefffe" d="M 1248.5,381.5 C 1253.17,381.5 1257.83,381.5 1262.5,381.5C 1262.5,400.5 1262.5,419.5 1262.5,438.5C 1257.83,438.5 1253.17,438.5 1248.5,438.5C 1248.5,419.5 1248.5,400.5 1248.5,381.5 Z"/></g>
<g><path style="opacity:0.926" fill="#fefffe" d="M 1666.5,381.5 C 1671.17,381.5 1675.83,381.5 1680.5,381.5C 1680.5,385.167 1680.5,388.833 1680.5,392.5C 1683.83,392.5 1687.17,392.5 1690.5,392.5C 1690.5,396.833 1690.5,401.167 1690.5,405.5C 1687.17,405.5 1683.83,405.5 1680.5,405.5C 1680.33,411.509 1680.5,417.509 1681,423.5C 1681.37,424.416 1681.87,425.25 1682.5,426C 1685.15,426.497 1687.81,426.664 1690.5,426.5C 1690.5,430.5 1690.5,434.5 1690.5,438.5C 1685.49,438.666 1680.49,438.499 1675.5,438C 1670.9,436.402 1668.07,433.235 1667,428.5C 1666.5,420.841 1666.33,413.174 1666.5,405.5C 1664.5,405.5 1662.5,405.5 1660.5,405.5C 1660.5,401.167 1660.5,396.833 1660.5,392.5C 1662.5,392.5 1664.5,392.5 1666.5,392.5C 1666.5,388.833 1666.5,385.167 1666.5,381.5 Z"/></g>
<g><path style="opacity:0.864" fill="#fefffe" d="M 1100.5,382.5 C 1103.5,382.5 1106.5,382.5 1109.5,382.5C 1109.5,386.167 1109.5,389.833 1109.5,393.5C 1113.17,393.5 1116.83,393.5 1120.5,393.5C 1120.5,395.833 1120.5,398.167 1120.5,400.5C 1116.83,400.5 1113.17,400.5 1109.5,400.5C 1109.33,410.172 1109.5,419.839 1110,429.5C 1110.5,430 1111,430.5 1111.5,431C 1114.48,431.498 1117.48,431.665 1120.5,431.5C 1120.5,433.833 1120.5,436.167 1120.5,438.5C 1116.15,438.666 1111.82,438.499 1107.5,438C 1102.89,435.61 1100.72,431.777 1101,426.5C 1100.5,417.84 1100.33,409.173 1100.5,400.5C 1098.83,400.5 1097.17,400.5 1095.5,400.5C 1095.5,398.167 1095.5,395.833 1095.5,393.5C 1097.17,393.5 1098.83,393.5 1100.5,393.5C 1100.5,389.833 1100.5,386.167 1100.5,382.5 Z"/></g>
<g><path style="opacity:0.969" fill="#5560ff" d="M 137.5,383.5 C 143.87,386.679 149.87,390.346 155.5,394.5C 147.167,401.833 138.833,409.167 130.5,416.5C 124.17,413.67 118.17,410.337 112.5,406.5C 120.533,398.465 128.867,390.798 137.5,383.5 Z"/></g>
<g><path style="opacity:0.904" fill="#fefffe" d="M 1064.5,392.5 C 1072.9,391.619 1079.4,394.619 1084,401.5C 1085.44,413.758 1085.94,426.091 1085.5,438.5C 1082.83,438.5 1080.17,438.5 1077.5,438.5C 1077.67,428.161 1077.5,417.828 1077,407.5C 1074.83,402.901 1071.16,400.235 1066,399.5C 1059.58,399.922 1055.58,403.255 1054,409.5C 1053.5,419.161 1053.33,428.828 1053.5,438.5C 1050.83,438.5 1048.17,438.5 1045.5,438.5C 1045.5,423.5 1045.5,408.5 1045.5,393.5C 1048.17,393.5 1050.83,393.5 1053.5,393.5C 1053.34,395.199 1053.51,396.866 1054,398.5C 1057.07,395.554 1060.57,393.554 1064.5,392.5 Z"/></g>
<g><path style="opacity:0.871" fill="#fefffe" d="M 1147.5,392.5 C 1164.65,393.318 1172.65,402.318 1171.5,419.5C 1159.83,419.5 1148.17,419.5 1136.5,419.5C 1138.1,429.81 1144.1,433.977 1154.5,432C 1157.97,431.034 1160.3,428.868 1161.5,425.5C 1164.43,424.516 1167.43,424.183 1170.5,424.5C 1168.76,432.075 1164.09,436.908 1156.5,439C 1133.4,440.221 1124.23,429.388 1129,406.5C 1132.75,398.55 1138.92,393.884 1147.5,392.5 Z M 1148.5,399.5 C 1156.93,399.928 1161.93,404.261 1163.5,412.5C 1154.5,412.5 1145.5,412.5 1136.5,412.5C 1137.41,405.259 1141.41,400.926 1148.5,399.5 Z"/></g>
<g><path style="opacity:0.87" fill="#fefffe" d="M 1194.5,392.5 C 1203.37,391.515 1209.87,394.849 1214,402.5C 1214.49,404.134 1214.66,405.801 1214.5,407.5C 1211.75,407.813 1209.09,407.48 1206.5,406.5C 1202.71,399.719 1197.38,398.219 1190.5,402C 1188.99,404.916 1189.32,407.582 1191.5,410C 1197.83,412.333 1204.17,414.667 1210.5,417C 1217.27,423.956 1216.94,430.623 1209.5,437C 1199.29,441.445 1190.12,439.945 1182,432.5C 1178.04,425.507 1180.21,423.507 1188.5,426.5C 1192.43,432.506 1197.76,434.006 1204.5,431C 1207.74,428.581 1208.07,425.915 1205.5,423C 1199.92,420.806 1194.25,418.806 1188.5,417C 1178.26,410.125 1177.93,402.792 1187.5,395C 1190,394.302 1192.34,393.469 1194.5,392.5 Z"/></g>
<g><path style="opacity:0.967" fill="#fefffe" d="M 1274.5,392.5 C 1279.17,392.5 1283.83,392.5 1288.5,392.5C 1288.34,394.199 1288.51,395.866 1289,397.5C 1295.42,392.335 1302.58,391.168 1310.5,394C 1314.82,396.315 1317.65,399.815 1319,404.5C 1319.5,415.828 1319.67,427.162 1319.5,438.5C 1314.83,438.5 1310.17,438.5 1305.5,438.5C 1305.67,429.161 1305.5,419.827 1305,410.5C 1302.27,404.878 1298.1,403.378 1292.5,406C 1290.51,407.319 1289.35,409.152 1289,411.5C 1288.5,420.494 1288.33,429.494 1288.5,438.5C 1283.83,438.5 1279.17,438.5 1274.5,438.5C 1274.5,423.167 1274.5,407.833 1274.5,392.5 Z"/></g>
<g><path style="opacity:0.934" fill="#fefffe" d="M 1344.5,392.5 C 1367.77,390.937 1377.61,401.604 1374,424.5C 1367.02,437.897 1356.19,442.397 1341.5,438C 1328.74,431.088 1324.58,420.588 1329,406.5C 1331.87,399.124 1337.04,394.457 1344.5,392.5 Z M 1350.5,404.5 C 1360.32,407.76 1362.82,414.093 1358,423.5C 1348.99,429.179 1343.82,426.679 1342.5,416C 1342.38,410.031 1345.05,406.198 1350.5,404.5 Z"/></g>
<g><path style="opacity:0.924" fill="#fefffe" d="M 1379.5,393.5 C 1384.68,392.185 1390.01,392.185 1395.5,393.5C 1398.67,403.494 1401.83,413.494 1405,423.5C 1408.07,413.464 1411.23,403.464 1414.5,393.5C 1419.46,392.506 1424.46,392.173 1429.5,392.5C 1424.51,407.816 1419.51,423.15 1414.5,438.5C 1408.13,438.83 1401.8,438.496 1395.5,437.5C 1390.33,422.658 1385,407.992 1379.5,393.5 Z"/></g>
<g><path style="opacity:0.934" fill="#fefffe" d="M 1449.5,392.5 C 1470,390.057 1480,399.057 1479.5,419.5C 1469.17,419.5 1458.83,419.5 1448.5,419.5C 1448.76,424.256 1451.26,426.922 1456,427.5C 1458.66,427.251 1460.83,426.085 1462.5,424C 1467.86,423.171 1473.2,423.337 1478.5,424.5C 1473.22,436.782 1463.89,441.615 1450.5,439C 1441.67,436.833 1436.17,431.333 1434,422.5C 1431.05,408.058 1436.22,398.058 1449.5,392.5 Z M 1452.5,404.5 C 1455.98,404.184 1459.31,404.684 1462.5,406C 1463.86,407.584 1464.53,409.418 1464.5,411.5C 1459.17,411.5 1453.83,411.5 1448.5,411.5C 1448.96,408.697 1450.29,406.363 1452.5,404.5 Z"/></g>
<g><path style="opacity:0.947" fill="#fefffe" d="M 1619.5,392.5 C 1626.85,391.304 1633.35,392.97 1639,397.5C 1639.49,395.866 1639.66,394.199 1639.5,392.5C 1644.17,392.5 1648.83,392.5 1653.5,392.5C 1653.5,407.833 1653.5,423.167 1653.5,438.5C 1648.83,438.5 1644.17,438.5 1639.5,438.5C 1639.66,436.801 1639.49,435.134 1639,433.5C 1634.01,438.938 1627.84,440.771 1620.5,439C 1610.01,435.04 1605.01,427.374 1605.5,416C 1605.22,405.04 1609.89,397.206 1619.5,392.5 Z M 1625.5,405.5 C 1637.08,404.979 1641.25,410.312 1638,421.5C 1635.46,426.069 1631.63,427.569 1626.5,426C 1620.89,422.723 1619.06,417.89 1621,411.5C 1622.33,409.34 1623.83,407.34 1625.5,405.5 Z"/></g>
<g><path style="opacity:0.968" fill="#5a5aff" d="M 155.5,394.5 C 160.5,396.664 165.167,399.331 169.5,402.5C 161.5,410.167 153.5,417.833 145.5,425.5C 139.995,423.251 134.995,420.251 130.5,416.5C 138.833,409.167 147.167,401.833 155.5,394.5 Z"/></g>
<g><path style="opacity:0.964" fill="#7252fe" d="M 283.5,380.5 C 260.466,402.202 237.133,423.535 213.5,444.5C 200.102,445.518 187.102,443.851 174.5,439.5C 183.866,430.133 193.532,421.133 203.5,412.5C 214.52,412.719 225.186,410.886 235.5,407C 251.715,398.396 267.715,389.563 283.5,380.5 Z"/></g>
<g><path style="opacity:0.969" fill="#6556fe" d="M 169.5,402.5 C 180.174,408.003 191.507,411.336 203.5,412.5C 193.532,421.133 183.866,430.133 174.5,439.5C 163.858,436.678 154.191,432.011 145.5,425.5C 153.5,417.833 161.5,410.167 169.5,402.5 Z"/></g>
</svg>
