<?xml version="1.0" encoding="UTF-8"?>
<!DOCTYPE svg PUBLIC "-//W3C//DTD SVG 1.1//EN" "http://www.w3.org/Graphics/SVG/1.1/DTD/svg11.dtd">
<!-- Creator: CorelDRAW -->
<svg xmlns="http://www.w3.org/2000/svg" xml:space="preserve" width="649.065mm" height="147.162mm" version="1.1" style="shape-rendering:geometricPrecision; text-rendering:geometricPrecision; image-rendering:optimizeQuality; fill-rule:evenodd; clip-rule:evenodd"
viewBox="0 0 64890.6 14712.58"
 xmlns:xlink="http://www.w3.org/1999/xlink"
 xmlns:xodm="http://www.corel.com/coreldraw/odm/2003">
 <defs>
  <style type="text/css">
   <![CDATA[
    .fil1 {fill:#001959}
    .fil0 {fill:#47A7F6}
    .fil2 {fill:white}
    .fil3 {fill:#001959;fill-rule:nonzero}
   ]]>
  </style>
 </defs>
 <g id="Camada_x0020_1">
  <metadata id="CorelCorpID_0Corel-Layer"/>
  <g id="_2047888170144">
   <path class="fil0" d="M9566.8 0l-6522.85 0c-1674.18,0 -3043.94,1369.78 -3043.94,3043.96l0 6522.85c0,2374.86 3381.57,4764.12 5488.03,5145.76l17.18 -2101.8 4061.6 0c1674.18,0 3043.95,-1369.77 3043.95,-3043.96l0 -6522.85c0,-1674.18 -1369.77,-3043.96 -3043.95,-3043.96z"/>
   <path class="fil1" d="M14376.17 4423.14l4041.54 0 0 1066.98 -2704.12 0 0 957.42 2440.93 0 0 1059.72 -2440.93 7.26 0 964.79 2777.17 0 0 1066.98 -4114.59 0 0 -5123.15zm4302.3 1169.3l1490.91 0 635.93 1110.89 686.85 -1110.89 1425.1 0 -1249.6 1929.45 1337.42 2024.39 -1498.28 0 -701.49 -1205.95 -782.04 1205.95 -1432.48 0 1344.8 -2024.39 -1257.12 -1929.45zm4609.39 0l1293.51 0 0 3953.84 -1293.51 0 0 -3953.84zm635.81 -1819.88c199.68,0 364.1,64.65 493.28,193.82 129.05,129.05 193.69,295.89 193.69,500.67 0,199.67 -64.64,365.37 -193.69,496.96 -129.18,131.47 -293.6,197.26 -493.28,197.26 -199.81,0 -364.36,-65.79 -493.41,-197.26 -129.05,-131.59 -193.69,-297.29 -193.69,-496.96 0,-204.78 64.64,-371.62 193.69,-500.67 129.05,-129.17 293.6,-193.82 493.41,-193.82zm1203.54 650.58l4399.53 0 0 876.98 -2703.99 3171.8 2747.9 0 0 1074.37 -4538.51 0 0 -869.73 2704.12 -3179.18 -2609.05 0 0 -1074.24zm6684.82 1118.15c545.71,0 969.62,125.48 1271.75,376.44 302,250.84 455.48,602.86 460.32,1056.04l0 2572.52 -1278.89 0 0 -445.8c-263.06,336.1 -660.12,504.22 -1191.32,504.22 -418.96,0 -749.08,-113.26 -990.25,-339.79 -241.16,-226.66 -361.81,-525.1 -361.81,-895.31 0,-375.18 130.45,-667.51 391.08,-876.99 260.64,-209.47 634.54,-316.75 1121.84,-321.59l1030.46 0 0 -43.78c0,-190.13 -64.51,-336.24 -193.69,-438.55 -129.05,-102.32 -315.49,-153.47 -559.07,-153.47 -165.7,0 -352.01,26.71 -559.07,80.42 -207.06,53.59 -415.39,131.47 -625,233.78l-357.99 -876.98c321.59,-146.1 629.71,-254.53 924.45,-325.16 294.86,-70.63 600.56,-106 917.2,-106zm-336.11 3179.18c194.83,0 365.37,-47.6 511.59,-142.54 146.1,-95.07 238.75,-218.14 277.69,-369.06l0 -343.5 -774.65 0c-365.51,0 -548.26,136.31 -548.26,409.16 0,136.43 47.59,244.85 142.53,325.28 95.07,80.44 225.38,120.65 391.09,120.65zm5201.29 -3171.81c365.38,0 686.98,84 964.66,252.12 277.69,167.99 493.28,406.74 646.76,716.24 153.48,309.37 230.22,666.23 230.22,1070.54 0,399.49 -74.32,750.36 -222.85,1052.35 -148.64,302.13 -360.53,536.04 -635.93,701.74 -275.15,165.57 -593.05,248.42 -953.72,248.42 -248.43,0 -473.68,-47.47 -675.9,-142.41 -202.22,-95.07 -374.03,-232.77 -515.29,-412.97l0 1929.33 -1300.9 0 0 -5371.57 1300.9 0 0 511.6c287.49,-370.34 674.87,-555.39 1162.05,-555.39zm-321.59 2989.06c253.38,0 459.3,-90.1 617.61,-270.42 158.32,-180.35 237.48,-416.55 237.48,-708.88 0,-292.32 -79.16,-529.79 -237.48,-712.55 -158.31,-182.76 -364.23,-274.12 -617.61,-274.12 -248.42,0 -450.64,91.37 -606.55,274.12 -155.89,182.76 -233.9,420.23 -233.9,712.55 0,292.33 78.01,528.53 233.9,708.88 155.91,180.33 358.13,270.42 606.55,270.42z"/>
   <path class="fil2" d="M11328.02 3458.36c-107.39,-97.38 -273.4,-89.26 -370.76,18.14l-2415.98 2664.67 -397.76 -326.15 -468.11 684.37 526.75 750.07c32.39,45.73 74.22,88.25 123.13,121.82 222.15,152.51 525.88,96.07 678.39,-126.09l19.36 -28.2 2345.06 -3415.59c73.36,-106.6 58.43,-253.7 -40.08,-343.03z"/>
   <path class="fil2" d="M9077.04 3458.36c-107.39,-97.38 -273.37,-89.26 -370.76,18.14l-2415.97 2664.67 -1139.54 -934.41c-89.47,-73.29 -220.26,-81.65 -319.52,-11.92 -119.46,83.89 -148.29,248.75 -64.4,368.22l1184.35 1686.4c32.38,45.73 74.22,88.25 123.13,121.82 222.14,152.51 525.87,96.07 678.4,-126.09l19.36 -28.2 2345.04 -3415.59c73.38,-106.6 58.44,-253.7 -40.08,-343.03z"/>
   <path class="fil2" d="M3097.63 8151.68c0,0 1356.91,1874.24 2684.2,2714.82 506.77,320.68 925.25,492.09 1292.02,547.97 130.1,18.33 248.02,25.33 365.37,20.62 422.68,-16.94 780.53,-184.17 1123.35,-433.08 0,0 537.25,-386.07 726.97,-640.66 177.52,-265.82 156.79,-488.46 -26.35,-657.48l-1352.71 -1474.6c0,0 -332.1,-363.06 -778.23,-51.19 0,0 -192.06,195.88 -636.78,542.98 -433,346.63 -933.67,-409.48 -933.67,-409.48l-887.29 -1305.08c0,0 -224,-308.56 -485.65,-674.34 -161.6,-216.99 -324.07,-457.37 -473.94,-674.82 -330.18,-610.04 -174.28,-828.01 -174.28,-828.01 85.01,-226.86 688.04,-439.2 962.24,-638.29 434.41,-311.4 193.45,-748.65 193.45,-748.65l-975.59 -1748.43c-115.06,-230.56 -307.16,-328.68 -620.9,-233.83 -314.21,83.13 -839.2,480.52 -839.2,480.52 -91.58,62.48 -171.38,124.5 -250.77,198.22 -662.17,496.89 -1035.02,1170.46 -670.97,2625.83 401.31,1501.07 1758.69,3386.93 1758.69,3386.93l0.03 0.07z"/>
   <path class="fil3" d="M64890.6 11804.59l-848.98 0 -1793.32 -2510.92 0 -6385.7 2642.3 0 0 8896.61zm-14306.94 -3452.29l0 1248.06 5843.83 0 0 2204.23 -8486.13 0 0 -8896.61 5634.18 0 1617.71 2204.31 -4609.59 0 0 1168.54 3758.03 0 -1509.58 2070.94 -2248.45 0.52zm2832.76 -0.52l2361.07 -3239.49 -3186.81 -4342.12 3107.14 0 1527.03 2323.85 1540.25 -2323.85 3107.37 0 -3187.04 4342.12 4779.75 6692.3 -3025.35 0 -3214.98 -4647.4 -796.4 1194.59 -3012.03 0z"/>
   <path class="fil3" d="M42356.17 6284.01c172.62,0 326.36,40.46 461.22,121.37 134.87,80.92 239.38,194.87 313.55,341.88 74.17,146.99 111.26,314.89 111.26,503.7 0,231.96 -51.25,442.34 -153.74,631.15 -102.49,188.8 -242.75,337.83 -420.77,447.06 -178.02,109.24 -376.26,163.86 -594.72,163.86 -183.42,0 -337.16,-38.44 -461.23,-115.31 -124.07,-76.86 -215.78,-188.12 -275.11,-333.78l-84.96 420.77 -525.96 0 598.78 -3001.99 521.9 0 -226.56 1140.92c97.11,-102.49 208.36,-181.39 333.78,-236.68 125.43,-55.3 259.61,-82.94 402.56,-82.94zm-186.1 432.9c-129.47,0 -248.14,33.71 -356.03,101.15 -107.88,67.42 -192.85,158.46 -254.89,273.08 -62.03,114.63 -93.05,239.38 -93.05,374.24 0,169.93 48.55,306.8 145.64,410.65 97.1,103.84 226.56,155.76 388.39,155.76 126.77,0 244.77,-33.71 354.01,-101.15 109.23,-67.42 195.54,-159.13 258.93,-275.11 63.38,-115.98 95.08,-241.4 95.08,-376.26 0,-169.92 -49.9,-306.14 -149.69,-408.63 -99.8,-102.48 -229.26,-153.73 -388.39,-153.73z"/>
   <path id="_1" class="fil3" d="M45734.41 6300.2l-1460.53 2455.8c-199.59,345.24 -470.65,517.86 -813.2,517.86 -107.89,0 -202.29,-17.54 -283.21,-52.6 -80.91,-35.06 -159.13,-87.66 -234.65,-157.79l271.06 -368.16c75.52,62.03 157.79,93.05 246.8,93.05 145.64,0 275.11,-75.52 388.39,-226.56l97.1 -133.51 -465.27 -2128.09 538.1 0 287.25 1594.04 890.07 -1594.04 538.09 0z"/>
  </g>
 </g>
</svg>
