<?xml version="1.0" encoding="UTF-8"?>
<!DOCTYPE svg PUBLIC "-//W3C//DTD SVG 1.1//EN" "http://www.w3.org/Graphics/SVG/1.1/DTD/svg11.dtd">
<!-- Creator: CorelDRAW -->
<svg xmlns="http://www.w3.org/2000/svg" xml:space="preserve" width="200px" height="100px" version="1.1" style="shape-rendering:geometricPrecision; text-rendering:geometricPrecision; image-rendering:optimizeQuality; fill-rule:evenodd; clip-rule:evenodd"
viewBox="0 0 6.08 3.04"
 xmlns:xlink="http://www.w3.org/1999/xlink"
 xmlns:xodm="http://www.corel.com/coreldraw/odm/2003">
 <defs>
  <style type="text/css">
   <![CDATA[
    .fil0 {fill:none}
    .fil1 {fill:#FEFEFE;fill-rule:nonzero}
    .fil3 {fill:#C75100;fill-rule:nonzero}
    .fil2 {fill:#FF7900;fill-rule:nonzero}
   ]]>
  </style>
 </defs>
 <g id="Layer_x0020_1">
  <metadata id="CorelCorpID_0Corel-Layer"/>
  <rect class="fil0" width="6.08" height="3.04"/>
  <g id="_2102337717456">
   <path class="fil1" d="M1.86 1.03l0.06 0 0 0.62 -0.06 0 0 -0.62zm2.64 0.71l0.02 0 0 0.06 0.03 0 0 0.02 -0.03 0 0 0.15 -0.02 0 0 -0.15 -0.03 0 0 -0.02 0.03 0 0 -0.06zm0.22 0.17l0.02 0.01c-0.01,0.01 -0.01,0.02 -0.02,0.03 -0.01,0.01 -0.02,0.01 -0.03,0.01 -0.01,0.01 -0.02,0.01 -0.03,0.01 -0.03,0 -0.05,-0.01 -0.06,-0.03 -0.02,-0.01 -0.02,-0.03 -0.02,-0.06 0,-0.02 0,-0.04 0.01,-0.05 0.02,-0.02 0.04,-0.03 0.07,-0.03 0.03,0 0.05,0.01 0.07,0.03 0.01,0.01 0.02,0.03 0.02,0.06l-0.15 0c0,0.01 0,0.03 0.02,0.04 0.01,0.01 0.02,0.02 0.04,0.02 0.01,0 0.02,0 0.02,0 0.01,-0.01 0.02,-0.01 0.02,-0.02 0.01,0 0.02,-0.01 0.02,-0.02zm0 -0.04c0,-0.01 0,-0.02 -0.01,-0.03 0,-0.01 -0.01,-0.01 -0.02,-0.02 -0.01,0 -0.02,0 -0.03,0 -0.02,0 -0.03,0 -0.04,0.01 -0.01,0.01 -0.02,0.02 -0.02,0.04l0.12 0zm0.23 -0.03l-0.02 0.01c-0.02,-0.02 -0.04,-0.03 -0.06,-0.03 -0.02,0 -0.04,0 -0.05,0.02 -0.01,0.01 -0.02,0.02 -0.02,0.04 0,0.02 0,0.03 0.01,0.04 0,0.01 0.01,0.02 0.02,0.02 0.01,0.01 0.03,0.01 0.04,0.01 0.02,0 0.04,-0.01 0.06,-0.03l0.02 0.01c-0.01,0.01 -0.02,0.02 -0.04,0.03 -0.01,0.01 -0.02,0.01 -0.04,0.01 -0.03,0 -0.05,-0.01 -0.07,-0.02 -0.01,-0.02 -0.02,-0.04 -0.02,-0.07 0,-0.01 0,-0.03 0.01,-0.04 0.01,-0.01 0.02,-0.02 0.03,-0.03 0.02,-0.01 0.03,-0.01 0.05,-0.01 0.01,0 0.02,0 0.03,0 0.01,0.01 0.02,0.01 0.03,0.01 0.01,0.01 0.01,0.02 0.02,0.03zm0.04 -0.04l0.02 0 0 0.03c0.01,-0.01 0.02,-0.02 0.03,-0.02 0.01,-0.01 0.02,-0.01 0.03,-0.01 0.01,0 0.02,0 0.03,0.01 0.01,0 0.02,0.01 0.02,0.02 0.01,0.01 0.01,0.03 0.01,0.05l0 0.09 -0.02 0 0 -0.08c0,-0.02 0,-0.03 0,-0.04 0,-0.01 -0.01,-0.02 -0.02,-0.03 0,0 -0.01,0 -0.02,0 -0.02,0 -0.03,0 -0.04,0.01 -0.01,0.01 -0.02,0.02 -0.02,0.03 0,0.01 0,0.02 0,0.05l0 0.06 -0.02 0 0 -0.17zm0.27 0c0.02,0 0.04,0.01 0.06,0.02 0.01,0.02 0.02,0.04 0.02,0.06 0,0.03 -0.01,0.05 -0.02,0.06 -0.02,0.02 -0.04,0.03 -0.06,0.03 -0.03,0 -0.05,-0.01 -0.07,-0.03 -0.01,-0.01 -0.02,-0.03 -0.02,-0.06 0,-0.02 0.01,-0.04 0.02,-0.06 0.02,-0.01 0.04,-0.02 0.07,-0.02zm0 0.02c-0.02,0 -0.04,0 -0.05,0.02 -0.01,0.01 -0.02,0.03 -0.02,0.04 0,0.02 0,0.03 0.01,0.04 0.01,0.01 0.01,0.02 0.02,0.02 0.01,0.01 0.02,0.01 0.04,0.01 0.01,0 0.02,0 0.03,-0.01 0.01,0 0.02,-0.01 0.02,-0.02 0.01,-0.01 0.01,-0.02 0.01,-0.04 0,-0.01 -0.01,-0.03 -0.02,-0.04 -0.01,-0.02 -0.03,-0.02 -0.04,-0.02zm0.12 -0.08l0.02 0 0 0.23 -0.02 0 0 -0.23zm0.14 0.06c0.03,0 0.05,0.01 0.07,0.02 0.01,0.02 0.02,0.04 0.02,0.06 0,0.03 -0.01,0.05 -0.03,0.06 -0.01,0.02 -0.03,0.03 -0.06,0.03 -0.02,0 -0.04,-0.01 -0.06,-0.03 -0.02,-0.01 -0.02,-0.03 -0.02,-0.06 0,-0.02 0,-0.04 0.02,-0.06 0.01,-0.01 0.04,-0.02 0.06,-0.02zm0 0.02c-0.02,0 -0.03,0 -0.04,0.02 -0.02,0.01 -0.02,0.03 -0.02,0.04 0,0.02 0,0.03 0.01,0.04 0,0.01 0.01,0.02 0.02,0.02 0.01,0.01 0.02,0.01 0.03,0.01 0.01,0 0.02,0 0.03,-0.01 0.01,0 0.02,-0.01 0.03,-0.02 0,-0.01 0.01,-0.02 0.01,-0.04 0,-0.01 -0.01,-0.03 -0.02,-0.04 -0.02,-0.02 -0.03,-0.02 -0.05,-0.02zm0.27 -0.02l0.02 0 0 0.13c0,0.03 0,0.04 0,0.05 -0.01,0.02 -0.02,0.03 -0.03,0.04 -0.02,0.01 -0.03,0.01 -0.05,0.01 -0.02,0 -0.03,0 -0.04,-0.01 -0.01,0 -0.02,0 -0.03,-0.01 -0.01,-0.01 -0.01,-0.02 -0.02,-0.03l0.02 0c0.01,0.01 0.02,0.02 0.03,0.02 0.01,0.01 0.02,0.01 0.04,0.01 0.01,0 0.02,0 0.03,-0.01 0.01,0 0.02,-0.01 0.02,-0.02 0.01,-0.01 0.01,-0.02 0.01,-0.04l0 -0.01c-0.01,0.01 -0.02,0.02 -0.03,0.03 -0.01,0 -0.02,0.01 -0.04,0.01 -0.01,0 -0.03,-0.01 -0.04,-0.02 -0.01,0 -0.02,-0.01 -0.03,-0.03 -0.01,-0.01 -0.01,-0.02 -0.01,-0.04 0,-0.01 0,-0.03 0.01,-0.04 0.01,-0.01 0.02,-0.02 0.03,-0.03 0.02,-0.01 0.03,-0.01 0.04,-0.01 0.02,0 0.03,0 0.04,0 0.01,0.01 0.02,0.02 0.03,0.03l0 -0.03zm-0.06 0.02c-0.01,0 -0.03,0 -0.04,0.01 -0.01,0 -0.01,0.01 -0.02,0.02 -0.01,0.01 -0.01,0.02 -0.01,0.03 0,0.02 0.01,0.04 0.02,0.05 0.01,0.01 0.03,0.02 0.05,0.02 0.02,0 0.03,-0.01 0.04,-0.02 0.02,-0.01 0.02,-0.03 0.02,-0.05 0,-0.01 0,-0.02 -0.01,-0.03 0,-0.01 -0.01,-0.02 -0.02,-0.02 -0.01,-0.01 -0.02,-0.01 -0.03,-0.01zm0.13 -0.09c0.01,0 0.01,0 0.02,0.01 0,0 0,0.01 0,0.01 0,0.01 0,0.01 0,0.01 -0.01,0.01 -0.01,0.01 -0.02,0.01 0,0 0,0 -0.01,-0.01 0,0 0,0 0,-0.01 0,0 0,-0.01 0,-0.01 0.01,-0.01 0.01,-0.01 0.01,-0.01zm-0.01 0.07l0.02 0 0 0.17 -0.02 0 0 -0.17zm0.23 0l0 0.17 -0.02 0 0 -0.03c-0.01,0.01 -0.02,0.02 -0.03,0.02 -0.01,0.01 -0.02,0.01 -0.03,0.01 -0.03,0 -0.05,-0.01 -0.06,-0.03 -0.02,-0.01 -0.03,-0.03 -0.03,-0.06 0,-0.02 0.01,-0.04 0.03,-0.06 0.01,-0.01 0.03,-0.02 0.06,-0.02 0.01,0 0.02,0 0.03,0.01 0.01,0 0.02,0.01 0.03,0.02l0 -0.03 0.02 0zm-0.08 0.02c-0.01,0 -0.02,0 -0.03,0.01 -0.01,0 -0.02,0.01 -0.03,0.02 0,0.01 -0.01,0.02 -0.01,0.03 0,0.02 0.01,0.03 0.01,0.04 0.01,0.01 0.02,0.02 0.03,0.02 0.01,0.01 0.02,0.01 0.03,0.01 0.01,0 0.02,0 0.03,-0.01 0.01,0 0.02,-0.01 0.03,-0.02 0,-0.01 0,-0.02 0,-0.04 0,-0.01 0,-0.03 -0.01,-0.04 -0.02,-0.02 -0.03,-0.02 -0.05,-0.02zm-3.97 -0.17l0.09 -0.62 0.01 0 0.25 0.51 0.25 -0.51 0.01 0 0.09 0.62 -0.06 0 -0.06 -0.45 -0.22 0.45 -0.02 0 -0.22 -0.45 -0.06 0.45 -0.06 0zm1.07 -0.62l0.29 0.62 -0.07 0 -0.09 -0.2 -0.27 0 -0.1 0.2 -0.06 0 0.29 -0.62 0.01 0zm0 0.13l-0.11 0.22 0.21 0 -0.1 -0.22zm0.98 -0.03l-0.04 0.05c-0.04,-0.04 -0.08,-0.06 -0.12,-0.08 -0.04,-0.02 -0.08,-0.03 -0.12,-0.03 -0.05,0 -0.09,0.02 -0.14,0.04 -0.04,0.02 -0.08,0.06 -0.1,0.1 -0.02,0.04 -0.04,0.08 -0.04,0.13 0,0.04 0.02,0.09 0.04,0.13 0.03,0.04 0.06,0.08 0.11,0.1 0.04,0.02 0.09,0.04 0.14,0.04 0.06,0 0.12,-0.02 0.16,-0.06 0.05,-0.03 0.07,-0.08 0.08,-0.14l-0.2 0 0 -0.06 0.27 0c0,0.1 -0.03,0.17 -0.08,0.23 -0.06,0.06 -0.14,0.09 -0.23,0.09 -0.12,0 -0.21,-0.04 -0.27,-0.12 -0.05,-0.06 -0.08,-0.13 -0.08,-0.21 0,-0.06 0.01,-0.12 0.04,-0.17 0.03,-0.05 0.07,-0.09 0.13,-0.12 0.05,-0.02 0.11,-0.04 0.17,-0.04 0.05,0 0.1,0.01 0.15,0.03 0.04,0.02 0.09,0.05 0.13,0.09zm0.16 -0.1l0.35 0 0 0.06 -0.29 0 0 0.19 0.29 0 0 0.06 -0.29 0 0 0.25 0.29 0 0 0.06 -0.35 0 0 -0.62zm0.46 0.62l0 -0.62 0.01 0 0.41 0.47 0 -0.47 0.07 0 0 0.62 -0.02 0 -0.41 -0.47 0 0.47 -0.06 0zm0.64 -0.62l0.35 0 0 0.06 -0.29 0 0 0.19 0.29 0 0 0.06 -0.29 0 0 0.25 0.29 0 0 0.06 -0.35 0 0 -0.62zm0.4 0.06l0 -0.06 0.34 0 0 0.06 -0.14 0 0 0.56 -0.07 0 0 -0.56 -0.13 0z"/>
   <g>
    <path class="fil2" d="M1.64 0.88l0.03 0.38 -0.79 -0.12 -0.01 -0.22 -0.05 -0.02 0.82 -0.02zm-0.85 0.25l-0.42 -0.06 0.37 -0.11 0.05 0.17z"/>
    <polygon class="fil2" points="0.35,1.15 0.32,1.14 0.28,1.21 0.32,1.27 0.35,1.28 0.39,1.26 "/>
    <path class="fil1" d="M0.07 1.14l0 0 0 0 0 0 0.09 -0.22 0.56 -0.05 0 0 0 0 0.14 0.06 0.02 0.3 -0.04 0.06 -0.48 0.15 -0.18 -0.06 -0.11 -0.24 0 0zm0.68 -0.19l-0.52 0.15 0.09 0.25 0.5 -0.11 -0.07 -0.29 0 0z"/>
    <polygon class="fil3" points="1.29,1.21 1.04,2.17 1.72,2.07 1.67,1.27 "/>
    <polygon class="fil2" points="0.2,1.79 1.03,2.17 1.14,1.76 0,1.54 "/>
    <path class="fil3" d="M0.26 1.59l0.03 -0.17 -0.11 -0.03 -0.07 -0.14 -0.11 0.29 0.26 0.05zm0.06 -0.28l0 -0.04 0 0 -0.04 -0.06 0.04 -0.07 0.03 0 0.02 -0.07 -0.13 0.03 0.08 0.21z"/>
   </g>
  </g>
 </g>
</svg>
